<svg xmlns="http://www.w3.org/2000/svg" xmlns:xlink="http://www.w3.org/1999/xlink" width="420" height="120" viewBox="0 0 420 120"><defs><clipPath id="a"><rect width="420" height="120" fill="none"/></clipPath></defs><g transform="translate(-2294.458 -1190.053)"><rect width="420" height="120" transform="translate(2294.458 1190.053)" fill="#f2e8e1"/><g transform="translate(2338.346 1236.544)"><path d="M2590.193,1496.946a33.132,33.132,0,0,0,6.461-19.375,28.322,28.322,0,0,0-7.234-18.893c.047-.246.088-.488.123-.734.052-.361-.152-.812-.591-.778q-.464.037-.928.081c-5.12-4.835-11.432-8.417-18.585-8.9a28.688,28.688,0,0,0-20.322,6.621,31.621,31.621,0,0,0-7.391,8.75c-.1-.007-.2-.02-.3-.027-.942-.056-2.9-.2-3.172,1.07-.228,1.079,1.085,2.321,1.668,3.076.039.051.081.1.12.152a38.173,38.173,0,0,0-1.525,9.761,31.4,31.4,0,0,0,.969,9.559,32.561,32.561,0,0,0,10.1,15.394c.1.471.2.942.3,1.407a.619.619,0,0,0,.767.422.632.632,0,0,0,.133-.056,5.027,5.027,0,0,1,.778-.336c5.674,3.491,12.648,4.214,19.145,3.4,5.959-.746,11.91-2.772,16.309-6.977a7.9,7.9,0,0,0,3.042-.579c1.509-.623.628-1.839.142-3.008C2590.205,1496.971,2590.2,1496.959,2590.193,1496.946Zm-1.972-38.485a26.752,26.752,0,0,1-9.033,15.163,11.781,11.781,0,0,0-7.425-.236,4.374,4.374,0,0,0-.417-.481.56.56,0,0,0,.044-.155c.214-1.325.427-2.671.587-4.023,2.122-2.684,4.369-5.75,7.229-7.644,2.662-1.764,5.882-2.346,9.015-2.63Zm-17.193,36.773a16.059,16.059,0,0,1-1.448,5.311c-.135.28-.422.834-.78,1.43a.452.452,0,0,0-.241.388c-.672,1.043-1.508,2.06-2.1,1.832-.567-.214-1.374-1.323-1.786-1.754a20.223,20.223,0,0,1-1.653-1.923,9.063,9.063,0,0,1-1.95-4.926,23.862,23.862,0,0,1,.762-6.1,20.546,20.546,0,0,1,1.8-5.046c.074.1.147.189.216.275a4.61,4.61,0,0,0,2.924,1.481,2.513,2.513,0,0,0,3.128-1.6c.154.081.314.157.476.231a44.459,44.459,0,0,1,.662,10.391Zm1.123.857a22.244,22.244,0,0,0,.206-3.074,27.389,27.389,0,0,0,6.962,5.181c.074.042.15.081.226.123a25.154,25.154,0,0,1-9.179,3.368,16.751,16.751,0,0,0,1.789-5.6Zm-9.375,6.074a26.522,26.522,0,0,1-4.855-.829,29.45,29.45,0,0,0,2.7-2.667,12.216,12.216,0,0,0,1.908,3.189C2562.6,1501.961,2562.691,1502.064,2562.776,1502.164Zm-20.841-17.113c.587-.636,1.182-1.262,1.8-1.867a31.028,31.028,0,0,1,4.069-3.454,17.324,17.324,0,0,1,8.476-3.246,6.621,6.621,0,0,0,1.835,4.207,6.079,6.079,0,0,0,3.263,1.6,12.757,12.757,0,0,1-7.325,4.906c-3.678.8-7.882.088-11.488-.783a5.017,5.017,0,0,1-1.256-.366C2541.15,1485.709,2541.761,1485.232,2541.935,1485.051Zm.65-14.077c.125.135.248.27.376.4a46.154,46.154,0,0,0,6.746,5.79,22.844,22.844,0,0,0-3.483,2.2,36.782,36.782,0,0,0-4.124,3.722,32.367,32.367,0,0,1,.484-12.114Zm16.844,9.231c-1.291-.933-2.507-3.45-1.659-4.987a4.264,4.264,0,0,1,4.377-1.982,5.091,5.091,0,0,1,3.721,3.263,9.2,9.2,0,0,1-1.366,3.14c-.3.486-.746.987-1.109,1.5a5.782,5.782,0,0,1-3.964-.937Zm-6.843-13.581a33.789,33.789,0,0,0-6.2-1.879c-.454-.123-.906-.25-1.362-.373a25.146,25.146,0,0,1,17.66-11.589c-.012.034-.027.066-.039.1a36.044,36.044,0,0,0-1.869,6.349q-.169.864-.3,1.736a20.469,20.469,0,0,0-5.74-3.781c-.8-.363-1.507-.53-2,.341a9.221,9.221,0,0,0-.741,3.584,15.736,15.736,0,0,0,.589,5.507Zm19.054-6.76a16.685,16.685,0,0,0-2.563-5.313q-.725-1.023-1.543-1.972a24.664,24.664,0,0,1,13.927,6.013,14.633,14.633,0,0,0-2.532,1.217c-2.654,1.626-4.783,4.2-6.748,6.7a20.717,20.717,0,0,0-.539-6.645Zm-4.607,16.265a7,7,0,0,0-2.014-2.843c2.087-.815,4.766-.981,6.007,1.269a3.545,3.545,0,0,1,.194,3.013c-.326.837-1.241,2.011-2.247,1.619a16.136,16.136,0,0,0-1.939-3.062Zm1.781,8.083c-.5,1.359-2.667.82-3.57.145-.655-.491-1.364-1.4-.979-2.188a.52.52,0,0,0,.2-.339c.282-.437.636-.852.915-1.283a13.087,13.087,0,0,0,1.4-2.711,14.418,14.418,0,0,1,1.1,1.955.5.5,0,0,0,.083.184c.186.41.351.827.5,1.244a4.937,4.937,0,0,1,.353,2.99Zm1.923-22.76a23.885,23.885,0,0,1,.061,6.886.588.588,0,0,0-.019.157c-.142,1.222-.331,2.436-.523,3.636a7.716,7.716,0,0,0-6.263.267.517.517,0,0,0-.169.115,5.5,5.5,0,0,0-1.525-.486,5.292,5.292,0,0,0-.557-.054,35.453,35.453,0,0,1,1.2-16.267c.265-.842.557-1.678.888-2.5.137-.339.375-1.185.7-1.388.478-.294.849.155,1.124.484.01.013.021.026.032.039.032.037.061.071.091.1a18.213,18.213,0,0,1,4.961,9.006Zm-17.314-1.759c.064-.329.108-1.136.339-1.382s.875.179,1.255.373a18.125,18.125,0,0,1,5.272,3.84,37.919,37.919,0,0,0,.231,9.515,5.672,5.672,0,0,0-2.409,1,13.291,13.291,0,0,1-3.722-5.024.488.488,0,0,0-.1-.221,14.811,14.811,0,0,1-1.09-5.085,13.822,13.822,0,0,1,.224-3.02Zm16.687,23.621a5.468,5.468,0,0,0-.088-1,11.456,11.456,0,0,0-.476-1.766c2.178-.066,3.5-3.556,3-5.48a5.384,5.384,0,0,0-.187-.582,10.924,10.924,0,0,1,7.722.827,22.286,22.286,0,0,1,3.8,2.488c.562.442,1.111.9,1.658,1.362a6.492,6.492,0,0,1,.692.581c-.015.113-.626.407-.751.479-2.564,1.452-5.127,3.143-7.97,3.991a9.665,9.665,0,0,1-7.4-.9Zm12.847-.26c.785-.437,1.563-.883,2.345-1.327a6.471,6.471,0,0,0,2.043-1.281c.9-1.207-1.177-2.357-1.935-2.976a27.354,27.354,0,0,0-4.334-3.02c-.2-.108-.4-.209-.609-.307a27.144,27.144,0,0,0,5.6-6.974q.54-.928,1.032-1.9c4.371,7.624,3.927,17.293-.336,24.921a21.957,21.957,0,0,0-5.981-5.988c.742-.361,1.462-.752,2.176-1.151Zm-26.231-31.339a27.374,27.374,0,0,1,21.242.029,31.025,31.025,0,0,1,8.449,5.686,25.327,25.327,0,0,0-3.588.717c-4.635-4.008-10.158-6.711-16.373-6.846a2.974,2.974,0,0,0-1.067-.842c-.942-.368-1.6.241-2.073,1.013a24.856,24.856,0,0,0-12.2,4.617,29.633,29.633,0,0,0-7.327,7.971c-.25-.057-.5-.108-.753-.155a28.874,28.874,0,0,1,13.7-12.192ZM2539.7,1465.49c-.022-.5.5-.51.8-.579a3.8,3.8,0,0,1,1.369.025.623.623,0,0,0,.3.052c.255.047.5.1.717.137,1.3.243,2.566.633,3.84.984,2.078.572,4.82.938,6.526,2.38a14.256,14.256,0,0,0,3.959,5.387,5.03,5.03,0,0,0-.5.721,3.312,3.312,0,0,0-.27.648,17.111,17.111,0,0,0-5.451,1.324,44.222,44.222,0,0,1-10.809-10.4C2540.091,1466.03,2539.713,1465.658,2539.7,1465.49Zm.044,12.464a35.965,35.965,0,0,1,1.256-8.778c.187.226.375.447.567.668-1.025,4.641-1.535,9.636-.5,14.322a8.791,8.791,0,0,0-.862.969,37.775,37.775,0,0,1-.46-7.181Zm.979,9.2a8.62,8.62,0,0,0,1.5.535,28.318,28.318,0,0,0,6.746,10.077,21.563,21.563,0,0,0,.265,2.993,31.5,31.5,0,0,1-8.51-13.606Zm8.448,7.96c-.059.329-.1.655-.135.984a26.732,26.732,0,0,1-5.372-8.1c1.092.184,2.2.292,3.188.424a25.884,25.884,0,0,0,5.8.214,13.657,13.657,0,0,0-3.475,6.471Zm2.149,7.83c-.135.044-.27.093-.4.145-.049-.221-.1-.442-.142-.665a.483.483,0,0,0-.064-.312,23,23,0,0,1-.538-4.5.536.536,0,0,0,0-.258,12.04,12.04,0,0,1,.177-1.921,13.492,13.492,0,0,1,3.875-6.729.6.6,0,0,0,.164-.336,13.994,13.994,0,0,0,8.385-5.964h.012a1.862,1.862,0,0,0,.128.824.565.565,0,0,0-.108.14,26.023,26.023,0,0,0-2.826,9.807,11.523,11.523,0,0,0,.226,4.248.584.584,0,0,0-.282.174,23.416,23.416,0,0,1-3.638,3.452.391.391,0,0,0-.074.054c-.206.142-.415.277-.631.4a17.214,17.214,0,0,1-3.964,1.33.525.525,0,0,0-.3.107Zm19.031,3.43c-5.767.682-11.905.118-17.081-2.657.292-.066.584-.137.871-.223a9.546,9.546,0,0,0,2.389-1.119c.051-.034.1-.071.152-.106a27.611,27.611,0,0,0,7.188,1.177,14.018,14.018,0,0,0,1.965,1.83c1.075.8,1.918-.167,2.667-.972a12.707,12.707,0,0,0,1.013-1.252,26.244,26.244,0,0,0,11.275-4.106,16.994,16.994,0,0,0,4.553,1.489c-4.162,3.561-9.592,5.3-14.992,5.933Zm19.353-7.4c0-.086-.955.135-1.015.15a8.557,8.557,0,0,1-1.805.189.516.516,0,0,0-.15,0,13.494,13.494,0,0,1-5.615-1.557.508.508,0,0,0-.326-.162c-.53-.27-1.047-.557-1.55-.849a22.755,22.755,0,0,1-6.91-5.64c-.01-.012-.022-.022-.032-.034-.113-1.927-.378-3.85-.636-5.751a10.876,10.876,0,0,0,6.369.015c.481-.15.951-.326,1.417-.52a20.313,20.313,0,0,1,6.53,6.415,35.769,35.769,0,0,1,2.205,4.17q.354.777.682,1.56a.484.484,0,0,0,.066.159c.115.275.233.55.345.825a5.009,5.009,0,0,1,.425,1.024Zm-.074-3.334a42.607,42.607,0,0,0-2.014-4.067c-.039-.069-.081-.135-.12-.2a.347.347,0,0,0,.027-.039c4.892-8.307,5.363-19.125.2-27.385a24.518,24.518,0,0,0,1.355-3.78,27.006,27.006,0,0,1,6.333,17.829,32.108,32.108,0,0,1-5.78,17.637Z" transform="translate(-2538.234 -1448.288)" fill="#754421"/><path d="M2653.848,1731.178c-4.161,3.557-9.6,5.292-14.994,5.93-5.768.682-11.905.118-17.082-2.657.292-.066.584-.137.871-.223a9.533,9.533,0,0,0,2.389-1.119c.051-.034.1-.071.152-.106a27.624,27.624,0,0,0,7.188,1.184,13.973,13.973,0,0,0,1.965,1.83c1.074.8,1.918-.167,2.666-.972a12.72,12.72,0,0,0,1.013-1.251,26.244,26.244,0,0,0,11.275-4.106A16.992,16.992,0,0,0,2653.848,1731.178Z" transform="translate(-2606.732 -1679.027)" fill="#ebc8b2"/><path d="M2819.815,1532.079a32.1,32.1,0,0,1-5.785,17.643,42.58,42.58,0,0,0-2.014-4.067c-.039-.069-.081-.135-.12-.2a.379.379,0,0,0,.027-.039c4.892-8.307,5.363-19.125.2-27.385a24.57,24.57,0,0,0,1.354-3.781A27.005,27.005,0,0,1,2819.815,1532.079Z" transform="translate(-2762.628 -1502.375)" fill="#ebc8b2"/><path d="M2608.261,1463.316a25.347,25.347,0,0,0-3.589.717c-4.634-4.008-10.158-6.711-16.373-6.846a2.973,2.973,0,0,0-1.066-.842c-.942-.368-1.6.241-2.073,1.013a24.854,24.854,0,0,0-12.2,4.617,29.632,29.632,0,0,0-7.327,7.975c-.25-.057-.5-.108-.753-.155a28.873,28.873,0,0,1,13.695-12.2,27.374,27.374,0,0,1,21.242.029A31.03,31.03,0,0,1,2608.261,1463.316Z" transform="translate(-2560.08 -1454.176)" fill="#ebc8b2"/><path d="M2547.883,1579.312a8.9,8.9,0,0,0-.862.969,37.8,37.8,0,0,1-.459-7.18,35.964,35.964,0,0,1,1.256-8.778c.187.226.375.447.567.668C2547.361,1569.632,2546.85,1574.626,2547.883,1579.312Z" transform="translate(-2545.047 -1543.433)" fill="#ebc8b2"/><path d="M2560.6,1677.737a31.506,31.506,0,0,1-8.508-13.6,8.651,8.651,0,0,0,1.5.535,28.316,28.316,0,0,0,6.741,10.077A21.565,21.565,0,0,0,2560.6,1677.737Z" transform="translate(-2549.595 -1625.273)" fill="#ebc8b2"/><path d="M2577.418,1669.47a13.657,13.657,0,0,0-3.476,6.479c-.059.329-.1.655-.135.984a26.731,26.731,0,0,1-5.372-8.1c1.092.184,2.2.292,3.189.424A25.853,25.853,0,0,0,2577.418,1669.47Z" transform="translate(-2562.998 -1629.129)" fill="#a88067"/><path d="M2565.694,1580.464a22.871,22.871,0,0,0-3.484,2.2,36.833,36.833,0,0,0-4.124,3.721,32.362,32.362,0,0,1,.486-12.118c.125.135.248.27.375.4A46.155,46.155,0,0,0,2565.694,1580.464Z" transform="translate(-2554.221 -1551.587)" fill="#a88067"/><path d="M2593.6,1473.246c-.012.034-.027.066-.039.1a36.026,36.026,0,0,0-1.869,6.349q-.169.865-.3,1.736a20.479,20.479,0,0,0-5.74-3.781c-.8-.363-1.507-.53-2,.341a9.216,9.216,0,0,0-.741,3.584,15.725,15.725,0,0,0,.577,5.512,33.783,33.783,0,0,0-6.2-1.879c-.454-.123-.906-.25-1.362-.373A25.146,25.146,0,0,1,2593.6,1473.246Z" transform="translate(-2569.144 -1468.753)" fill="#a88067"/><path d="M2714.909,1478.125a14.642,14.642,0,0,0-2.532,1.217c-2.654,1.626-4.783,4.2-6.749,6.7a20.725,20.725,0,0,0-.54-6.639,16.679,16.679,0,0,0-2.563-5.314q-.726-1.023-1.543-1.972A24.664,24.664,0,0,1,2714.909,1478.125Z" transform="translate(-2671.682 -1467.824)" fill="#a88067"/><path d="M2779.117,1567.526a21.948,21.948,0,0,0-5.981-5.988c.739-.361,1.459-.753,2.173-1.153.784-.437,1.562-.884,2.345-1.328a6.47,6.47,0,0,0,2.043-1.281c.9-1.207-1.177-2.357-1.936-2.976a27.32,27.32,0,0,0-4.334-3.02c-.2-.108-.4-.209-.609-.307a27.143,27.143,0,0,0,5.6-6.974q.542-.927,1.033-1.9C2783.824,1550.228,2783.38,1559.9,2779.117,1567.526Z" transform="translate(-2730.586 -1525.621)" fill="#a88067"/><path d="M2652.434,1731.652a26.529,26.529,0,0,1-4.855-.828,29.435,29.435,0,0,0,2.7-2.667,12.223,12.223,0,0,0,1.908,3.189C2652.265,1731.445,2652.351,1731.552,2652.434,1731.652Z" transform="translate(-2627.893 -1677.771)" fill="#a88067"/><path d="M2725.913,1702a25.156,25.156,0,0,1-9.179,3.368,16.753,16.753,0,0,0,1.786-5.6,22.2,22.2,0,0,0,.206-3.074,27.389,27.389,0,0,0,6.962,5.181C2725.761,1701.92,2725.837,1701.956,2725.913,1702Z" transform="translate(-2684.598 -1651.975)" fill="#a88067"/><path d="M2614.4,1648.523a11.519,11.519,0,0,0,.226,4.248.584.584,0,0,0-.282.174,23.4,23.4,0,0,1-3.638,3.452.407.407,0,0,0-.074.054c-.206.142-.415.277-.631.4a17.218,17.218,0,0,1-3.964,1.33.526.526,0,0,0-.3.1c-.135.044-.27.093-.4.145-.049-.221-.1-.442-.142-.665a.479.479,0,0,0-.064-.312,23.014,23.014,0,0,1-.538-4.5.535.535,0,0,0,0-.258,12.069,12.069,0,0,1,.177-1.921,13.492,13.492,0,0,1,3.875-6.729.6.6,0,0,0,.164-.336,13.994,13.994,0,0,0,8.385-5.964h.012a1.859,1.859,0,0,0,.128.824.574.574,0,0,0-.108.14A26.018,26.018,0,0,0,2614.4,1648.523Z" transform="translate(-2592.646 -1603.634)" fill="#41b76d"/><path d="M2741.992,1665.309c0-.086-.954.135-1.015.15a8.547,8.547,0,0,1-1.805.189.507.507,0,0,0-.15,0,13.493,13.493,0,0,1-5.615-1.557.508.508,0,0,0-.326-.162c-.53-.27-1.048-.557-1.551-.849a22.756,22.756,0,0,1-6.91-5.64c-.01-.012-.022-.022-.032-.034-.113-1.926-.378-3.849-.636-5.751a10.877,10.877,0,0,0,6.368.015c.481-.15.952-.326,1.417-.52a20.315,20.315,0,0,1,6.531,6.414,35.787,35.787,0,0,1,2.2,4.17q.354.777.682,1.56a.482.482,0,0,0,.066.159c.115.275.233.55.346.825A5,5,0,0,1,2741.992,1665.309Z" transform="translate(-2690.517 -1614.629)" fill="#41b76d"/><path d="M2675.036,1659.894a16.058,16.058,0,0,1-1.448,5.311c-.135.28-.422.834-.78,1.431a.452.452,0,0,0-.241.388c-.672,1.043-1.508,2.06-2.1,1.833-.567-.214-1.374-1.323-1.785-1.754a20.241,20.241,0,0,1-1.653-1.923,9.064,9.064,0,0,1-1.95-4.926,23.851,23.851,0,0,1,.763-6.1,20.546,20.546,0,0,1,1.8-5.046c.074.1.147.189.216.275a4.61,4.61,0,0,0,2.924,1.482,2.513,2.513,0,0,0,3.128-1.6c.154.081.314.157.476.231A44.448,44.448,0,0,1,2675.036,1659.894Z" transform="translate(-2642.238 -1612.954)" fill="#41b76d"/><path d="M2693.214,1588.881c-.326.837-1.241,2.011-2.247,1.619a16.116,16.116,0,0,0-1.94-3.057,7,7,0,0,0-2.014-2.843c2.087-.815,4.766-.98,6.008,1.269A3.544,3.544,0,0,1,2693.214,1588.881Z" transform="translate(-2660.227 -1559.606)" fill="#41b76d"/><path d="M2686.882,1618.766c-.5,1.359-2.666.82-3.57.145-.655-.491-1.365-1.4-.979-2.188a.521.521,0,0,0,.2-.339c.282-.437.636-.852.915-1.284a13.071,13.071,0,0,0,1.4-2.711,14.407,14.407,0,0,1,1.1,1.955.5.5,0,0,0,.083.184c.186.41.351.827.5,1.244A4.939,4.939,0,0,1,2686.882,1618.766Z" transform="translate(-2656.301 -1582.845)" fill="#41b76d"/><path d="M2653.57,1589.807a9.2,9.2,0,0,1-1.366,3.14c-.3.486-.746.986-1.109,1.5a5.783,5.783,0,0,1-3.964-.937c-1.291-.932-2.507-3.45-1.658-4.987a4.262,4.262,0,0,1,4.376-1.982A5.09,5.09,0,0,1,2653.57,1589.807Z" transform="translate(-2625.935 -1561.597)" fill="#41b76d"/><path d="M2575.262,1610.7a12.758,12.758,0,0,1-7.325,4.906c-3.677.8-7.882.088-11.488-.783a4.99,4.99,0,0,1-1.255-.366c-.157-.339.454-.815.628-1,.586-.635,1.182-1.261,1.8-1.867a31.057,31.057,0,0,1,4.069-3.454,17.326,17.326,0,0,1,8.474-3.246A6.622,6.622,0,0,0,2572,1609.1,6.082,6.082,0,0,0,2575.262,1610.7Z" transform="translate(-2552.119 -1576.695)" fill="#41b76d"/><path d="M2563.914,1549.366a4.992,4.992,0,0,0-.5.721,3.327,3.327,0,0,0-.27.648,17.1,17.1,0,0,0-5.451,1.324,44.22,44.22,0,0,1-10.8-10.4c-.1-.138-.476-.513-.484-.677-.022-.5.5-.51.8-.579a3.8,3.8,0,0,1,1.368.024.623.623,0,0,0,.3.052c.255.047.5.1.717.137,1.3.243,2.566.633,3.84.983,2.078.572,4.82.938,6.525,2.38A14.255,14.255,0,0,0,2563.914,1549.366Z" transform="translate(-2544.934 -1523.779)" fill="#41b76d"/><path d="M2628.637,1517.325a5.672,5.672,0,0,0-2.409,1,13.288,13.288,0,0,1-3.722-5.024.489.489,0,0,0-.1-.221,14.806,14.806,0,0,1-1.09-5.085,13.848,13.848,0,0,1,.219-3.018c.064-.329.108-1.135.339-1.381s.876.179,1.256.373a18.13,18.13,0,0,1,5.272,3.839A37.936,37.936,0,0,0,2628.637,1517.325Z" transform="translate(-2606.352 -1493.577)" fill="#41b76d"/><path d="M2675.854,1483.962a.578.578,0,0,0-.019.157c-.142,1.221-.331,2.436-.523,3.635a7.716,7.716,0,0,0-6.262.267.511.511,0,0,0-.169.115,5.5,5.5,0,0,0-1.526-.486,5.354,5.354,0,0,0-.557-.054,35.453,35.453,0,0,1,1.2-16.267c.265-.842.557-1.678.888-2.5.137-.339.375-1.185.7-1.388.478-.294.848.155,1.124.484a.491.491,0,0,0,.032.039c.032.037.061.071.091.1a18.216,18.216,0,0,1,4.953,9.006A23.885,23.885,0,0,1,2675.854,1483.962Z" transform="translate(-2643.288 -1463.916)" fill="#41b76d"/><path d="M2739.033,1504.734A26.751,26.751,0,0,1,2730,1519.9a11.78,11.78,0,0,0-7.425-.236,4.408,4.408,0,0,0-.417-.481.554.554,0,0,0,.044-.155c.214-1.324.427-2.671.587-4.023,2.123-2.684,4.37-5.75,7.229-7.644C2732.682,1505.6,2735.9,1505.024,2739.033,1504.734Z" transform="translate(-2689.046 -1494.572)" fill="#41b76d"/><path d="M2728.818,1597.414c-.015.113-.626.407-.751.479-2.564,1.453-5.127,3.143-7.97,3.992a9.664,9.664,0,0,1-7.4-.9,5.469,5.469,0,0,0-.088-1,11.5,11.5,0,0,0-.476-1.766c2.178-.066,3.5-3.557,3-5.48a5.417,5.417,0,0,0-.187-.581,10.924,10.924,0,0,1,7.722.827,22.3,22.3,0,0,1,3.8,2.487c.562.442,1.111.9,1.658,1.361A6.442,6.442,0,0,1,2728.818,1597.414Z" transform="translate(-2680.829 -1565.963)" fill="#41b76d"/></g><g transform="translate(2661.226 1245.415)"><path d="M4371.673,1503.75a66.274,66.274,0,0,0-6.868-2.17c-3.357-.985-6.727-1.929-10.119-2.786-2.176-.551-4.585-1.383-6.861-1.208-2.954.229-3.271,3.269-3.937,5.589q-1.036,3.615-2.076,7.228c-3.2,11.148-6.549,22.269-9.525,33.48-.1.361-.2.722-.267,1.09-.143.819-.659,2.046-.034,2.783a2.962,2.962,0,0,0,1.45.72c.989.315,1.983.607,2.977.906q4.666,1.4,9.35,2.757c3.041.884,6.084,1.762,9.14,2.6,1.3.356,4.425,1.682,5.668.613.686-.588.887-2.157,1.125-2.957.7-2.344,1.336-4.707,1.974-7.07,1.734-6.445,3.4-12.911,5.035-19.381,1.219-4.8,2.4-9.614,3.582-14.424C4372.827,1509.333,4374.583,1504.965,4371.673,1503.75Zm.358,3.5a47.149,47.149,0,0,1-1.452,6.3q-.868,3.548-1.759,7.085-2.323,9.26-4.737,18.493c-1.229,4.684-2.4,9.405-3.867,14.021a5.6,5.6,0,0,1-.454,1.305c-.037-.091-.809.049-1.015.025a4.23,4.23,0,0,1-.528-.106c-2.183-.508-4.342-1.158-6.5-1.769-5.673-1.609-11.338-3.256-16.978-4.98-.353-.108-.709-.214-1.062-.327a2.445,2.445,0,0,1-.577-.2c-.411-.406-.015-1.491.091-2v.01c.009-.023.047-.207.063-.273.059-.233.121-.465.182-.7q.29-1.077.59-2.149.922-3.322,1.87-6.639,2.594-9.123,5.214-18.238,2.121-7.375,4.24-14.753a9.484,9.484,0,0,1,.972-2.87c.813-1.106,2.572-.783,3.76-.562,2.751.517,5.468,1.282,8.166,2.015q4.627,1.262,9.217,2.662c1.036.318,2.072.639,3.1.995a4.579,4.579,0,0,1,.856.316C4372.191,1505.4,4372.107,1506.471,4372.031,1507.254Z" transform="translate(-4331.684 -1497.562)" fill="#754421"/><path d="M4377.06,1510.213a4.6,4.6,0,0,0-.856-.316c-1.024-.356-2.061-.676-3.1-.995q-4.589-1.41-9.218-2.662c-2.7-.733-5.415-1.5-8.167-2.015-1.188-.222-2.948-.545-3.76.562a9.511,9.511,0,0,0-.972,2.87q-2.115,7.379-4.239,14.753-2.615,9.118-5.213,18.237-.942,3.316-1.87,6.638-.3,1.072-.59,2.149c-.061.232-.123.464-.182.7-.017.066-.056.249-.064.273v-.01c-.107.5-.5,1.589-.092,2a2.459,2.459,0,0,0,.577.2c.353.113.708.219,1.062.327,5.641,1.724,11.305,3.371,16.978,4.98,2.157.612,4.316,1.262,6.5,1.769a4.245,4.245,0,0,0,.527.106c.206.024.978-.116,1.015-.025a5.615,5.615,0,0,0,.454-1.306c1.466-4.615,2.636-9.336,3.866-14.021q2.421-9.236,4.737-18.493.889-3.539,1.758-7.085a47.219,47.219,0,0,0,1.453-6.3C4377.743,1511.753,4377.827,1510.685,4377.06,1510.213Zm-2.541,7.8c-1,4.036-1.961,8.08-2.969,12.112-1.422,5.688-2.858,11.373-4.348,17.043-.574,2.191-1.153,4.381-1.769,6.561a14.845,14.845,0,0,1-1.009,3.226c-.719,1.274-2.672.538-3.771.239-2.5-.674-4.977-1.415-7.457-2.152q-4.1-1.221-8.189-2.48c-.873-.269-1.744-.533-2.611-.817a2.49,2.49,0,0,1-1.249-.658c-.558-.694-.1-1.751.037-2.517.062-.321.147-.637.229-.951,2.517-9.679,5.33-19.293,8.03-28.918q.938-3.346,1.875-6.688c.433-1.543.736-4.219,1.963-5.3,1.559-1.369,4.357-.386,6.1.039,2.879.7,5.729,1.522,8.566,2.37a45.432,45.432,0,0,1,6.164,2c2.42,1.137.868,5.022.409,6.892Z" transform="translate(-4337.319 -1502.844)" fill="#c9c9c9"/><path d="M4384.683,1520.3a45.4,45.4,0,0,0-6.164-2c-2.838-.848-5.687-1.665-8.566-2.37-1.743-.425-4.541-1.409-6.1-.039-1.226,1.078-1.53,3.753-1.963,5.3q-.939,3.342-1.876,6.688c-2.7,9.628-5.513,19.238-8.03,28.918-.082.315-.167.631-.229.952-.139.767-.6,1.824-.037,2.517a2.489,2.489,0,0,0,1.249.658c.867.285,1.738.549,2.611.818q4.085,1.263,8.189,2.48c2.48.737,4.961,1.478,7.457,2.152,1.1.3,3.052,1.035,3.771-.239a14.814,14.814,0,0,0,1.008-3.226c.616-2.181,1.2-4.371,1.77-6.562,1.489-5.671,2.925-11.355,4.347-17.043,1.008-4.033,1.97-8.077,2.969-12.112C4385.549,1525.309,4387.1,1521.428,4384.683,1520.3Zm.034,3.1a44.577,44.577,0,0,1-1.266,5.532q-.72,2.977-1.456,5.949c-2.369,9.572-4.652,19.193-7.412,28.662-.161.553-.319,1.108-.507,1.651-.218.63-.1.54-.866.439a32.977,32.977,0,0,1-4.388-1.176q-7.344-2.114-14.642-4.4c-.32-.1-.659-.185-.97-.309-.137-.055-.31-.07-.417-.187-.282-.316.036-1.2.138-1.667a2.343,2.343,0,0,0,.055-.238c.046-.183.095-.366.141-.549q.239-.907.488-1.814.766-2.816,1.548-5.627,2.166-7.82,4.358-15.632,1.871-6.68,3.747-13.362.273-.978.548-1.956a7.4,7.4,0,0,1,.432-1.362,2.1,2.1,0,0,1,2.283-.921,36.966,36.966,0,0,1,6.331,1.484q3.99,1.088,7.939,2.326c.931.292,1.86.586,2.778.918,1.128.406,1.271,1.018,1.14,2.246Z" transform="translate(-4347.889 -1512.016)" fill="#754421"/><path d="M4390.348,1528.6a44.6,44.6,0,0,1-1.265,5.532q-.721,2.977-1.457,5.949c-2.369,9.572-4.652,19.193-7.412,28.662-.161.553-.319,1.108-.507,1.651-.218.63-.1.54-.867.439a33.066,33.066,0,0,1-4.386-1.176q-7.344-2.114-14.642-4.4c-.32-.1-.658-.185-.97-.309-.137-.055-.31-.069-.417-.187-.281-.316.036-1.2.138-1.668a2.178,2.178,0,0,0,.055-.237c.046-.183.1-.366.141-.549.159-.6.323-1.209.487-1.814q.765-2.816,1.548-5.627,2.164-7.82,4.357-15.632,1.871-6.68,3.747-13.362c.182-.651.364-1.3.547-1.956a7.446,7.446,0,0,1,.432-1.362,2.1,2.1,0,0,1,2.283-.92,36.909,36.909,0,0,1,6.332,1.483q3.99,1.089,7.94,2.326c.931.292,1.86.586,2.778.918C4390.338,1526.761,4390.479,1527.372,4390.348,1528.6Z" transform="translate(-4353.518 -1517.247)" fill="#fff"/></g><path d="M2383.333,1471.886a1.926,1.926,0,0,1-.833-.475.914.914,0,0,1-.27-.752C2382.606,1471.07,2382.973,1471.482,2383.333,1471.886Z" transform="translate(-71.965 -230.087)" fill="#a88067"/><path d="M2668.572,1309.068a1.319,1.319,0,0,1-.549.976,26.519,26.519,0,0,0-.5-2.779A1.549,1.549,0,0,1,2668.572,1309.068Z" transform="translate(-305.903 -96.111)" fill="#a88067"/><g transform="translate(2301.912 1199.599)"><path d="M2557.865,1283.82c-.417-2.2-1.05-5.042-3.016-6.4a.883.883,0,0,0-.132-.071h0c-1.682-.792-3.821-.075-5.314.816-2.093,1.246-4.106,2.654-6.121,4.013-3.2,2.154-7.944,5.175-6.476,9.734a7.887,7.887,0,0,0,3.793,4.344,10.88,10.88,0,0,0,5.624,1.674c2.126-.155,4.261-1.574,5.948-2.784a19.469,19.469,0,0,0,4.539-4.486C2558.231,1288.5,2558.348,1286.359,2557.865,1283.82Zm-9.245-3.748c1.54-1,3.667-2.457,5.583-1.638a5.113,5.113,0,0,1,1.682,2.436,21.138,21.138,0,0,0-3.894-.057c-1.441.016-2.886-.026-4.327-.112q.475-.32.955-.634Zm7.516,9.293a18.4,18.4,0,0,1-8.025,6.782c-1.964.89-3.615.519-5.537-.257a8.1,8.1,0,0,1-4.234-3.4c-1.686-3.09.5-5.565,2.9-7.425a.766.766,0,0,0,.1,0,22.042,22.042,0,0,1,5.552.1,79.583,79.583,0,0,0,10.058,1.058,5.757,5.757,0,0,1-.813,3.136Zm.719-4.334c-1.748-.038-3.491-.135-5.229-.321-1.594-.171-3.145-.531-4.725-.743a24.846,24.846,0,0,0-3.841-.2c.017-.01.029-.02.042-.029q1.45-.984,2.916-1.952c1.8.149,3.6.233,5.408.225,1.577,0,3.343-.312,4.867.2.125.485.226.97.314,1.411.1.472.186.946.246,1.412Z" transform="translate(-2500.403 -1270.899)" fill="#754421"/><path d="M2393.53,1377.4a27.2,27.2,0,0,0-7.267,2.424,46.319,46.319,0,0,0-6.732,3.712c-1.529,1.019-3.5,2.547-3.649,4.561-.132,1.732,1.659,3.779,2.667,5.056a7.808,7.808,0,0,0,1.216,1.226.673.673,0,0,0,.45.337,10.747,10.747,0,0,0,10.436.593,16.382,16.382,0,0,0,5.371-3.569,11.687,11.687,0,0,0,2.6-4.817C2399.615,1383.148,2398.558,1376.92,2393.53,1377.4Zm-15.979,12.227a2.311,2.311,0,0,1-.433-1.719c.391-1.677,2.145-2.837,3.589-3.736-1.077,1.8-2.252,3.577-3.155,5.454Zm2.025,2.9c-.452-.557-.848-1.153-1.245-1.746,1.184-2.725,3.036-5.227,4.441-7.85q1.218-.693,2.483-1.311a33.444,33.444,0,0,0-3.1,6.233,33.832,33.832,0,0,1-1.957,5.341,6.274,6.274,0,0,1-.624-.668Zm17.795-5.554a10.669,10.669,0,0,1-2.346,4.092,14.442,14.442,0,0,1-4.293,2.865c-2.894,1.464-6.809,1.781-9.582,0a25.085,25.085,0,0,0,1.853-4.881,32.084,32.084,0,0,1,4.042-7.979.585.585,0,0,0,.107-.338,24.893,24.893,0,0,1,6.587-2.16c4.195-.4,4.509,5.565,3.634,8.4Z" transform="translate(-2368.67 -1353.192)" fill="#754421"/><path d="M2395.291,1253.25a.3.3,0,0,0-.053-.012c-.081-.337-.162-.674-.244-1.014a4.126,4.126,0,0,1,.159-3.176,2.274,2.274,0,0,0,.5-2.2,10.059,10.059,0,0,0-1.812-3.362,1.037,1.037,0,0,0-1.2-.346.624.624,0,0,0-.163-.022c-2.63.009-5.286,1.306-7.687,2.26a48.317,48.317,0,0,0-7.884,4.075c-2.551,1.6-5.092,3.224-7.638,4.835a55.431,55.431,0,0,0-7.13,4.9,63.691,63.691,0,0,0-7.882,3.9c-3.373,2.011-6.756,4.028-10.053,6.163a34.473,34.473,0,0,0-8.23,6.974c-.329.4.121,1.26.208,1.422a12.184,12.184,0,0,0,2.144,3.516,1.9,1.9,0,0,0,1.5.525,3.946,3.946,0,0,1,1.787.177,5.355,5.355,0,0,1,1.643,1.165,2.3,2.3,0,0,0,.423,2.64,2.566,2.566,0,0,0,2.663.646,11.387,11.387,0,0,0,1.808,1.447,7.245,7.245,0,0,0,5.292.879,19.5,19.5,0,0,0,11.278-5.417,13.328,13.328,0,0,0,3.051-4.712,16.127,16.127,0,0,0,.6-6.277c-.037-1.072-.348-3.033.486-3.886a4.915,4.915,0,0,1,1.265-.885c.987-.276,1.648.477,2.345,1.022a24.517,24.517,0,0,0,5.554,3.815c3.938,1.6,8.617-.65,11.686-3.085,3.028-2.4,6.475-6.008,6.473-10.12,0-.145,0-.289-.007-.433a2.483,2.483,0,0,0,1.636-2.131C2398.077,1254.738,2396.87,1253.746,2395.291,1253.25Zm-25.516,2.122q3.623-2.3,7.247-4.588a49.753,49.753,0,0,1,7.231-3.9c1.243-.524,2.511-.99,3.779-1.453.411-.149.825-.308,1.24-.455q-2.464,1.423-4.883,2.914c-2.434,1.487-4.876,2.994-7.216,4.625a24.544,24.544,0,0,0-2.38,1.915.658.658,0,0,0-.081.014c-2.762,1.031-5.549,2.012-8.31,3.053C2367.523,1256.772,2368.657,1256.08,2369.775,1255.373Zm-24.307,14.487q4.974-3.164,10.076-6.138a59.874,59.874,0,0,1,6.964-3.427.547.547,0,0,0,.354-.146c3.223-1.344,6.537-2.5,9.818-3.682-.6.6-1.207,1.216-1.829,1.825a30.6,30.6,0,0,1-7.95,5.484c-2.882,1.385-6.015,2.007-8.921,3.31-3.149,1.41-6.357,2.823-9.4,4.451a67.753,67.753,0,0,0-6.743,4.362,37.9,37.9,0,0,1,7.633-6.04Zm-.992,14.94a.914.914,0,0,1-.27-.752c.377.412.74.825,1.1,1.227a1.924,1.924,0,0,1-.83-.475Zm49.383-35.853a4.561,4.561,0,0,0-.264,2.273c.211,2.1,1.052,4.093,1.277,6.207a8.555,8.555,0,0,1-1.506,6.228,22.7,22.7,0,0,1-4.287,4.541c-3.439,2.786-8.257,4.775-12.3,2.1-1.762-1.166-3.261-2.8-5.077-3.866-1.321-.777-2.931.228-3.857,1.239-1.052,1.152-.718,3.294-.662,4.71a13.891,13.891,0,0,1-.8,6.393c-1.63,3.72-5.327,6.424-9.065,7.781a14.665,14.665,0,0,1-6.636,1.017c-2.38-.38-4.125-2.572-5.585-4.28-1.279-1.493-2.773-2.894-4.854-2.809-1.132.045-1.435-.438-1.98-1.392-.281-.486-.522-.993-.77-1.488a72.456,72.456,0,0,1,8.361-5.372c3.077-1.547,6.24-3.075,9.422-4.406,1.409-.586,2.9-.919,4.344-1.412a34.61,34.61,0,0,0,4.54-1.924,31.6,31.6,0,0,0,7.472-5.28c1.27-1.253,2.458-2.578,3.775-3.769a.742.742,0,0,0,.062-.055c.35-.316.708-.625,1.083-.919a71.718,71.718,0,0,1,6.009-4.033q2.934-1.838,5.92-3.6,1.49-.872,3-1.728c.286-.163,1.13-.855,1.409-.792.4.092.889,1.342,1.059,1.67a2.728,2.728,0,0,1,.421,2.119c-.086.281-.38.547-.5.841Zm2.752,7.488a1.319,1.319,0,0,1-.549.976,26.65,26.65,0,0,0-.5-2.778,1.549,1.549,0,0,1,1.049,1.8Z" transform="translate(-2335.857 -1243.075)" fill="#754421"/><path d="M2528.459,1253.635q-2.464,1.423-4.883,2.914c-2.434,1.487-4.876,2.994-7.215,4.625a24.592,24.592,0,0,0-2.38,1.915.616.616,0,0,0-.081.014c-2.762,1.031-5.549,2.012-8.31,3.053,1.109-.728,2.243-1.421,3.363-2.129q3.623-2.3,7.248-4.588a49.75,49.75,0,0,1,7.231-3.9c1.243-.524,2.511-.99,3.78-1.453C2527.627,1253.942,2528.04,1253.781,2528.459,1253.635Z" transform="translate(-2475.033 -1251.734)" fill="#a88067"/><path d="M2381.719,1317.455c-.6.6-1.207,1.216-1.828,1.825a30.615,30.615,0,0,1-7.95,5.484c-2.883,1.385-6.016,2.007-8.921,3.31-3.15,1.41-6.357,2.824-9.4,4.452a67.748,67.748,0,0,0-6.743,4.362,37.912,37.912,0,0,1,7.628-6.038q4.974-3.164,10.075-6.138a59.816,59.816,0,0,1,6.964-3.427.547.547,0,0,0,.354-.146C2375.123,1319.793,2378.438,1318.639,2381.719,1317.455Z" transform="translate(-2344.893 -1304.064)" fill="#a88067"/><path d="M2401.385,1251.592c-.171-.328-.658-1.577-1.059-1.67-.279-.063-1.123.629-1.409.792q-1.505.853-3,1.728-2.991,1.756-5.92,3.6a71.674,71.674,0,0,0-6.009,4.033c-.376.295-.733.6-1.083.919-.018.017-.04.037-.062.055-1.312,1.191-2.506,2.517-3.775,3.769a31.6,31.6,0,0,1-7.472,5.28,34.693,34.693,0,0,1-4.54,1.924c-1.436.492-2.935.823-4.344,1.412-3.182,1.326-6.341,2.854-9.422,4.406a72.515,72.515,0,0,0-8.361,5.372c.25.5.493,1.006.771,1.489.545.953.848,1.435,1.98,1.391,2.081-.085,3.577,1.316,4.854,2.809,1.46,1.708,3.205,3.9,5.585,4.28a14.664,14.664,0,0,0,6.637-1.017c3.739-1.352,7.435-4.061,9.065-7.781a13.9,13.9,0,0,0,.8-6.393c-.055-1.412-.39-3.558.662-4.711.925-1.01,2.536-2.016,3.857-1.239,1.813,1.066,3.315,2.7,5.077,3.866,4.045,2.67,8.863.682,12.3-2.1a22.7,22.7,0,0,0,4.287-4.54,8.556,8.556,0,0,0,1.506-6.228c-.225-2.114-1.066-4.109-1.277-6.207a4.56,4.56,0,0,1,.265-2.273c.126-.293.419-.559.505-.846A2.727,2.727,0,0,0,2401.385,1251.592Zm-28.133,30.815a11.679,11.679,0,0,1-2.6,4.818,16.383,16.383,0,0,1-5.371,3.569,10.747,10.747,0,0,1-10.436-.593.673.673,0,0,1-.45-.337,7.8,7.8,0,0,1-1.216-1.226c-1.008-1.277-2.8-3.324-2.667-5.056.152-2.014,2.122-3.542,3.65-4.561a46.3,46.3,0,0,1,6.732-3.712,27.2,27.2,0,0,1,7.267-2.424c5.025-.47,6.085,5.756,5.092,9.522Zm26.347-13.961a19.472,19.472,0,0,1-4.539,4.487c-1.687,1.212-3.821,2.63-5.948,2.785a10.882,10.882,0,0,1-5.624-1.674,7.888,7.888,0,0,1-3.793-4.344c-1.467-4.559,3.28-7.58,6.475-9.734,2.015-1.362,4.029-2.768,6.121-4.014,1.494-.89,3.632-1.608,5.314-.816h0a.908.908,0,0,1,.132.071c1.966,1.358,2.6,4.2,3.016,6.4.489,2.542.37,4.68-1.156,6.839Z" transform="translate(-2343.297 -1248.687)" fill="#a88067"/><path d="M2586.591,1306.74c-1.748-.039-3.492-.136-5.229-.321-1.594-.171-3.145-.531-4.725-.743a24.842,24.842,0,0,0-3.84-.2c.016-.01.029-.019.042-.029q1.45-.983,2.917-1.952c1.8.149,3.6.233,5.408.225,1.577,0,3.344-.312,4.867.2.125.486.226.97.314,1.411C2586.443,1305.8,2586.53,1306.269,2586.591,1306.74Z" transform="translate(-2530.14 -1292.613)" fill="#a88067"/><path d="M2396.435,1400.949a33.448,33.448,0,0,0-3.1,6.233,33.828,33.828,0,0,1-1.957,5.341,6.227,6.227,0,0,1-.625-.667c-.453-.557-.848-1.153-1.246-1.746,1.184-2.725,3.036-5.227,4.441-7.85Q2395.171,1401.567,2396.435,1400.949Z" transform="translate(-2379.85 -1372.526)" fill="#a88067"/></g><g transform="translate(2619.49 1200.207)"><path d="M4131.887,1278.043a20.944,20.944,0,0,0-10.214,7.02,19.794,19.794,0,0,0-3.958,13.338,20.61,20.61,0,0,0,3.523,9.93c2.649,3.828,6.779,6.251,11.115,7.75a19.958,19.958,0,0,0,12.854.151,18.8,18.8,0,0,0,5.813-2.916,17.336,17.336,0,0,0,4.041-4.826,23.371,23.371,0,0,0,3.168-10.72,18.514,18.514,0,0,0-.621-6.256,19.969,19.969,0,0,0-2.812-5.427,22.582,22.582,0,0,0-9.837-7.641A19.325,19.325,0,0,0,4131.887,1278.043Zm20.206,6.61a16.876,16.876,0,0,1,4.888,10.318,24.129,24.129,0,0,1-1.654,10.338,15.88,15.88,0,0,1-7.777,8.692,19.222,19.222,0,0,1-12.3,1.7c-4.449-1.036-9.452-3.366-12.294-7.051a19.857,19.857,0,0,1-4.053-10.467,18.341,18.341,0,0,1,3.1-11.525,20.491,20.491,0,0,1,8.046-6.617c7.443-3.615,16.487-1.326,22.048,4.616Z" transform="translate(-4114.46 -1271.58)" fill="#754421"/><path d="M4152.326,1252.845a51.533,51.533,0,0,0-8.539,4.232,22.147,22.147,0,0,0-5.254-5.573,27.258,27.258,0,0,0-13.424-4.912,22.387,22.387,0,0,0-8.7.75,21.452,21.452,0,0,0-7.187,3.889,25.269,25.269,0,0,0-5.91,6.119,22.061,22.061,0,0,0-3.04,8,24.587,24.587,0,0,0,1.745,14.528,25.441,25.441,0,0,0,4.207,6.313c1.8,2.027,3.69,4.293,6.03,5.713a24.47,24.47,0,0,0,13.938,3.133c4.143-.309,8.07-2.338,11.442-4.639a22.448,22.448,0,0,0,9.339-13.179,25.784,25.784,0,0,0,.7-10.99,18.593,18.593,0,0,0,6.207-3.136,9.642,9.642,0,0,0,2.448-2.832,4.17,4.17,0,0,0,.014-3.333,14.2,14.2,0,0,0-1.463-3.52C4154.2,1252.365,4153.375,1252.453,4152.326,1252.845Zm-5.866,13.642a20.316,20.316,0,0,1,.072,6.871,29.084,29.084,0,0,1-2.077,7.5,20.555,20.555,0,0,1-4.808,6.472,26.03,26.03,0,0,1-11.6,6.219,22.179,22.179,0,0,1-11.984-1.217,15.192,15.192,0,0,1-4.169-2.142,27.343,27.343,0,0,1-3.151-3.035,31.017,31.017,0,0,1-4.973-6.439,23.454,23.454,0,0,1-2.307-15.275,20.531,20.531,0,0,1,7.254-12.28,24.03,24.03,0,0,1,6.237-4.059,20.674,20.674,0,0,1,7.288-1.442,25.549,25.549,0,0,1,13.332,3.319,23.273,23.273,0,0,1,8.6,9.192,21.75,21.75,0,0,1,2.089,5.366c.086.291.125.6.209.949Zm8.715-9.274a3.145,3.145,0,0,1-.411,3.245,10.333,10.333,0,0,1-2.232,2.157,18.149,18.149,0,0,1-5.113,2.442,20.448,20.448,0,0,0-.66-2.181.418.418,0,0,0,.075-.01,24.276,24.276,0,0,0,5.979-2.834c.67-.38.163-1.473-.508-1.089a23.35,23.35,0,0,1-5.68,2.744.58.58,0,0,0-.267.15,27.839,27.839,0,0,0-1.913-3.751,54.212,54.212,0,0,1,5.668-3.007c.511-.233,1.029-.455,1.553-.672.34-.142,1.214-.684,1.572-.62,1.065.189,1.676,2.554,1.942,3.429Z" transform="translate(-4099.86 -1246.456)" fill="#754421"/><path d="M4358.252,1290.585a3.144,3.144,0,0,1-.411,3.245,10.342,10.342,0,0,1-2.231,2.157,18.137,18.137,0,0,1-5.113,2.442,20.608,20.608,0,0,0-.661-2.181.382.382,0,0,0,.075-.01,24.283,24.283,0,0,0,5.978-2.833c.67-.38.163-1.474-.507-1.09a23.35,23.35,0,0,1-5.68,2.744.581.581,0,0,0-.267.15,27.95,27.95,0,0,0-1.914-3.75,54.238,54.238,0,0,1,5.668-3.007c.51-.233,1.029-.455,1.553-.672.34-.142,1.214-.683,1.571-.62C4357.375,1287.346,4357.987,1289.711,4358.252,1290.585Z" transform="translate(-4302.934 -1279.827)" fill="#fff"/><path d="M4127.732,1253.133a20.673,20.673,0,0,0-7.288,1.441,24.035,24.035,0,0,0-6.237,4.059,20.533,20.533,0,0,0-7.254,12.28,23.449,23.449,0,0,0,2.307,15.275,31,31,0,0,0,4.973,6.438,27.324,27.324,0,0,0,3.15,3.035,15.187,15.187,0,0,0,4.17,2.142,22.171,22.171,0,0,0,11.983,1.217,26.027,26.027,0,0,0,11.6-6.219,20.566,20.566,0,0,0,4.809-6.472,29.07,29.07,0,0,0,2.077-7.5,20.33,20.33,0,0,0-.071-6.871c-.085-.35-.123-.658-.2-.941a21.712,21.712,0,0,0-2.09-5.366,23.265,23.265,0,0,0-8.595-9.192A25.552,25.552,0,0,0,4127.732,1253.133Zm8.121,5.659a22.6,22.6,0,0,1,9.837,7.641,20,20,0,0,1,2.811,5.427,18.527,18.527,0,0,1,.621,6.256,23.371,23.371,0,0,1-3.169,10.72,17.333,17.333,0,0,1-4.04,4.826,18.811,18.811,0,0,1-5.813,2.916,19.956,19.956,0,0,1-12.855-.151c-4.337-1.5-8.471-3.925-11.114-7.75a20.608,20.608,0,0,1-3.523-9.929,19.8,19.8,0,0,1,3.958-13.338,20.945,20.945,0,0,1,10.214-7.02,19.324,19.324,0,0,1,13.073.4Z" transform="translate(-4105.346 -1251.923)" fill="#fff"/><path d="M4157.521,1290.186a16.877,16.877,0,0,1,4.889,10.318,24.115,24.115,0,0,1-1.654,10.337,15.882,15.882,0,0,1-7.777,8.692,19.219,19.219,0,0,1-12.3,1.7c-4.449-1.036-9.452-3.366-12.294-7.05a19.854,19.854,0,0,1-4.053-10.467,18.34,18.34,0,0,1,3.1-11.525,20.5,20.5,0,0,1,8.046-6.617C4142.917,1281.954,4151.96,1284.244,4157.521,1290.186Z" transform="translate(-4119.889 -1277.109)" fill="#a88067"/></g><path d="M3100.714,1350.509c-.116-1.252.041-2.5-.037-3.756-.075-1.239-.22-2.477-.326-3.712q-1.385-15.792-2.7-31.591-1.34-15.992-2.587-32c-.4-5.186-1.144-10.373-1.4-15.571-.086-1.712-.334-3.55-.3-5.308a.849.849,0,0,1-.031-.152c-.11-1.311-.646-2.019-2.008-2.08-.722-.031-1.465.086-2.191.1-1.605.023-3.2.1-4.8.185q-5.094.257-10.184.53c-6.76.358-13.525.622-20.279,1.114-6.04.443-12.062.908-18.117,1.09-5.827.177-11.8.084-17.581.939-1.3.188-3.124.467-3.484,1.965a14.343,14.343,0,0,0,.046,3.727c.124,2.888.294,5.75.628,8.626.691,6.027,1.19,12.075,1.644,18.124q1.381,18.44,2.95,36.861.776,9.128,1.57,18.259c.112,1.29.249,2.579.292,3.871a15.5,15.5,0,0,0,.29,3.328c.771,3.01,3.825,2.608,6.331,2.276l15.447.379,43.513-3.242a37.355,37.355,0,0,0,6.827-.841,24.338,24.338,0,0,1,3.481-.336c.92-.012,2.835.071,3.284-.959A10.849,10.849,0,0,1,3100.714,1350.509Z" transform="translate(-590.479 -54.348)" fill="#fff"/><g transform="translate(2421.83 1196.696)"><path d="M3544.7,1320.9c-.3.461-1,.473-1.5.58-.916.19-63.444,6.422-68.086,6.808q-1.738.145-3.477.242c-.66.033-1.316.059-1.983.079a6.744,6.744,0,0,1-2.143.018.94.94,0,0,1-.473-.442,6.094,6.094,0,0,1-.326-1.73c-.129-1.144,0-2.282-.034-3.429-.145-4.722-.81-9.478-1.216-14.182q-.643-7.516-1.276-15.037c-.828-9.856-1.7-19.713-2.467-29.573-.755-9.649-1.8-19.289-2.269-28.953a5.222,5.222,0,0,1,.238-2.827c.566-.963,2.054-1.206,3.057-1.371a64.02,64.02,0,0,1,6.531-.554c4.916-.293,9.842-.337,14.76-.538,4.885-.2,9.749-.611,14.621-.965,4.893-.351,9.79-.565,14.689-.823q7.5-.388,15-.786,3.5-.18,6.987-.421c.7-.047,1.46-.17,1.942.413.356.435.28.748.332,1.287.11,1.061.344,2.123.508,3.184,1.482,9.7,2.339,19.5,3.126,29.274.789,9.748,1.431,19.513,2.01,29.274q.434,7.366.809,14.74c.247,4.788.787,9.608.75,14.4A2.937,2.937,0,0,1,3544.7,1320.9Z" transform="translate(-3377.011 -1226.952)" fill="#fff"/><path d="M3010.621,1396.814c-1.49-.485-1.511-5.289-1.615-6.3q-.354-3.426-.7-6.852-.7-6.9-1.391-13.813-1.382-13.885-2.7-27.775c-.815-8.7-1.278-17.429-1.791-26.145-.129-2.18-.254-4.36-.362-6.541-.073-1.51-.508-2.732.972-3.123.038.684.083,1.366.109,2.045.271,6.606,1.224,13.169,1.77,19.755,1.1,13.363,2.054,26.74,3.187,40.1.631,7.444,1.255,14.886,1.917,22.326C3010.191,1392.426,3009.905,1394.881,3010.621,1396.814Z" transform="translate(-3001.948 -1291.986)" fill="#ebc8b2"/><path d="M3908.913,1329.771c0-.03,0-.065,0-.1.01-1.168-.016-2.337-.074-3.5-.242-5.144-.621-10.286-.893-15.43q-.845-15.885-1.979-31.75c-.769-10.519-1.62-21.049-2.94-31.52-.321-2.553-.677-5.1-1.093-7.64-.04-.236-.065-.486-.087-.741,1.674.122,1.694,5.281,1.8,6.334q.354,3.426.7,6.848.7,6.91,1.392,13.814,1.387,13.884,2.695,27.775c.816,8.7,1.277,17.429,1.79,26.149q.2,3.27.362,6.54c.032.664.068,1.33.085,1.992C3910.7,1329.394,3909.832,1329.649,3908.913,1329.771Z" transform="translate(-3739.834 -1236.902)" fill="#ebc8b2"/><path d="M3174.138,1429.119l-54.419,3.232c-.819.047-1.015-1.232-.189-1.276q27.211-1.614,54.415-3.233C3174.771,1427.8,3174.964,1429.069,3174.138,1429.119Z" transform="translate(-3097.926 -1391.675)" fill="#754421"/><path d="M3179.209,1484.806l-54.415,3.236c-.826.043-1.015-1.232-.188-1.28l54.412-3.228C3179.846,1483.483,3180.034,1484.759,3179.209,1484.806Z" transform="translate(-3102.085 -1437.339)" fill="#754421"/><path d="M3619.779,1404.479q-27.207,1.579-54.419,3.165c-.826.042-1.013-1.234-.187-1.28l54.416-3.158C3620.417,1403.157,3620.6,1404.428,3619.779,1404.479Z" transform="translate(-3463.335 -1371.474)" fill="#754421"/><path d="M3624.782,1460.153l-54.424,3.162c-.818.047-1.012-1.234-.187-1.276q27.214-1.585,54.419-3.162C3625.416,1458.831,3625.6,1460.1,3624.782,1460.153Z" transform="translate(-3467.437 -1417.121)" fill="#754421"/><path d="M3184.148,1546.7q-27.211,1.614-54.419,3.235c-.819.045-1.015-1.232-.189-1.279l54.414-3.229C3184.781,1545.377,3184.97,1546.653,3184.148,1546.7Z" transform="translate(-3106.134 -1488.09)" fill="#754421"/><path d="M3189.082,1608.6q-27.205,1.615-54.415,3.236c-.826.044-1.015-1.232-.188-1.28l54.412-3.228C3189.716,1607.272,3189.907,1608.549,3189.082,1608.6Z" transform="translate(-3110.181 -1538.843)" fill="#754421"/><path d="M3070.052,1420.017c-.145-1.609.042-3.811-2.124-3.671-1.65.2-3.285.5-4.929.772a.653.653,0,0,0-.546.56,30.171,30.171,0,0,0,.154,3.47c.086.816.04,2.139.695,2.747.5.464,1.332.285,1.945.239a22.113,22.113,0,0,0,3.686-.395C3070.77,1423.286,3070.188,1421.5,3070.052,1420.017Zm-1.763,2.517a7.649,7.649,0,0,1-1.615.188c-.535.056-1.08.13-1.616.14a2.226,2.226,0,0,1-.9-.031c-.057-.309-.106-.617-.151-.934a26.973,26.973,0,0,1-.264-3.594c1.458-.246,2.917-.5,4.382-.685.774-.049.7,3.025.749,3.55.029.319.059.642.083.959a.5.5,0,0,1-.56.432A.476.476,0,0,1,3068.289,1422.533Z" transform="translate(-3051.558 -1382.244)" fill="#754421"/><path d="M3514.847,1394.217c-.142-1.609.044-3.811-2.118-3.678-1.65.206-3.293.5-4.934.771a.648.648,0,0,0-.547.559,30.114,30.114,0,0,0,.149,3.47c.089.817.037,2.135.693,2.744.5.464,1.331.287,1.944.241a22.248,22.248,0,0,0,3.69-.389C3515.562,1397.492,3514.978,1395.707,3514.847,1394.217Zm-1.769,2.51a7.569,7.569,0,0,1-1.611.191c-.534.052-1.079.124-1.619.136a2.217,2.217,0,0,1-.9-.036c-.056-.309-.106-.618-.151-.925a26.288,26.288,0,0,1-.259-3.6c1.455-.244,2.913-.5,4.383-.675.769-.049.7,3.026.741,3.548.028.323.057.642.082.963a.5.5,0,0,1-.568.42A.491.491,0,0,1,3513.078,1396.727Z" transform="translate(-3416.275 -1361.084)" fill="#754421"/><path d="M3518.194,1450.588c-.142-1.609.048-3.811-2.118-3.674-1.65.2-3.293.5-4.93.767a.656.656,0,0,0-.55.558,30.062,30.062,0,0,0,.15,3.47c.089.817.037,2.139.7,2.748.5.465,1.327.286,1.944.241a22.232,22.232,0,0,0,3.687-.39C3518.908,1453.859,3518.324,1452.074,3518.194,1450.588Zm-1.771,2.514a7.569,7.569,0,0,1-1.611.188c-.535.056-1.078.128-1.616.138a2.241,2.241,0,0,1-.911-.034c-.054-.309-.106-.617-.15-.934a26.223,26.223,0,0,1-.26-3.594c1.462-.245,2.92-.5,4.386-.679.77-.05.7,3.025.748,3.552.029.319.058.642.082.96a.5.5,0,0,1-.561.429A.506.506,0,0,1,3516.423,1453.1Z" transform="translate(-3419.019 -1407.309)" fill="#754421"/><path d="M3075.425,1477.282c-.144-1.609.039-3.811-2.128-3.671-1.646.2-3.284.5-4.929.773a.652.652,0,0,0-.545.56,30.111,30.111,0,0,0,.154,3.47c.09.817.04,2.139.7,2.747.5.464,1.332.285,1.945.239a22.147,22.147,0,0,0,3.686-.394C3076.144,1480.552,3075.558,1478.768,3075.425,1477.282Zm-1.766,2.517a7.939,7.939,0,0,1-1.614.188c-.535.056-1.079.129-1.616.14a2.219,2.219,0,0,1-.9-.031c-.057-.309-.106-.617-.151-.934a26.3,26.3,0,0,1-.264-3.594c1.454-.246,2.913-.5,4.378-.685.772-.049.7,3.025.748,3.55.029.319.058.642.084.959a.5.5,0,0,1-.663.406Z" transform="translate(-3055.961 -1429.199)" fill="#754421"/><path d="M3080.885,1536.419c-.145-1.609.043-3.811-2.124-3.671-1.65.2-3.292.5-4.929.773a.652.652,0,0,0-.549.559,30.058,30.058,0,0,0,.153,3.47c.09.817.04,2.135.7,2.748.5.464,1.328.281,1.945.239a22.191,22.191,0,0,0,3.686-.395C3081.6,1539.688,3081.018,1537.9,3080.885,1536.419Zm-1.768,2.516a7.8,7.8,0,0,1-1.61.19c-.534.052-1.079.125-1.615.14a2.245,2.245,0,0,1-.91-.036c-.053-.309-.106-.617-.152-.925a26.394,26.394,0,0,1-.264-3.6c1.458-.246,2.916-.5,4.382-.681.772-.055.7,3.02.755,3.542.029.323.054.641.083.963a.5.5,0,0,1-.669.4Z" transform="translate(-3060.438 -1477.69)" fill="#754421"/><path d="M3010.621,1396.814c-1.49-.485-1.511-5.289-1.615-6.3q-.354-3.426-.7-6.852-.7-6.9-1.391-13.813-1.382-13.885-2.7-27.775c-.815-8.7-1.278-17.429-1.791-26.145-.129-2.18-.254-4.36-.362-6.541-.073-1.51-.508-2.732.972-3.123.038.684.083,1.366.109,2.045.271,6.606,1.224,13.169,1.77,19.755,1.1,13.363,2.054,26.74,3.187,40.1.631,7.444,1.255,14.886,1.917,22.326C3010.191,1392.426,3009.905,1394.881,3010.621,1396.814Z" transform="translate(-3001.948 -1291.986)" fill="#ebc8b2"/><path d="M3197.863,1668.534l-54.419,3.232c-.82.047-1.015-1.233-.19-1.276q27.211-1.614,54.415-3.233C3198.5,1667.211,3198.689,1668.483,3197.863,1668.534Z" transform="translate(-3117.38 -1587.987)" fill="#754421"/><path d="M3202.929,1724.219q-27.207,1.614-54.415,3.236c-.826.042-1.015-1.233-.188-1.28l54.412-3.228C3203.565,1722.9,3203.754,1724.172,3202.929,1724.219Z" transform="translate(-3121.535 -1633.65)" fill="#754421"/><path d="M3093.776,1659.431c-.145-1.609.042-3.811-2.123-3.671-1.65.2-3.285.5-4.929.773a.653.653,0,0,0-.546.559,30.005,30.005,0,0,0,.154,3.47c.086.816.039,2.139.7,2.747.5.464,1.332.285,1.946.239a22.163,22.163,0,0,0,3.686-.395C3094.5,1662.7,3093.912,1660.917,3093.776,1659.431Zm-1.763,2.517a7.664,7.664,0,0,1-1.615.19c-.535.056-1.08.129-1.615.139a2.23,2.23,0,0,1-.9-.031c-.057-.309-.107-.617-.151-.934a26.9,26.9,0,0,1-.264-3.594c1.458-.246,2.917-.5,4.383-.684.774-.049.7,3.025.749,3.55.029.319.058.642.084.96a.5.5,0,0,1-.667.4Z" transform="translate(-3071.012 -1578.555)" fill="#754421"/><path d="M3099.15,1716.7c-.144-1.609.039-3.811-2.127-3.671-1.646.2-3.284.5-4.929.772a.652.652,0,0,0-.545.56,30,30,0,0,0,.154,3.47c.089.817.039,2.139.695,2.747.5.464,1.332.285,1.945.239a22.106,22.106,0,0,0,3.686-.394C3099.87,1719.966,3099.283,1718.182,3099.15,1716.7Zm-1.766,2.516a7.92,7.92,0,0,1-1.614.19c-.534.056-1.08.129-1.615.14a2.231,2.231,0,0,1-.9-.031c-.057-.309-.106-.617-.151-.934a26.264,26.264,0,0,1-.264-3.594c1.454-.246,2.913-.5,4.379-.685.773-.049.7,3.025.748,3.551.03.319.058.641.083.96a.5.5,0,0,1-.562.429A.506.506,0,0,1,3097.384,1719.213Z" transform="translate(-3075.416 -1625.511)" fill="#754421"/><path d="M3087.452,1598.514c-.144-1.609.043-3.811-2.124-3.671-1.65.2-3.285.5-4.929.772a.652.652,0,0,0-.549.56,29.321,29.321,0,0,0,.157,3.471c.086.816.041,2.135.7,2.743.5.464,1.332.285,1.946.239a22.113,22.113,0,0,0,3.686-.394C3088.17,1601.784,3087.585,1600,3087.452,1598.514Zm-1.767,2.516a7.81,7.81,0,0,1-1.611.19c-.534.052-1.078.127-1.615.139a2.215,2.215,0,0,1-.9-.035c-.057-.309-.111-.618-.157-.925a26.959,26.959,0,0,1-.263-3.6c1.458-.246,2.916-.5,4.382-.681.768-.055.7,3.02.752,3.543.028.323.058.641.083.963a.506.506,0,0,1-.573.428A.49.49,0,0,1,3085.685,1601.03Z" transform="translate(-3065.823 -1528.605)" fill="#754421"/></g><path d="M3168.313,1312.291c-.057-1.67-.156-3.342-.251-5q-.445-7.971-.973-15.941c-.9-13.95-2.359-27.855-3.749-41.766q-.847-8.5-1.719-17.009c-.268-2.611-.329-5.356-.857-7.927-.286-1.406-1.289-2.74-2.693-2.677a2.276,2.276,0,0,0-1.364-1.956,5.713,5.713,0,0,0-2.573-.149c-1.325.126-2.642.192-3.96.262q-3.951.193-7.905.4c-10.563.556-21.111,1.114-31.652,1.873-5.352.383-10.708.534-16.071.7-2.585.085-5.171.186-7.753.365a31.262,31.262,0,0,0-6.408.762,4.1,4.1,0,0,0-2.669,1.859,2.638,2.638,0,0,0-.51-.488c-1.01-.74-2.256-.5-3.417-.435-3.1.162-6.209.224-9.313.386-6.69.348-13.381.711-20.069,1.041-6.656.326-13.285,1-19.943,1.322-6.569.313-13.146.322-19.7.854-2.086.166-5.127.1-6.691,1.772a3.642,3.642,0,0,0-.837,2.551c0,.311,0,.626.01.939-1.071.169-2.143.61-2.281,1.824a7.462,7.462,0,0,0,.016,1.042c.054,1.67.156,3.338.249,5q.444,7.971.973,15.938c.906,13.954,2.362,27.859,3.748,41.77q.852,8.5,1.72,17.009c.268,2.611.334,5.353.857,7.927.316,1.527,1.466,2.967,3.06,2.628,1.462,1.867,3.689,1.841,5.853,1.592.288-.033.578-.06.868-.073,3.368-.153,6.589-.188,9.939-.29,6.055-.178,12.081-.632,18.124-1.073,6.751-.486,13.515-.744,20.277-1.1,3.284-.171,10.4-.429,11.518-.473l.021,0,.071,0h0c2.777-.123,5.476-.89,8.26-1.11,1.5-.118,3.877-.006,5.055-1.057a1.645,1.645,0,0,0,.66.369,11.04,11.04,0,0,0,3.068.031c1.406-.044,2.813-.125,4.216-.234,2.579-.192,5.146-.476,7.717-.758,2.042-.229,4.084-.458,6.123-.658,0,0,.206-.035.32-.042,6.042-.445,12.042-1.167,18.056-1.871,6.723-.786,13.469-1.337,20.208-1.987l10.151-.969c1.483-.142,2.963-.277,4.45-.37,0,0,1.369-.089,2.05-.23.756-.158,1.763-.262,2.267-.937a1.91,1.91,0,0,0,.307-.679c1.325-.129,2.985-.371,3.156-1.921A7.3,7.3,0,0,0,3168.313,1312.291Zm-165.048,7.308q-.354-3.426-.7-6.852-.7-6.9-1.391-13.813-1.382-13.887-2.692-27.775c-.818-8.7-1.284-17.43-1.794-26.145-.127-2.18-.254-4.362-.362-6.542-.073-1.508-.508-2.731.972-3.124.038.684.083,1.366.11,2.045.271,6.606,1.227,13.169,1.77,19.757,1.1,13.363,2.055,26.739,3.187,40.1.631,7.443,1.255,14.886,1.917,22.325.172,1.935-.114,4.39.6,6.323C3003.391,1325.415,3003.369,1320.609,3003.266,1319.6Zm78.337,3.718a24.3,24.3,0,0,0-3.482.336c-1.711.279-3.409.642-5.131.78-2.316.09-3.6.062-5.924.185-6.689.342-13.38.7-20.066,1.023-6.654.32-13.287.987-19.941,1.3-4.254.2-11.979.378-14.312.429-.433.009-.865.041-1.3.091-2.3.267-4.768.276-5.448-2.388a15.549,15.549,0,0,1-.29-3.328c-.043-1.293-.181-2.581-.292-3.871q-.792-9.13-1.57-18.258-1.561-18.42-2.95-36.861c-.453-6.044-.951-12.092-1.644-18.119-.334-2.874-.5-5.738-.627-8.627a14.333,14.333,0,0,1-.046-3.727c.362-1.493,2.185-1.774,3.484-1.964,5.777-.855,11.754-.762,17.581-.939,6.056-.183,12.081-.647,18.123-1.09,6.751-.493,13.515-.758,20.279-1.114q5.091-.269,10.183-.53c1.6-.084,3.2-.161,4.8-.185.727-.011,1.47-.127,2.191-.1,1.359.06,1.9.769,2.008,2.08a.8.8,0,0,0,.031.152c-.03,1.758.219,3.6.305,5.308.254,5.2,1,10.382,1.4,15.572q1.234,16.008,2.586,32,1.33,15.8,2.7,31.591c.106,1.236.25,2.472.327,3.711.077,1.255-.081,2.508.036,3.756a10.886,10.886,0,0,0,.274,1.822C3084.438,1323.387,3082.523,1323.3,3081.6,1323.316Zm82.3-8.3c-.3.461-1,.474-1.5.58-.3.064-.605.114-.908.162-3.057.292-6.138.488-9.2.783q-10,.955-20.006,1.905c-6.634.613-13.232,1.576-19.864,2.181-2.021.184-6.07.522-6.07.522-4.012.414-8.014.922-12.039,1.257q-1.738.145-3.477.242c-.661.033-1.316.059-1.984.079a6.746,6.746,0,0,1-2.143.018.943.943,0,0,1-.474-.442,6.121,6.121,0,0,1-.326-1.73c-.128-1.144,0-2.282-.034-3.428-.145-4.722-.81-9.478-1.216-14.182q-.643-7.517-1.276-15.037c-.828-9.856-1.7-19.714-2.467-29.573-.752-9.653-1.8-19.292-2.265-28.956a5.226,5.226,0,0,1,.237-2.826c.566-.963,2.054-1.206,3.058-1.371a64.025,64.025,0,0,1,6.531-.554c4.915-.293,9.842-.338,14.76-.538,4.885-.2,9.749-.611,14.621-.965,4.892-.356,9.789-.568,14.688-.824q7.5-.388,15-.786,3.5-.18,6.985-.421c.7-.047,1.46-.17,1.943.413.356.434.28.748.332,1.285.109,1.062.344,2.123.508,3.184,1.482,9.7,2.339,19.5,3.126,29.274.789,9.748,1.431,19.513,2.01,29.274q.434,7.366.809,14.74c.247,4.788.787,9.608.75,14.4A2.939,2.939,0,0,1,3163.9,1315.018Zm1.385-1.079c0-.03,0-.065,0-.1q.015-1.752-.074-3.5c-.242-5.144-.62-10.286-.892-15.43q-.846-15.886-1.979-31.75c-.77-10.521-1.623-21.047-2.942-31.522-.321-2.557-.676-5.1-1.094-7.64-.039-.237-.065-.486-.087-.74,1.675.122,1.694,5.281,1.8,6.334q.354,3.426.7,6.848.7,6.909,1.391,13.813,1.388,13.884,2.7,27.775c.815,8.7,1.277,17.429,1.789,26.149q.2,3.27.362,6.542c.032.664.068,1.33.086,1.992.023.853-.839,1.108-1.759,1.23Z" transform="translate(-574.378 -24.374)" fill="#754421"/><g transform="translate(2435.959 1206.789)"><path d="M3091.032,1330.381a.754.754,0,0,1-.043.3.778.778,0,0,1-.152.256.8.8,0,0,1-.246.185.833.833,0,0,1-.319.083.565.565,0,0,1-.32-.084,1.59,1.59,0,0,1-.313-.245,2.878,2.878,0,0,1-.3-.346,4.664,4.664,0,0,1-.261-.393q-.118-.2-.212-.38t-.153-.3q-.081-.169-.16-.312a3.3,3.3,0,0,1-.169-.369l-.079-.188c-.017-.042-.032-.074-.044-.1s-.022-.042-.029-.056a.537.537,0,0,1-.026-.066.791.791,0,0,1-.271.083q-.147.018-.326.029a.452.452,0,0,0-.108.029l-.173.065-.2.079c-.069.028-.135.052-.2.073q-.3.1-.658.187t-.741.182l-.789.181q-.4.091-.809.185a.211.211,0,0,0-.075.03.4.4,0,0,0-.084.1c-.035.056-.088.141-.158.257l-.3.493q-.223.367-.425.639a5.961,5.961,0,0,1-.384.469,1.381,1.381,0,0,1-.377.3,1.021,1.021,0,0,1-.427.121,1.724,1.724,0,0,1-.53-.042,1.34,1.34,0,0,1-.4-.166.865.865,0,0,1-.251-.236.489.489,0,0,1-.094-.245.308.308,0,0,1,.167-.315,2.125,2.125,0,0,1,.5-.174.738.738,0,0,1,.065-.1c.044-.062.095-.134.155-.214l.176-.239q.086-.118.121-.177.23-.361.48-.751t.548-.9v.006q.153-.253.249-.419t.184-.313q.088-.146.185-.3l.238-.38q.365-.581.64-.985t.452-.673q.209-.372.4-.711.082-.146.156-.3c.05-.1.1-.2.144-.288s.087-.18.123-.261a2.2,2.2,0,0,0,.081-.207q.653-1.909,1.2-1.941a1.7,1.7,0,0,1,.386.012.442.442,0,0,1,.235.108.466.466,0,0,1,.122.221,1.8,1.8,0,0,1,.049.351l.018.311c0,.075.006.14,0,.2s0,.111,0,.167,0,.131,0,.225q.173.318.338.655t.313.669q.03.075.131.317t.239.568l.291.69q.153.364.284.684t.229.553c.065.155.107.253.127.294a7.152,7.152,0,0,0,.537,1.158c.038.066.071.124.1.174s.057.1.093.155.081.116.136.185.129.16.222.27A1.862,1.862,0,0,1,3091.032,1330.381Zm-4.469-2.978q.278-.087.565-.181c.191-.063.369-.124.532-.185q-.122-.308-.25-.641t-.267-.663q-.138-.33-.279-.639a5.96,5.96,0,0,0-.29-.565q-.5.775-1,1.627t-.943,1.733c.128-.02.261-.038.4-.053a1.458,1.458,0,0,0,.337-.068c.113-.041.215-.077.305-.108s.18-.06.271-.087l.282-.081Q3086.373,1327.453,3086.563,1327.4Z" transform="translate(-3080.427 -1314.616)" fill="#754421"/><path d="M3143.265,1335.854q-.026.426-.024.943t-.014,1.142c0,.155-.009.334-.017.538s-.017.412-.028.625-.023.421-.037.626-.029.386-.045.546q-.036.375-.1.794a6.813,6.813,0,0,1-.186.833,5.272,5.272,0,0,1-.3.8,2.861,2.861,0,0,1-.449.682,2.175,2.175,0,0,1-.636.491,2.137,2.137,0,0,1-.855.217,2.729,2.729,0,0,1-.613-.034,3.814,3.814,0,0,1-.613-.157,4.073,4.073,0,0,1-.581-.252,4.212,4.212,0,0,1-.514-.32,3.342,3.342,0,0,1-.839-.825,2.123,2.123,0,0,1-.133-.23.6.6,0,0,1-.055-.222.342.342,0,0,1,.073-.242.278.278,0,0,1,.209-.109.312.312,0,0,1,.147.04,1.664,1.664,0,0,1,.176.1q.086.056.154.107a.547.547,0,0,1,.082.069,3.856,3.856,0,0,0,1.195.7,3.139,3.139,0,0,0,1.229.179.865.865,0,0,0,.607-.277,1.892,1.892,0,0,0,.375-.623,4.083,4.083,0,0,0,.207-.8q.068-.428.1-.8t.05-.848q.014-.467.027-.9a7.289,7.289,0,0,1-.613.621,5.443,5.443,0,0,1-.708.54,4.5,4.5,0,0,1-.765.392,2.529,2.529,0,0,1-.784.178.872.872,0,0,1-.393-.067.945.945,0,0,1-.332-.235,1.222,1.222,0,0,1-.235-.381,1.644,1.644,0,0,1-.107-.514,2.669,2.669,0,0,1,.083-.786,6.293,6.293,0,0,1,.277-.862,8.084,8.084,0,0,1,.394-.843q.22-.408.433-.729a6.085,6.085,0,0,1,.529-.677,5.774,5.774,0,0,1,.691-.657,4.375,4.375,0,0,1,.78-.505,2.042,2.042,0,0,1,.8-.227,1.8,1.8,0,0,1,.471.037,1.4,1.4,0,0,1,.441.17,1.092,1.092,0,0,1,.333.308.848.848,0,0,1,.148.451c0,.068.005.144,0,.228s0,.17-.01.261-.011.178-.017.264-.01.166-.015.239Zm-1.344,1.185c.014-.134.024-.291.033-.472s.016-.408.021-.682q0-.218.01-.328a1.262,1.262,0,0,0,.005-.18.766.766,0,0,0-.031-.2.145.145,0,0,0-.1-.1.846.846,0,0,0-.246-.021,4.424,4.424,0,0,0-.546.5,6.44,6.44,0,0,0-.51.615,7.859,7.859,0,0,0-.449.682q-.208.353-.362.683a4.156,4.156,0,0,0-.255.7,1.94,1.94,0,0,0-.075.586.138.138,0,0,0,.079.133.353.353,0,0,0,.162.026,1.161,1.161,0,0,0,.424-.121,3.943,3.943,0,0,0,.463-.262q.232-.152.444-.319t.365-.291a1.191,1.191,0,0,0,.149-.144,2.19,2.19,0,0,0,.186-.233,1.742,1.742,0,0,0,.16-.279A.743.743,0,0,0,3141.92,1337.039Z" transform="translate(-3127 -1324.728)" fill="#754421"/><path d="M3185.907,1332.826a1.13,1.13,0,0,1-.148.433,11.452,11.452,0,0,1-.684.995,10.817,10.817,0,0,1-1.731,1.785,7.742,7.742,0,0,1-.975.684,5.938,5.938,0,0,1-1,.473,3.512,3.512,0,0,1-.987.209,2.3,2.3,0,0,1-1.743-.518,2.559,2.559,0,0,1-.721-1.832,6.752,6.752,0,0,1,.013-.987,5.192,5.192,0,0,1,.178-.968,5.3,5.3,0,0,1,.967-1.873,2.432,2.432,0,0,1,.312-.327,2.861,2.861,0,0,1,.388-.287,2.431,2.431,0,0,1,.438-.212,1.619,1.619,0,0,1,.46-.1,1.261,1.261,0,0,1,.594.094,1.184,1.184,0,0,1,.427.319,1.476,1.476,0,0,1,.266.479,2.181,2.181,0,0,1,.111.582,2.092,2.092,0,0,1-.354,1.207,6.715,6.715,0,0,1-1.1,1.321q-.231.219-.538.478l-.686.583a.72.72,0,0,0,.111.3.817.817,0,0,0,.232.234,1.051,1.051,0,0,0,.34.147,1.429,1.429,0,0,0,.439.035,3.014,3.014,0,0,0,.662-.119,4.928,4.928,0,0,0,.686-.256,5.983,5.983,0,0,0,.654-.35,5.613,5.613,0,0,0,.574-.4,10.737,10.737,0,0,0,.87-.787q.416-.42.8-.854l.32-.359a1,1,0,0,1,.584-.349.184.184,0,0,1,.181.076A.323.323,0,0,1,3185.907,1332.826Zm-5.066-.885a1.238,1.238,0,0,0-.044-.267.222.222,0,0,0-.1-.155.785.785,0,0,0-.454.213,2.073,2.073,0,0,0-.44.556,4.019,4.019,0,0,0-.352.85,5.286,5.286,0,0,0-.2,1.088q.288-.242.578-.507a5.1,5.1,0,0,0,.521-.548,2.707,2.707,0,0,0,.37-.59A1.336,1.336,0,0,0,3180.841,1331.941Z" transform="translate(-3160.357 -1321.789)" fill="#754421"/><path d="M3226.929,1335.04a.909.909,0,0,1-.029.269,2.154,2.154,0,0,1-.1.292,2.529,2.529,0,0,1-.132.275,1.976,1.976,0,0,1-.138.217q-.19.268-.426.572t-.5.6q-.259.3-.532.574a5.1,5.1,0,0,1-.55.485q-.216.167-.416.31a3.746,3.746,0,0,1-.416.259,2.4,2.4,0,0,1-.458.187,2.367,2.367,0,0,1-.538.089,1.52,1.52,0,0,1-.809-.145,1.542,1.542,0,0,1-.546-.482,2.622,2.622,0,0,1-.347-.716,7.184,7.184,0,0,1-.214-.852,7.157,7.157,0,0,0-.242-.953q-.123-.35-.271-.341a.553.553,0,0,0-.246.076,1.2,1.2,0,0,0-.289.277,7.14,7.14,0,0,0-.427.607q-.256.4-.667,1.058-.141.227-.346.509t-.434.543a5.161,5.161,0,0,1-.458.464,1.561,1.561,0,0,1-.429.286q-.818-.132-.9-1.5a9.835,9.835,0,0,1,.017-1.023q.021-.3.049-.639t.083-.676c.036-.227.082-.45.137-.67a4.381,4.381,0,0,1,.2-.613.859.859,0,0,1,.159-.254.746.746,0,0,1,.188-.146.7.7,0,0,1,.2-.07,1.871,1.871,0,0,1,.217-.026.391.391,0,0,1,.189.037.509.509,0,0,1,.168.129.713.713,0,0,1,.125.211.971.971,0,0,1,.059.293,1.51,1.51,0,0,1-.009.284,2.5,2.5,0,0,1-.054.282c-.024.1-.049.2-.075.31s-.052.232-.078.371q-.024.136-.073.351t-.1.446q-.048.231-.086.452a2.638,2.638,0,0,0-.043.369q.108-.142.246-.352t.292-.454l.312-.5q.159-.253.319-.481.208-.295.411-.558a3.105,3.105,0,0,1,.433-.459,2.042,2.042,0,0,1,.505-.319,1.79,1.79,0,0,1,.628-.143,1.131,1.131,0,0,1,1.136.576,2.555,2.555,0,0,1,.275.7q.1.409.175.893.041.249.1.509a2.3,2.3,0,0,0,.153.47,1.037,1.037,0,0,0,.238.34.449.449,0,0,0,.342.118,1.585,1.585,0,0,0,.634-.195,4.285,4.285,0,0,0,.708-.476,9.031,9.031,0,0,0,.75-.687q.382-.389.761-.829.12-.142.231-.28c.074-.092.145-.176.214-.25a1.308,1.308,0,0,1,.2-.182.39.39,0,0,1,.2-.076.517.517,0,0,1,.09,0,.267.267,0,0,1,.1.033.221.221,0,0,1,.079.076A.3.3,0,0,1,3226.929,1335.04Z" transform="translate(-3191.651 -1324.728)" fill="#754421"/><path d="M3276.579,1313.59a.845.845,0,0,1-.018.229,1.008,1.008,0,0,1-.1.257,3.94,3.94,0,0,1-.212.337q-.133.194-.348.477v-.006q-.221.289-.471.577t-.541.594q-.278.3-.559.554a6.087,6.087,0,0,1-.546.443,3.408,3.408,0,0,1-.5.3,1.168,1.168,0,0,1-.43.125,1.118,1.118,0,0,1-.717-.164,1.431,1.431,0,0,1-.452-.533,3.53,3.53,0,0,1-.289-.816q-.112-.472-.213-1.006l-.335.582q-.178.309-.375.617c-.131.2-.27.4-.415.6a5.631,5.631,0,0,1-.448.528,4.8,4.8,0,0,1-1.265.952,3.486,3.486,0,0,1-1.376.373.749.749,0,0,1-.443-.1,1.054,1.054,0,0,1-.327-.312,1.619,1.619,0,0,1-.208-.431,1.89,1.89,0,0,1-.088-.461,4.491,4.491,0,0,1,0-.517,1.729,1.729,0,0,1,.056-.366,15.078,15.078,0,0,1,.524-1.532,9.048,9.048,0,0,1,.748-1.442,8.236,8.236,0,0,1,.563-.8,3.55,3.55,0,0,1,.6-.6,2.618,2.618,0,0,1,.707-.385,3.107,3.107,0,0,1,.871-.167.855.855,0,0,1,.69.261,1.8,1.8,0,0,1,.421.818q.031-.246.055-.556t.042-.652q.018-.342.029-.709c.007-.245.012-.487.015-.727q0-.5.034-.851a1.44,1.44,0,0,1,.1-.481.943.943,0,0,1,.24-.291.709.709,0,0,1,.41-.133.955.955,0,0,1,.307.03,1.084,1.084,0,0,1,.263.107.636.636,0,0,1,.186.156.324.324,0,0,1,.075.179,1.461,1.461,0,0,1-.017.252q-.022.168-.061.444t-.092.674q-.054.4-.119.943a1.163,1.163,0,0,1-.008.142q-.01.1-.024.236c-.01.089-.02.18-.029.275s-.019.184-.029.268-.018.157-.026.217-.013.1-.016.11q-.048.5-.074.936a7.2,7.2,0,0,0,0,.862c.007.128.016.265.027.41s.022.291.036.438.028.293.045.438.038.283.063.414a.452.452,0,0,0,.038.1.515.515,0,0,0,.074.111.418.418,0,0,0,.1.087.225.225,0,0,0,.131.031.6.6,0,0,0,.19-.047,1.953,1.953,0,0,0,.209-.1c.073-.041.143-.084.211-.128s.129-.088.182-.129q.326-.244.641-.523t.63-.606q.309-.32.619-.625a7.665,7.665,0,0,0,.544-.588.331.331,0,0,1,.238-.11.2.2,0,0,1,.176.086A.614.614,0,0,1,3276.579,1313.59Zm-6.564,1.414c.032-.04.066-.089.1-.147s.075-.12.111-.187.074-.134.111-.2a1.871,1.871,0,0,0,.089-.189.51.51,0,0,1-.209-.229.806.806,0,0,1-.079-.3,1.368,1.368,0,0,1,0-.148c0-.056.008-.113.013-.171s.01-.113.013-.165a1.079,1.079,0,0,0,0-.116.365.365,0,0,0-.062-.173.816.816,0,0,0-.135-.162.764.764,0,0,0-.167-.119.317.317,0,0,0-.16-.042.584.584,0,0,0-.348.2,3.971,3.971,0,0,0-.4.483q-.208.289-.41.629t-.371.632q-.186.333-.317.62t-.227.518a2.983,2.983,0,0,0-.271,1.173q.022.385.163.376a.886.886,0,0,0,.328-.109,3.167,3.167,0,0,0,.464-.3q.276-.216.5-.412a3.845,3.845,0,0,0,.38-.379q.337-.386.547-.652Z" transform="translate(-3232.496 -1303.64)" fill="#754421"/><path d="M3326.12,1327.633a.714.714,0,0,1-.019.184,1.724,1.724,0,0,1-.061.216,2.211,2.211,0,0,1-.087.211,1.484,1.484,0,0,1-.1.176,1.619,1.619,0,0,1-.1.131q-.066.084-.15.188c-.056.07-.119.145-.189.226s-.142.163-.214.244q-.351.368-.713.726a6,6,0,0,1-.762.643,4.426,4.426,0,0,1-.847.471,2.9,2.9,0,0,1-.958.217,1.114,1.114,0,0,1-.448-.07,1.59,1.59,0,0,1-.432-.238,1.711,1.711,0,0,1-.36-.381,1.578,1.578,0,0,1-.231-.491,3.287,3.287,0,0,1-.276.431q-.174.232-.381.463c-.139.154-.284.3-.434.44s-.291.26-.423.362a3.162,3.162,0,0,1-.331.219c-.131.076-.269.147-.415.214a3.584,3.584,0,0,1-.443.167,1.815,1.815,0,0,1-.417.079.863.863,0,0,1-.548-.145,1.487,1.487,0,0,1-.407-.41,2.251,2.251,0,0,1-.36-1.046,3.15,3.15,0,0,1,.074-.869,5.679,5.679,0,0,1,.271-.874,7.087,7.087,0,0,1,.389-.82q.218-.392.431-.7a4.966,4.966,0,0,1,.547-.646,5.689,5.689,0,0,1,.679-.586,4.466,4.466,0,0,1,.711-.431,1.744,1.744,0,0,1,.635-.185q.154-.009.317-.009c.11,0,.218,0,.325.01a2.293,2.293,0,0,1,.311.039,1.34,1.34,0,0,1,.269.081.719.719,0,0,1,.18.172,2.7,2.7,0,0,1,.19.272,2.821,2.821,0,0,1,.155.29.688.688,0,0,1,.071.227,2.024,2.024,0,0,1-.03.429q-.04.25-.091.523t-.092.558a2.682,2.682,0,0,0-.026.542,1.343,1.343,0,0,0,.073.362,1.214,1.214,0,0,0,.167.328.888.888,0,0,0,.245.233.507.507,0,0,0,.307.079,2.1,2.1,0,0,0,.741-.185,3.728,3.728,0,0,0,.721-.431,6.276,6.276,0,0,0,.708-.626q.352-.358.707-.771c.009,0,.041-.034.1-.1s.124-.142.2-.224a2.491,2.491,0,0,1,.25-.227.44.44,0,0,1,.235-.11.25.25,0,0,1,.25.094A.745.745,0,0,1,3326.12,1327.633Zm-5.862-.318a.476.476,0,0,0-.03-.133.808.808,0,0,0-.066-.141.529.529,0,0,0-.087-.111.124.124,0,0,0-.086-.043,1.389,1.389,0,0,0-.758.273,4.309,4.309,0,0,0-.691.661,3.83,3.83,0,0,0-.418.6,7.267,7.267,0,0,0-.4.788,5.938,5.938,0,0,0-.292.827,2.294,2.294,0,0,0-.093.719,1.151,1.151,0,0,0,.019.15.4.4,0,0,0,.046.129.269.269,0,0,0,.086.091.219.219,0,0,0,.137.031,1.239,1.239,0,0,0,.541-.189,3.483,3.483,0,0,0,.594-.446,5.113,5.113,0,0,0,.569-.618,4.164,4.164,0,0,0,.45-.7,6,6,0,0,0,.365-.908A2.712,2.712,0,0,0,3320.257,1327.315Z" transform="translate(-3273.604 -1318.049)" fill="#754421"/><path d="M3521.552,1316.817a.464.464,0,0,1-.01.126.543.543,0,0,1-.057.141q-.043.078-.116.185t-.191.261v0q-.121.158-.258.316c-.091.105-.19.214-.3.326s-.2.21-.306.3a3.389,3.389,0,0,1-.3.243,1.863,1.863,0,0,1-.276.166.647.647,0,0,1-.235.069.615.615,0,0,1-.393-.09.786.786,0,0,1-.248-.292,1.935,1.935,0,0,1-.158-.447c-.04-.172-.08-.356-.117-.551l-.184.319q-.1.169-.206.338t-.228.327a3.194,3.194,0,0,1-.245.29,2.634,2.634,0,0,1-.693.521,1.908,1.908,0,0,1-.754.2.41.41,0,0,1-.243-.056.589.589,0,0,1-.179-.171.909.909,0,0,1-.115-.236,1.06,1.06,0,0,1-.048-.252,2.486,2.486,0,0,1,0-.284.93.93,0,0,1,.031-.2,8.262,8.262,0,0,1,.287-.839,4.923,4.923,0,0,1,.41-.79,4.5,4.5,0,0,1,.309-.441,1.926,1.926,0,0,1,.332-.328,1.428,1.428,0,0,1,.387-.211,1.705,1.705,0,0,1,.477-.091.467.467,0,0,1,.378.143.985.985,0,0,1,.231.448q.016-.135.03-.3t.023-.357q.01-.187.016-.388t.009-.4q0-.275.018-.466a.784.784,0,0,1,.055-.264.5.5,0,0,1,.132-.159.386.386,0,0,1,.225-.073.522.522,0,0,1,.168.016.6.6,0,0,1,.145.059.338.338,0,0,1,.1.086.175.175,0,0,1,.041.1.75.75,0,0,1-.01.138c-.008.062-.019.142-.033.243s-.031.224-.051.369-.041.318-.065.516a.648.648,0,0,1,0,.078c0,.038-.008.081-.013.129s-.01.1-.015.151-.011.1-.016.147-.01.086-.014.119-.007.053-.009.06q-.026.276-.04.513a3.955,3.955,0,0,0,0,.472c0,.07.009.145.015.224s.013.16.02.24.015.16.024.24.021.155.035.227a.244.244,0,0,0,.021.057.306.306,0,0,0,.041.061.226.226,0,0,0,.058.048.121.121,0,0,0,.071.017.331.331,0,0,0,.1-.026,1,1,0,0,0,.115-.056c.04-.022.079-.046.116-.07s.071-.048.1-.071q.179-.134.351-.286t.345-.332q.169-.176.339-.342a4.179,4.179,0,0,0,.3-.322.181.181,0,0,1,.13-.061.111.111,0,0,1,.1.047A.339.339,0,0,1,3521.552,1316.817Zm-3.6.775c.018-.022.036-.049.057-.081s.041-.066.061-.1l.061-.111a.919.919,0,0,0,.048-.1.282.282,0,0,1-.115-.125.451.451,0,0,1-.043-.165.756.756,0,0,1,0-.081c0-.031,0-.062.007-.094s.005-.062.007-.09a.542.542,0,0,0,0-.063.2.2,0,0,0-.033-.1.45.45,0,0,0-.074-.089.4.4,0,0,0-.092-.065.171.171,0,0,0-.088-.023.322.322,0,0,0-.191.112,2.224,2.224,0,0,0-.221.265c-.076.106-.15.22-.225.344s-.142.239-.2.346-.126.235-.174.34-.089.2-.124.284a1.629,1.629,0,0,0-.149.643c.008.141.038.209.089.206a.488.488,0,0,0,.179-.06,1.685,1.685,0,0,0,.254-.167q.152-.118.274-.226a2.08,2.08,0,0,0,.208-.208q.185-.212.3-.358Z" transform="translate(-3437.33 -1308.296)" fill="#754421"/><path d="M3543.413,1323.159a.622.622,0,0,1-.082.237,6.194,6.194,0,0,1-.375.545,5.966,5.966,0,0,1-.447.517,5.887,5.887,0,0,1-.5.461,4.25,4.25,0,0,1-.534.375,3.223,3.223,0,0,1-.546.259,1.922,1.922,0,0,1-.541.114,1.258,1.258,0,0,1-.956-.284,1.4,1.4,0,0,1-.4-1,3.736,3.736,0,0,1,.007-.541,2.855,2.855,0,0,1,.1-.531,2.95,2.95,0,0,1,.2-.521,2.894,2.894,0,0,1,.327-.505,1.281,1.281,0,0,1,.171-.179,1.517,1.517,0,0,1,.213-.157,1.355,1.355,0,0,1,.24-.116.88.88,0,0,1,.252-.054.691.691,0,0,1,.325.052.643.643,0,0,1,.234.175.8.8,0,0,1,.146.262,1.191,1.191,0,0,1,.061.319,1.146,1.146,0,0,1-.193.661,3.684,3.684,0,0,1-.6.724c-.085.08-.183.167-.295.262l-.375.32a.394.394,0,0,0,.061.162.452.452,0,0,0,.127.128.6.6,0,0,0,.186.081.784.784,0,0,0,.241.019,1.663,1.663,0,0,0,.363-.065,2.725,2.725,0,0,0,.376-.14,3.263,3.263,0,0,0,.359-.192,3.03,3.03,0,0,0,.314-.221,5.817,5.817,0,0,0,.477-.431q.227-.23.439-.468l.175-.2a.548.548,0,0,1,.32-.192.1.1,0,0,1,.1.042A.178.178,0,0,1,3543.413,1323.159Zm-2.776-.485a.716.716,0,0,0-.024-.146.121.121,0,0,0-.056-.085.432.432,0,0,0-.249.117,1.147,1.147,0,0,0-.241.3,2.182,2.182,0,0,0-.193.465,2.9,2.9,0,0,0-.108.6q.158-.133.317-.277a2.824,2.824,0,0,0,.285-.3,1.514,1.514,0,0,0,.2-.324A.736.736,0,0,0,3540.636,1322.674Z" transform="translate(-3456.465 -1314.798)" fill="#754421"/><path d="M3595.108,1298.016a.48.48,0,0,1-.038.224.779.779,0,0,1-.117.187,1.113,1.113,0,0,1-.161.154c-.06.047-.116.088-.169.126a4.9,4.9,0,0,1-.605.26q-.324.116-.647.2t-.631.15q-.309.063-.569.11l-.372.064-.379.064c-.124.02-.238.039-.344.059s-.2.037-.273.055q-.109.553-.2,1.06t-.159.954c-.006.052-.015.123-.026.214s-.024.19-.037.3-.025.221-.035.339-.019.23-.028.336-.015.2-.019.284,0,.147,0,.19a.539.539,0,0,0,.089.313.879.879,0,0,0,.15.142,1.812,1.812,0,0,1,.226.186.4.4,0,0,1,.026.5.868.868,0,0,1-.212.208,1.393,1.393,0,0,1-.281.152.922.922,0,0,1-.285.068.8.8,0,0,1-.423-.088,1.087,1.087,0,0,1-.337-.279,1.393,1.393,0,0,1-.23-.411,1.7,1.7,0,0,1-.1-.483,7.432,7.432,0,0,1,.01-.932,9.7,9.7,0,0,1,.126-1.03q.038-.227.083-.5t.082-.519q.037-.246.064-.438t.036-.256q-.134.015-.385.061a4.833,4.833,0,0,1-.6.067,2.808,2.808,0,0,1-.49-.007.757.757,0,0,1-.334-.112.538.538,0,0,1-.2-.252,1.371,1.371,0,0,1-.083-.432.308.308,0,0,1,.094-.253.733.733,0,0,1,.261-.157,1.684,1.684,0,0,1,.329-.084q.172-.026.307-.034.064,0,.223-.029c.106-.017.222-.034.347-.052l.363-.054c.117-.017.208-.028.272-.032.021,0,.045-.043.072-.127a2.838,2.838,0,0,0,.081-.32q.04-.195.081-.432t.079-.467c.026-.154.048-.3.068-.425s.037-.231.05-.305a5.51,5.51,0,0,0,.083-.609,3.892,3.892,0,0,1,.107-.64,1.406,1.406,0,0,1,.243-.516.632.632,0,0,1,.491-.231.748.748,0,0,1,.521.12.645.645,0,0,1,.2.487,2.958,2.958,0,0,1-.007.38,2.481,2.481,0,0,1-.074.441q-.125.5-.208.938t-.133.756q-.049.321-.085.683.263-.015.5-.032c.16-.012.323-.025.49-.042s.339-.036.52-.059.377-.054.589-.092q.369-.067.623-.126c.169-.04.318-.077.446-.11s.246-.061.352-.085a2.1,2.1,0,0,1,.332-.045.323.323,0,0,1,.173.038C3595.07,1297.822,3595.1,1297.9,3595.108,1298.016Z" transform="translate(-3495.984 -1292.464)" fill="#754421"/><path d="M3626.991,1309.982a.722.722,0,0,1-.018.184,1.636,1.636,0,0,1-.061.216,2.259,2.259,0,0,1-.087.211,1.584,1.584,0,0,1-.1.176,1.6,1.6,0,0,1-.1.131c-.044.056-.094.119-.149.189s-.119.145-.189.226-.142.163-.214.244q-.351.368-.713.726a6.027,6.027,0,0,1-.762.643,4.425,4.425,0,0,1-.847.47,2.89,2.89,0,0,1-.958.217,1.117,1.117,0,0,1-.448-.07,1.588,1.588,0,0,1-.431-.238,1.709,1.709,0,0,1-.36-.381,1.577,1.577,0,0,1-.231-.491,3.33,3.33,0,0,1-.277.431q-.174.232-.381.463t-.434.44q-.226.209-.422.362a3.2,3.2,0,0,1-.331.219q-.2.115-.415.214a3.615,3.615,0,0,1-.444.167,1.817,1.817,0,0,1-.416.079.862.862,0,0,1-.548-.145,1.476,1.476,0,0,1-.407-.41,2.248,2.248,0,0,1-.361-1.046,3.158,3.158,0,0,1,.074-.869,5.681,5.681,0,0,1,.27-.874,7.118,7.118,0,0,1,.389-.82q.218-.392.431-.7a5.027,5.027,0,0,1,.547-.646,5.707,5.707,0,0,1,.679-.586,4.479,4.479,0,0,1,.71-.431,1.741,1.741,0,0,1,.635-.185c.1-.006.208-.009.317-.009s.218,0,.325.01a2.3,2.3,0,0,1,.311.039,1.363,1.363,0,0,1,.268.081.724.724,0,0,1,.18.172,2.687,2.687,0,0,1,.19.272,2.81,2.81,0,0,1,.155.29.681.681,0,0,1,.071.227,2.022,2.022,0,0,1-.03.429q-.04.25-.092.523c-.034.182-.065.368-.092.558a2.7,2.7,0,0,0-.026.542,1.332,1.332,0,0,0,.073.362,1.223,1.223,0,0,0,.167.328.887.887,0,0,0,.245.233.507.507,0,0,0,.307.078,2.092,2.092,0,0,0,.741-.185,3.734,3.734,0,0,0,.72-.431,6.312,6.312,0,0,0,.709-.626q.352-.358.707-.771c.009,0,.041-.034.1-.1s.124-.142.2-.224a2.492,2.492,0,0,1,.25-.227.444.444,0,0,1,.234-.11.251.251,0,0,1,.25.095A.744.744,0,0,1,3626.991,1309.982Zm-5.862-.318a.5.5,0,0,0-.03-.133.791.791,0,0,0-.066-.141.528.528,0,0,0-.087-.111.125.125,0,0,0-.086-.043,1.389,1.389,0,0,0-.758.273,4.308,4.308,0,0,0-.691.661,3.84,3.84,0,0,0-.418.6,7.321,7.321,0,0,0-.4.788,5.908,5.908,0,0,0-.292.827,2.292,2.292,0,0,0-.093.719,1.154,1.154,0,0,0,.018.15.4.4,0,0,0,.046.129.267.267,0,0,0,.085.091.216.216,0,0,0,.137.031,1.236,1.236,0,0,0,.542-.189,3.53,3.53,0,0,0,.594-.446,5.145,5.145,0,0,0,.568-.618,4.131,4.131,0,0,0,.45-.7,5.972,5.972,0,0,0,.365-.908A2.712,2.712,0,0,0,3621.129,1309.664Z" transform="translate(-3520.309 -1303.576)" fill="#754421"/><path d="M3673.392,1308.819a.652.652,0,0,1-.016.155.924.924,0,0,1-.066.2.589.589,0,0,1-.121.174.312.312,0,0,1-.191.088l-.109,0h-.36l-.122,0a2.911,2.911,0,0,0-1.806.877,4.176,4.176,0,0,0-.346.4q-.176.229-.344.5t-.317.574a5.882,5.882,0,0,0-.265.633q-.093.269-.179.554a5.63,5.63,0,0,0-.145.6q-.036.169-.05.3a2.56,2.56,0,0,1-.056.3.41.41,0,0,1-.1.183.684.684,0,0,1-.172.132,1.067,1.067,0,0,1-.211.086,1.372,1.372,0,0,1-.219.045.563.563,0,0,1-.586-.339,3.053,3.053,0,0,1-.219-1.1q-.01-.166-.015-.314t0-.3q0-.151,0-.315t.01-.37q.008-.3.029-.719t.047-.845q.026-.429.064-.83t.085-.68a1.114,1.114,0,0,1,.228-.547.705.705,0,0,1,.523-.224.456.456,0,0,1,.212.042.861.861,0,0,1,.347.278.368.368,0,0,1,.073.156l.013.115a3.405,3.405,0,0,1-.007.424q-.018.246-.056.521t-.083.558q-.045.282-.091.539t-.082.474c-.023.145-.041.265-.053.36q.2-.487.427-.941a7.176,7.176,0,0,1,.5-.846,4.874,4.874,0,0,1,.595-.707,3.069,3.069,0,0,1,.7-.517,4.042,4.042,0,0,1,.552-.248,1.679,1.679,0,0,1,.457-.1,2.594,2.594,0,0,1,.506.022,2.079,2.079,0,0,1,.483.123,1.233,1.233,0,0,1,.37.219A.443.443,0,0,1,3673.392,1308.819Z" transform="translate(-3561.704 -1303.529)" fill="#754421"/><path d="M3709.715,1302.1a1.114,1.114,0,0,1-.148.433,11.415,11.415,0,0,1-.684.995,10.8,10.8,0,0,1-1.73,1.786,7.765,7.765,0,0,1-.976.684,5.92,5.92,0,0,1-1,.473,3.5,3.5,0,0,1-.987.209,2.3,2.3,0,0,1-1.744-.518,2.56,2.56,0,0,1-.721-1.831,6.786,6.786,0,0,1,.013-.987,5.172,5.172,0,0,1,.178-.968,5.292,5.292,0,0,1,.967-1.873,2.43,2.43,0,0,1,.312-.327,2.817,2.817,0,0,1,.388-.286,2.4,2.4,0,0,1,.438-.212,1.614,1.614,0,0,1,.46-.1,1.262,1.262,0,0,1,.594.094,1.188,1.188,0,0,1,.427.319,1.467,1.467,0,0,1,.266.479,2.221,2.221,0,0,1,.112.582,2.1,2.1,0,0,1-.354,1.207,6.718,6.718,0,0,1-1.1,1.321q-.232.22-.538.478l-.686.583a.715.715,0,0,0,.111.3.82.82,0,0,0,.232.234,1.05,1.05,0,0,0,.339.147,1.438,1.438,0,0,0,.439.036,3.01,3.01,0,0,0,.662-.119,4.929,4.929,0,0,0,.686-.255,6.017,6.017,0,0,0,.655-.35,5.56,5.56,0,0,0,.574-.4,10.584,10.584,0,0,0,.87-.787q.416-.42.8-.854l.319-.36a1,1,0,0,1,.584-.349.184.184,0,0,1,.182.076A.324.324,0,0,1,3709.715,1302.1Zm-5.066-.885a1.223,1.223,0,0,0-.044-.267.222.222,0,0,0-.1-.155.787.787,0,0,0-.453.213,2.08,2.08,0,0,0-.44.556,4.022,4.022,0,0,0-.352.85,5.289,5.289,0,0,0-.2,1.088q.288-.242.578-.506a5.135,5.135,0,0,0,.521-.548,2.687,2.687,0,0,0,.37-.591A1.338,1.338,0,0,0,3704.649,1301.211Z" transform="translate(-3589.863 -1296.591)" fill="#754421"/><path d="M3740.8,1287.791a.341.341,0,0,1-.042.16,1.341,1.341,0,0,1-.117.2,1.431,1.431,0,0,1-.165.193,1.05,1.05,0,0,1-.187.149,2.424,2.424,0,0,1-.313.128q-.221.077-.515.155t-.634.15q-.34.072-.665.123-.287.042-.494.077l-.372.06q-.166.026-.312.044t-.32.028q-.005.129-.026.429t-.047.684q-.026.384-.055.813t-.061.82q-.032.39-.055.7t-.04.469q-.037.355-.092.738a4.252,4.252,0,0,1-.136.645,3.33,3.33,0,0,1-.274.643,4.54,4.54,0,0,1-.4.6,1.557,1.557,0,0,1-1.166.627.948.948,0,0,1-.314-.036,1.152,1.152,0,0,1-.29-.124.8.8,0,0,1-.214-.184.379.379,0,0,1-.089-.213.868.868,0,0,1,.03-.249,1.113,1.113,0,0,1,.112-.28,1.023,1.023,0,0,1,.179-.232.367.367,0,0,1,.239-.107.667.667,0,0,1,.1,0c.041,0,.084.01.13.018s.091.014.136.018a.858.858,0,0,0,.119,0,.633.633,0,0,0,.176-.242,2.178,2.178,0,0,0,.121-.354c.033-.131.062-.268.088-.413s.047-.287.065-.425q.058-.434.1-.829t.08-.769q.036-.375.059-.74t.028-.738q.007-.091.016-.226c0-.09.01-.187.015-.291s.007-.2.007-.306,0-.192-.006-.273a.174.174,0,0,0-.071-.105q-.068-.06-.15-.139a1.479,1.479,0,0,1-.151-.171.355.355,0,0,1-.076-.2,1.805,1.805,0,0,1,.354-.644,2.569,2.569,0,0,0,.217-.35,1.049,1.049,0,0,0,.092-.285,2.444,2.444,0,0,0,.03-.31c0-.112.014-.252.03-.42q.037-.369.07-.673t.091-.581a4.362,4.362,0,0,1,.151-.546,4.717,4.717,0,0,1,.243-.567,3.631,3.631,0,0,1,.3-.487,2.972,2.972,0,0,1,.41-.455,2.312,2.312,0,0,1,.491-.341,1.345,1.345,0,0,1,.538-.15,1.3,1.3,0,0,1,.977.322,1.251,1.251,0,0,1,.477.9,2.486,2.486,0,0,1-.413,1.4.852.852,0,0,1-.657.515l-.116.007a4.972,4.972,0,0,0,.087-.6,3.727,3.727,0,0,0,.009-.509c0-.068-.014-.159-.029-.271a2.078,2.078,0,0,0-.071-.327,1.148,1.148,0,0,0-.119-.273.185.185,0,0,0-.167-.109.244.244,0,0,0-.149.1,1.588,1.588,0,0,0-.169.235q-.085.14-.165.305c-.054.11-.1.216-.143.317a3.892,3.892,0,0,0-.15.513q-.077.329-.139.7t-.1.745q-.042.372-.052.655l.015.256c0,.026.033.044.094.055a1.572,1.572,0,0,0,.242.021c.1,0,.216,0,.344,0s.258-.012.391-.02q.333-.019.637-.05t.6-.077q.3-.047.607-.11t.644-.147l.1-.015c.032,0,.067-.007.105-.009Q3740.784,1287.535,3740.8,1287.791Z" transform="translate(-3615.847 -1283.016)" fill="#754421"/><path d="M3773.636,1301.378a.715.715,0,0,1-.018.185,1.667,1.667,0,0,1-.062.216c-.026.072-.055.143-.087.211a1.56,1.56,0,0,1-.1.176q-.029.047-.1.131c-.044.056-.093.119-.149.189s-.119.145-.189.226-.142.163-.213.244q-.352.368-.713.726a6.051,6.051,0,0,1-.763.643,4.452,4.452,0,0,1-.847.471,2.9,2.9,0,0,1-.958.217,1.109,1.109,0,0,1-.447-.07,1.588,1.588,0,0,1-.432-.238,1.7,1.7,0,0,1-.359-.38,1.582,1.582,0,0,1-.232-.491,3.278,3.278,0,0,1-.277.431c-.115.155-.242.309-.381.463s-.284.3-.434.44-.291.26-.422.363a3.194,3.194,0,0,1-.331.219,4.559,4.559,0,0,1-.415.214,3.6,3.6,0,0,1-.443.167,1.8,1.8,0,0,1-.417.079.864.864,0,0,1-.548-.144,1.5,1.5,0,0,1-.407-.41,2.241,2.241,0,0,1-.36-1.046,3.146,3.146,0,0,1,.074-.869,5.61,5.61,0,0,1,.271-.874,7.071,7.071,0,0,1,.389-.82q.218-.392.432-.7a4.951,4.951,0,0,1,.547-.646,5.719,5.719,0,0,1,.679-.586,4.479,4.479,0,0,1,.711-.431,1.745,1.745,0,0,1,.635-.185q.154-.009.318-.009t.325.01a2.265,2.265,0,0,1,.311.039,1.351,1.351,0,0,1,.268.081.732.732,0,0,1,.18.173,2.612,2.612,0,0,1,.19.272,2.845,2.845,0,0,1,.155.29.692.692,0,0,1,.072.227,2.057,2.057,0,0,1-.03.429q-.04.25-.092.523t-.092.558a2.678,2.678,0,0,0-.026.541,1.361,1.361,0,0,0,.072.362,1.223,1.223,0,0,0,.167.328.884.884,0,0,0,.245.233.506.506,0,0,0,.307.078,2.091,2.091,0,0,0,.741-.185,3.715,3.715,0,0,0,.721-.431,6.278,6.278,0,0,0,.708-.627q.352-.358.708-.771a.463.463,0,0,0,.1-.1c.056-.067.124-.142.2-.224a2.445,2.445,0,0,1,.25-.227.441.441,0,0,1,.235-.11.25.25,0,0,1,.25.094A.745.745,0,0,1,3773.636,1301.378Zm-5.862-.318a.5.5,0,0,0-.031-.133.771.771,0,0,0-.066-.141.528.528,0,0,0-.087-.111.122.122,0,0,0-.086-.043,1.389,1.389,0,0,0-.759.273,4.353,4.353,0,0,0-.691.661,3.817,3.817,0,0,0-.418.6,7.341,7.341,0,0,0-.4.788,5.939,5.939,0,0,0-.292.827,2.294,2.294,0,0,0-.093.719,1.153,1.153,0,0,0,.019.15.412.412,0,0,0,.046.129.268.268,0,0,0,.085.091.219.219,0,0,0,.137.031,1.233,1.233,0,0,0,.541-.189,3.517,3.517,0,0,0,.594-.446,5.14,5.14,0,0,0,.568-.618,4.105,4.105,0,0,0,.45-.7,5.944,5.944,0,0,0,.365-.908A2.734,2.734,0,0,0,3767.775,1301.06Z" transform="translate(-3640.554 -1296.521)" fill="#754421"/><path d="M3816.292,1297.785a.913.913,0,0,1-.129.442,4.566,4.566,0,0,1-.355.571q-.217.3-.488.617t-.524.593q-.151.163-.449.454t-.667.64q-.368.35-.771.724t-.76.7q-.357.323-.632.564t-.392.332a4.42,4.42,0,0,1-.716.447,1.641,1.641,0,0,1-.6.177,1.461,1.461,0,0,1-.38-.02.8.8,0,0,1-.256-.094.434.434,0,0,1-.15-.145.381.381,0,0,1-.055-.173.924.924,0,0,1,.06-.405,1.026,1.026,0,0,1,.24-.345,2.363,2.363,0,0,1,.431-.324q.264-.16.626-.336.238-.111.428-.212a1.94,1.94,0,0,0,.328-.215.779.779,0,0,0,.207-.253.648.648,0,0,0,.058-.331.474.474,0,0,0-.07-.163q-.068-.118-.173-.272t-.235-.337l-.255-.358-.238-.33q-.113-.154-.176-.26a2.072,2.072,0,0,1-.321-.978,2.7,2.7,0,0,1,.012-.451,2.458,2.458,0,0,1,.1-.475,2.021,2.021,0,0,1,.239-.592,2.973,2.973,0,0,1,.39-.528,2.413,2.413,0,0,1,.443-.383.85.85,0,0,1,.4-.159,1.427,1.427,0,0,1,.38.019.483.483,0,0,1,.235.115.489.489,0,0,1,.125.211,1.4,1.4,0,0,1,.051.315.648.648,0,0,1-.06.306,1.479,1.479,0,0,1-.169.287,2.444,2.444,0,0,1-.217.25l-.2.2q-.127.129-.243.242a2.511,2.511,0,0,0-.181.194,1.535,1.535,0,0,0,.242.731q.105.161.264.4l.324.479q.166.245.313.467t.233.353a2.2,2.2,0,0,0,.269-.186q.176-.135.409-.326c.155-.127.322-.269.5-.425s.355-.317.534-.481.352-.328.518-.49.316-.315.448-.46c.113-.122.207-.227.281-.315s.138-.16.193-.217a1.148,1.148,0,0,1,.144-.13.253.253,0,0,1,.139-.05.177.177,0,0,1,.141.053.507.507,0,0,1,.094.13.691.691,0,0,1,.053.135C3816.285,1297.751,3816.291,1297.776,3816.292,1297.785Z" transform="translate(-3677.802 -1293.579)" fill="#754421"/></g><g transform="translate(2294.458 1190.053)"><g transform="translate(0 0)" clip-path="url(#a)"><g transform="translate(224.535 55.799)"><path d="M3705.148,1515.87c-1.713-.7-3.437-1.379-5.157-2.065a.514.514,0,0,0-.121-.034q-.481-.385-.969-.755c-.039-.031-.08-.061-.119-.093a5.113,5.113,0,0,1,2.972.961c1,.543,1.988,1.127,2.961,1.718C3704.858,1515.69,3705,1515.781,3705.148,1515.87Z" transform="translate(-3670.492 -1510.595)" fill="#ffefd6"/><path d="M3567.239,1532.029c-.471,1.384-2.31,2.019-3.778,2.2a2.88,2.88,0,0,1,1.277-1.15A21.67,21.67,0,0,1,3567.239,1532.029Z" transform="translate(-3559.533 -1526.261)" fill="#ffd8b5"/><path d="M3552.661,1549.019c-.308-.231-.6-.465-.886-.718.265.02.528.05.789.084a3.841,3.841,0,0,0,.041.388C3552.62,1548.856,3552.643,1548.94,3552.661,1549.019Z" transform="translate(-3549.951 -1539.604)" fill="#a88067"/><path d="M3574.763,1587.988c0,.12,0,.235,0,.342v.009a1.607,1.607,0,0,1-.2.09C3574.632,1588.285,3574.7,1588.135,3574.763,1587.988Z" transform="translate(-3568.637 -1572.146)" fill="#ffefd6"/><path d="M3579.474,1567.571c-.029.044-.062.089-.092.137-.075-.042-.149-.087-.227-.129C3579.263,1567.58,3579.37,1567.574,3579.474,1567.571Z" transform="translate(-3572.402 -1555.405)" fill="#ffefd6"/><path d="M3570.364,1572.376a14.86,14.86,0,0,0-.816,1.28c-.153.274-.3.553-.429.838-.069.144-.127.318-.2.485a1.621,1.621,0,0,1-.078-.156c.04-.175.083-.351.132-.528.083-.3.175-.6.287-.894a4.014,4.014,0,0,1,.717-1.249C3570.1,1572.229,3570.232,1572.306,3570.364,1572.376Z" transform="translate(-3563.944 -1559.16)" fill="#ffd8b5"/><path d="M3583.56,1571.834a3.148,3.148,0,0,1-1.871,2.153c-.037-.407-.071-.815-.087-1.224a7.275,7.275,0,0,1,.1-1.664,4.308,4.308,0,0,1,.835-2.081,1.054,1.054,0,0,1,.8-.234A7.1,7.1,0,0,1,3583.56,1571.834Z" transform="translate(-3574.399 -1556.392)" fill="#ffd8b5"/><path d="M3653.1,1586.307a3.89,3.89,0,0,1-1.018,1.282c-.552.387-.5.194-.925.106a8.175,8.175,0,0,1-1.154-.4c-.938-.342-1.873-.7-2.8-1.068-2.545-1-5.071-2.043-7.592-3.1q-8.34-3.483-16.605-7.126-3.821-1.679-7.616-3.415c-3.027-1.375-6.11-2.615-9.181-3.885a.434.434,0,0,0-.312-.129c-1.775-.737-3.548-1.484-5.3-2.273-.134-.254-.27-.5-.425-.749a6.511,6.511,0,0,0-2.47-2.322c.23-.059.465-.117.7-.169.18-.043.36-.079.54-.119,6.289,2.495,12.523,5.141,18.728,7.832a.192.192,0,0,0,.037.018q4.137,1.79,8.261,3.6,6.764,2.963,13.542,5.872,3.415,1.454,6.843,2.877,1.61.666,3.222,1.318c.567.23,1.135.455,1.7.684C3651.757,1585.334,3653.126,1585.6,3653.1,1586.307Z" transform="translate(-3587.612 -1551.606)" fill="#a88067"/><path d="M3678.568,1584.528q-2.665-1.152-5.341-2.29a5.582,5.582,0,0,1,1.421-.553c.5.392.995.776,1.509,1.141.613.439,1.246.845,1.877,1.262A3,3,0,0,1,3678.568,1584.528Z" transform="translate(-3649.538 -1566.978)" fill="#ffefd6"/><path d="M3632.349,1602.548a27.245,27.245,0,0,0-6.673,3.228,18.557,18.557,0,0,1-1.525-3.355q1.689-.968,3.43-1.84C3629.172,1601.234,3630.765,1601.877,3632.349,1602.548Z" transform="translate(-3609.297 -1582.472)" fill="#ffefd6"/><path d="M3620.671,1591.119q-1.246.643-2.461,1.343c-.28-.924-.555-1.861-.9-2.766Q3618.984,1590.428,3620.671,1591.119Z" transform="translate(-3603.691 -1573.546)" fill="#ffefd6"/><path d="M3626,1559.309a16.058,16.058,0,0,0-1.695.832q-4.587-1.939-9.206-3.79c.669-.131,1.342-.256,2.012-.37.792-.136,1.588-.26,2.383-.394a5.548,5.548,0,0,1,2.145-.161.523.523,0,0,0,.141.041.649.649,0,0,1,.113.041,4.884,4.884,0,0,1,1.545,1.4c.465.5.967.975,1.466,1.436Q3625.44,1558.837,3626,1559.309Z" transform="translate(-3601.875 -1545.413)" fill="#ffefd6"/><path d="M3609.491,1531.906q-3.327-1.428-6.648-2.874c-4.475-1.95-8.943-3.916-13.427-5.861a3.677,3.677,0,0,0-1.278-1.838c-1.006-.716-2.067-1.349-3.055-2.1q-1.389-1.061-2.676-2.245c-.835-.772-1.54-1.7-2.4-2.435a2.928,2.928,0,0,0-.85-.51,3.144,3.144,0,0,1,.482-2.891c.477-.5-.368-1.167-.843-.669a3.825,3.825,0,0,0-.761,3.317,18.115,18.115,0,0,0-4.217.6c-.441.073-.881.155-1.324.238a5.309,5.309,0,0,1-.686-2.3c-.048-.691-1.116-.568-1.069.123a6.353,6.353,0,0,0,.658,2.394c-.405.081-.812.162-1.222.251a36.594,36.594,0,0,1-3.979.865,3.534,3.534,0,0,1-3.371-1.162,2.058,2.058,0,0,1-.374-.847c2.07-.145,4.64-1.2,5.089-3.376a.484.484,0,0,0-.02-.286c1.3-.405,2.62-.734,3.889-1.032a21.242,21.242,0,0,0,3.172-.8c1.191-.488,2.355-1.055,3.537-1.568a7.722,7.722,0,0,1,4.151-.908,8.443,8.443,0,0,1,3.644,1.769,50.749,50.749,0,0,1,11.08,10.784.538.538,0,0,0,.859-.647,46.788,46.788,0,0,0-7.112-7.619c1.8.723,3.608,1.453,5.391,2.23a46.481,46.481,0,0,1,7.927,4.019,10.706,10.706,0,0,1,4.535,7.131C3609.115,1526.365,3609.22,1529.158,3609.491,1531.906Z" transform="translate(-3558.707 -1504.895)" fill="#ffefd6"/><path d="M3761.882,1789.518a37.1,37.1,0,0,0-4.735,2.569c-.578.374-1.224-.486-.642-.86a38.932,38.932,0,0,1,4.974-2.705C3762.113,1788.236,3762.509,1789.234,3761.882,1789.518Z" transform="translate(-3717.636 -1736.535)" fill="#754421"/><path d="M3660.545,1659.578c-3.142-5.234-6.758-10.194-10.062-15.323-3.161-4.9-6.285-9.83-9.332-14.808a75.3,75.3,0,0,1-6.728-13.493c-.761-2.075-1.458-4.172-2.309-6.219-.817-1.964-1.885-3.8-2.781-5.727-1.832-3.959-2.468-8.511-3.131-12.8q-8.728-3.652-17.389-7.477-1.491-.66-2.969-1.321a11.9,11.9,0,0,1-4.237,5.089c-1.83,1.378-4.176,3.341-6.244,1.363a30.03,30.03,0,0,1-5.43-6.557c-1.233-2.167-1.71-4.59-2.565-6.907a9.829,9.829,0,0,0-1.4-2.714,5.675,5.675,0,0,0-1.134-1.057,6.25,6.25,0,0,1-.115,3.438,4.666,4.666,0,0,1-2.614,2.409c.057.553.106,1.115.129,1.676a38.763,38.763,0,0,1-.247,4.08,6.642,6.642,0,0,0,1.3,4.587c1.631,2.4,3.291,4.786,4.915,7.191a30.68,30.68,0,0,0,6.269,6.29q3.334,2.737,6.886,5.189c2.317,1.6,4.712,3.049,7.113,4.518a16.3,16.3,0,0,1,5.591,5.107,69.588,69.588,0,0,1,3.856,7.506q1.917,4.049,3.655,8.182c2.322,5.508,4.421,11.1,6.376,16.753,3.912,11.328,7.222,22.851,10.526,34.366l29.86-8.679A164.91,164.91,0,0,0,3660.545,1659.578Zm-41.6-47.863a37.108,37.108,0,0,0-4.732,2.568c-.577.374-1.225-.486-.643-.859a38.95,38.95,0,0,1,4.976-2.7C3619.177,1610.434,3619.573,1611.432,3618.948,1611.716Z" transform="translate(-3574.701 -1558.733)" fill="#ffefd6"/><path d="M3576.3,1505.266c-1.713-.7-3.438-1.378-5.157-2.064a.509.509,0,0,0-.121-.033c-.32-.258-.644-.509-.97-.756l-.118-.091a5.113,5.113,0,0,1,2.972.96c1,.543,1.988,1.127,2.96,1.718C3576.006,1505.087,3576.153,1505.178,3576.3,1505.266Zm-26.954.494c-.471,1.384-2.31,2.019-3.778,2.2a2.88,2.88,0,0,1,1.273-1.15A21.647,21.647,0,0,1,3549.349,1505.759Zm-5.051,3.4c.016.083.038.166.057.246-.308-.228-.607-.466-.886-.718.265.02.528.05.789.084A3.783,3.783,0,0,0,3544.3,1509.16Zm3.272,7.111c.068-.144.134-.292.2-.441,0,.12,0,.235,0,.342v.009A1.556,1.556,0,0,1,3547.57,1516.271Zm-.322-1.786c-.153.274-.3.553-.429.838-.07.144-.128.318-.2.484a1.608,1.608,0,0,1-.078-.156c.04-.176.083-.351.133-.528.083-.3.175-.6.287-.894a4.016,4.016,0,0,1,.718-1.25c.126.078.255.155.387.224a14.885,14.885,0,0,0-.815,1.285Zm3.558.953a3.148,3.148,0,0,1-1.871,2.153c-.038-.407-.071-.815-.087-1.224a7.3,7.3,0,0,1,.1-1.664,4.319,4.319,0,0,1,.834-2.081,1.052,1.052,0,0,1,.8-.234A7.106,7.106,0,0,1,3550.806,1515.438Zm-2.406-3.269c.108,0,.215-.005.318-.008-.03.044-.063.089-.091.137-.076-.046-.152-.091-.229-.132Zm.741-1.108a3.533,3.533,0,0,1-3.374-1.155,2.056,2.056,0,0,1-.375-.85c2.07-.145,4.64-1.2,5.089-3.376a.481.481,0,0,0-.02-.289c1.3-.405,2.62-.734,3.889-1.032a21.2,21.2,0,0,0,3.172-.8c1.191-.489,2.355-1.055,3.537-1.567a7.722,7.722,0,0,1,4.148-.908,8.437,8.437,0,0,1,3.644,1.77,50.756,50.756,0,0,1,11.082,10.783.537.537,0,0,0,.859-.643,46.765,46.765,0,0,0-7.107-7.623c1.8.723,3.608,1.453,5.391,2.23a46.5,46.5,0,0,1,7.928,4.019,10.707,10.707,0,0,1,4.535,7.131c.52,2.71.622,5.5.894,8.252q-3.327-1.428-6.649-2.875c-4.475-1.949-8.943-3.916-13.427-5.86a3.678,3.678,0,0,0-1.279-1.838c-1.005-.715-2.067-1.349-3.055-2.1q-1.389-1.061-2.677-2.245c-.835-.772-1.54-1.7-2.4-2.435a2.917,2.917,0,0,0-.85-.51,3.143,3.143,0,0,1,.481-2.891c.478-.5-.368-1.167-.843-.67a3.826,3.826,0,0,0-.763,3.313,18.088,18.088,0,0,0-4.221.6c-.441.073-.882.155-1.324.238a5.321,5.321,0,0,1-.686-2.305c-.048-.691-1.116-.568-1.069.123a6.351,6.351,0,0,0,.658,2.394c-.405.082-.812.164-1.222.251a36.655,36.655,0,0,1-3.974.864Zm17.618,3.642c.495.393.995.775,1.508,1.141.614.439,1.246.845,1.877,1.262a2.985,2.985,0,0,1,.538.441q-2.669-1.152-5.341-2.29a5.578,5.578,0,0,1,1.415-.557Zm-2.685.02q-4.582-1.939-9.206-3.791c.669-.13,1.342-.255,2.013-.37.795-.135,1.588-.258,2.383-.394a5.559,5.559,0,0,1,2.144-.16.515.515,0,0,0,.14.041.653.653,0,0,1,.113.041,4.891,4.891,0,0,1,1.545,1.4c.466.5.967.975,1.466,1.437q.537.492,1.1.966a16.04,16.04,0,0,0-1.7.826Zm-7.908,4.183c-.28-.924-.555-1.861-.9-2.766q1.67.732,3.358,1.422Q3557.379,1518.21,3556.164,1518.907Zm.334,1.034q1.688-.967,3.429-1.84c1.592.653,3.184,1.3,4.769,1.967a27.257,27.257,0,0,0-6.673,3.229A18.579,18.579,0,0,1,3556.5,1519.941Zm10.327,8.733c-1.1.744-2.387,1.844-3.626.815a27.6,27.6,0,0,1-3.112-3.3,20.261,20.261,0,0,1-1.5-1.994.616.616,0,0,0,.069-.037,26.428,26.428,0,0,1,7.576-3.443c.623.27,1.247.544,1.868.827q1.858.846,3.723,1.691c-.82,2.364-3,4.087-5,5.44Zm10.217-4.287q-3.821-1.68-7.616-3.415c-3.026-1.378-6.11-2.622-9.181-3.888a.433.433,0,0,0-.312-.128c-1.775-.736-3.548-1.483-5.3-2.272-.133-.254-.27-.5-.425-.749a6.513,6.513,0,0,0-2.475-2.322c.231-.058.465-.117.7-.172.18-.043.36-.079.54-.119,6.287,2.495,12.522,5.141,18.732,7.832a.216.216,0,0,0,.037.018q4.138,1.79,8.261,3.6,6.765,2.963,13.543,5.872,3.415,1.455,6.842,2.877,1.61.665,3.222,1.318c.567.229,1.134.455,1.7.684.478.189,1.846.45,1.821,1.162a3.892,3.892,0,0,1-1.018,1.282c-.551.386-.5.193-.925.106a8.22,8.22,0,0,1-1.154-.4c-.939-.342-1.872-.7-2.8-1.068-2.546-1-5.072-2.043-7.593-3.1q-8.335-3.476-16.6-7.119Zm53.121,78.922c-3.072-5.438-6.707-10.5-10.114-15.729q-4.99-7.656-9.8-15.432a94.1,94.1,0,0,1-6.431-11.713c-1.947-4.446-3.228-9.117-5.465-13.445a29.487,29.487,0,0,1-2.686-7.046c-.531-2.31-.964-4.648-1.341-6.991,2.3.961,4.613,1.908,6.937,2.816.955.371,1.908.737,2.875,1.079.9.318,1.845.711,2.669-.025,1.2-1.071,2.411-2.793.461-3.681-2.348-1.066-4.811-1.927-7.2-2.916q-3.256-1.355-6.5-2.743c-.244-2.241-.652-6.921-.652-6.921l-.175-1.075a.636.636,0,0,0-.013-.077c-.57-3.182-1.719-6.13-4.509-8.243a31.478,31.478,0,0,0-6.044-3.369.5.5,0,0,0-.1-.093c-2.13-1.43-4.294-2.819-6.5-4.132-1.835-1.094-4.521-3.192-6.719-2.027a7.377,7.377,0,0,0-5.156-1.53c-2.8.388-5.113,2.319-7.841,2.931a58.518,58.518,0,0,0-8.186,2.351c-1.268.484-2.726,1.186-3.231,2.413a17.706,17.706,0,0,0-2.324-.136.542.542,0,0,0-.371.856,15.6,15.6,0,0,0,3.421,2.862c.524.37,1.054.746,1.6,1.109a6.87,6.87,0,0,0-1.286,3.092c-.29,1.642,1.075,2.032,2.35,1.773.078.954.206,1.908.26,2.864.1,1.676-.22,3.3-.261,4.968-.064,2.806,1.64,4.772,3.155,6.973.342.5,1.01,1.515,1.01,1.515l.6.928a32.34,32.34,0,0,0,9.677,10.108q3.389,2.674,6.981,5.058c2.333,1.549,4.823,2.875,7.12,4.47a16.8,16.8,0,0,1,5.34,6.731q2.028,4,3.857,8.093c2.446,5.453,4.653,11.006,6.691,16.625,4.644,12.8,8.4,25.9,12.157,38.981.19.662,1.188.26,1-.4-3.3-11.515-6.614-23.038-10.526-34.366-1.951-5.645-4.054-11.245-6.376-16.754q-1.737-4.131-3.655-8.182a69.622,69.622,0,0,0-3.856-7.506,16.306,16.306,0,0,0-5.591-5.107c-2.4-1.469-4.8-2.919-7.113-4.518q-3.549-2.455-6.886-5.189a30.654,30.654,0,0,1-6.268-6.289c-1.624-2.4-3.285-4.786-4.915-7.191a6.643,6.643,0,0,1-1.3-4.587,38.759,38.759,0,0,0,.247-4.08c-.023-.561-.071-1.119-.128-1.676a4.67,4.67,0,0,0,2.614-2.409,6.255,6.255,0,0,0,.115-3.438,5.689,5.689,0,0,1,1.137,1.059,9.832,9.832,0,0,1,1.4,2.714c.855,2.314,1.333,4.74,2.565,6.9a30.033,30.033,0,0,0,5.428,6.566c2.073,1.978,4.415.012,6.245-1.363a11.9,11.9,0,0,0,4.237-5.089q1.482.665,2.969,1.321,8.655,3.821,17.389,7.476c.662,4.286,1.3,8.839,3.13,12.8.893,1.929,1.961,3.763,2.781,5.727.852,2.042,1.549,4.144,2.31,6.218a75.27,75.27,0,0,0,6.725,13.495q4.57,7.463,9.332,14.808c3.308,5.128,6.923,10.09,10.062,15.323a164.9,164.9,0,0,1,7.79,14.666c.293.622,1.292.221,1-.4-1.886-4.011-3.945-7.94-6.119-11.795Z" transform="translate(-3541.644 -1499.991)" fill="#754421"/></g></g></g></g></svg>