<?xml version="1.0" encoding="utf-8"?>
<!-- Generator: Adobe Illustrator 26.5.0, SVG Export Plug-In . SVG Version: 6.00 Build 0)  -->
<svg version="1.1" id="Layer_1" xmlns="http://www.w3.org/2000/svg" xmlns:xlink="http://www.w3.org/1999/xlink" x="0px" y="0px"
	 viewBox="0 0 1280 640" style="enable-background:new 0 0 1280 640;" xml:space="preserve">
<style type="text/css">
	.st0{fill:#F2E8E1;}
	.st1{fill:#754421;}
	.st2{fill:#EBC8B2;}
	.st3{fill:#A88067;}
	.st4{fill:#41B76D;}
	.st5{fill:#C9C9C9;}
	.st6{fill:#FFFFFF;}
	.st7{clip-path:url(#SVGID_00000174560329930918652130000015254621704212365211_);}
	.st8{fill:#FFEFD6;}
	.st9{fill:#FFD8B5;}
</style>
<rect class="st0" width="1280" height="640"/>
<g transform="translate(2338.346 1236.544)">
	<path class="st1" d="M-2072.6-720.8c12.6-17.1,19.5-37.8,19.7-59c0-21.3-7.9-41.8-22-57.6c0.1-0.7,0.3-1.5,0.4-2.2
		c0.2-1.1-0.5-2.5-1.8-2.4c-0.9,0.1-1.9,0.2-2.8,0.2c-15.6-14.7-34.8-25.7-56.6-27.1c-22.5-1.5-44.7,5.7-61.9,20.2
		c-9.1,7.4-16.7,16.5-22.5,26.7c-0.3,0-0.6-0.1-0.9-0.1c-2.9-0.2-8.8-0.6-9.7,3.3c-0.7,3.3,3.3,7.1,5.1,9.4c0.1,0.2,0.2,0.3,0.4,0.5
		c-2.8,9.7-4.4,19.7-4.6,29.7c-0.5,9.8,0.5,19.6,3,29.1c5.5,18.3,16.2,34.6,30.8,46.9c0.3,1.4,0.6,2.9,0.9,4.3
		c0.3,1,1.3,1.6,2.3,1.3c0,0,0,0,0,0c0.1,0,0.3-0.1,0.4-0.2c0.8-0.4,1.6-0.8,2.4-1c17.3,10.6,38.5,12.8,58.3,10.4
		c18.2-2.3,36.3-8.4,49.7-21.3c3.2,0,6.3-0.6,9.3-1.8C-2068.5-713.4-2071.1-717.1-2072.6-720.8
		C-2072.6-720.7-2072.6-720.7-2072.6-720.8z M-2078.7-838.1c-3.7,18.1-13.4,34.4-27.5,46.2c-7.3-2.7-15.2-2.9-22.6-0.7
		c-0.4-0.5-0.8-1-1.3-1.5c0.1-0.2,0.1-0.3,0.1-0.5c0.7-4,1.3-8.1,1.8-12.3c6.5-8.2,13.3-17.5,22-23.3
		C-2098-835.4-2088.2-837.2-2078.7-838.1L-2078.7-838.1z M-2131.1-726c-0.5,5.6-2,11.1-4.4,16.2c-0.4,0.9-1.3,2.5-2.4,4.4
		c-0.4,0.2-0.7,0.7-0.7,1.2c-2,3.2-4.6,6.3-6.4,5.6c-1.7-0.7-4.2-4-5.4-5.3c-1.8-1.8-3.5-3.8-5-5.9c-3.4-4.3-5.5-9.5-5.9-15
		c0-6.3,0.8-12.5,2.3-18.6c1.1-5.3,3-10.5,5.5-15.4c0.2,0.3,0.4,0.6,0.7,0.8c2.3,2.5,5.5,4.2,8.9,4.5c4,1.2,8.2-0.9,9.5-4.9
		c0.5,0.2,1,0.5,1.5,0.7C-2131.1-747.3-2130.5-736.6-2131.1-726L-2131.1-726z M-2127.6-723.4c0.4-3.1,0.6-6.2,0.6-9.4
		c6.2,6.4,13.4,11.7,21.2,15.8c0.2,0.1,0.5,0.2,0.7,0.4c-8.6,5.2-18.1,8.7-28,10.3C-2130.3-711.6-2128.4-717.4-2127.6-723.4
		L-2127.6-723.4z M-2156.2-704.9c-5-0.4-10-1.2-14.8-2.5c2.9-2.5,5.7-5.2,8.2-8.1c1.4,3.5,3.4,6.8,5.8,9.7
		C-2156.7-705.5-2156.5-705.2-2156.2-704.9L-2156.2-704.9z M-2219.7-757c1.8-1.9,3.6-3.8,5.5-5.7c3.8-3.9,8-7.4,12.4-10.5
		c7.6-5.5,16.5-8.9,25.8-9.9c0.3,4.8,2.3,9.4,5.6,12.8c2.7,2.6,6.2,4.3,9.9,4.9c-5.4,7.5-13.3,12.8-22.3,15c-11.2,2.4-24,0.3-35-2.4
		c-1.3-0.2-2.6-0.6-3.8-1.1C-2222.1-755-2220.3-756.5-2219.7-757L-2219.7-757z M-2217.7-799.9c0.4,0.4,0.8,0.8,1.1,1.2
		c6.3,6.5,13.2,12.4,20.6,17.6c-3.7,1.9-7.3,4.2-10.6,6.7c-4.5,3.5-8.7,7.3-12.6,11.3C-2221.1-775.3-2220.6-787.8-2217.7-799.9
		L-2217.7-799.9z M-2166.4-771.8c-3.9-2.8-7.6-10.5-5.1-15.2c2.8-4.6,8.1-7,13.3-6c5.2,1.1,9.5,4.9,11.3,9.9
		c-0.8,3.4-2.2,6.7-4.2,9.6c-0.9,1.5-2.3,3-3.4,4.6C-2158.6-768.4-2162.9-769.4-2166.4-771.8L-2166.4-771.8z M-2187.3-813.2
		c-6.1-2.5-12.4-4.4-18.9-5.7c-1.4-0.4-2.8-0.8-4.2-1.1c11.9-19.1,31.6-32,53.8-35.3c0,0.1-0.1,0.2-0.1,0.3
		c-2.5,6.3-4.4,12.7-5.7,19.3c-0.3,1.8-0.6,3.5-0.9,5.3c-5.1-4.8-11.1-8.7-17.5-11.5c-2.4-1.1-4.6-1.6-6.1,1
		c-1.5,3.5-2.2,7.2-2.3,10.9C-2189.5-824.3-2188.9-818.6-2187.3-813.2L-2187.3-813.2z M-2129.2-833.8c-1.6-5.8-4.3-11.3-7.8-16.2
		c-1.5-2.1-3-4.1-4.7-6c15.7,1.5,30.6,7.9,42.4,18.3c-2.7,1-5.3,2.2-7.7,3.7c-8.1,5-14.6,12.8-20.6,20.4
		C-2127-820.3-2127.5-827.2-2129.2-833.8L-2129.2-833.8z M-2143.2-784.2c-1.3-3.4-3.4-6.3-6.1-8.7c6.4-2.5,14.5-3,18.3,3.9
		c1.6,2.8,1.8,6.2,0.6,9.2c-1,2.6-3.8,6.1-6.8,4.9C-2138.9-778.2-2140.9-781.3-2143.2-784.2L-2143.2-784.2z M-2137.8-759.6
		c-1.5,4.1-8.1,2.5-10.9,0.4c-2-1.5-4.2-4.3-3-6.7c0.3-0.3,0.5-0.6,0.6-1c0.9-1.3,1.9-2.6,2.8-3.9c1.7-2.6,3.2-5.4,4.3-8.3
		c1.3,1.9,2.4,3.9,3.4,6c0,0.2,0.1,0.4,0.3,0.6c0.6,1.2,1.1,2.5,1.5,3.8C-2137.6-765.9-2137.2-762.7-2137.8-759.6L-2137.8-759.6z
		 M-2131.9-828.9c1.1,6.9,1.1,14,0.2,21c0,0.2-0.1,0.3-0.1,0.5c-0.4,3.7-1,7.4-1.6,11.1c-6.2-2.4-13.1-2.1-19.1,0.8
		c-0.2,0.1-0.4,0.2-0.5,0.4c-1.5-0.7-3-1.2-4.6-1.5c-0.6-0.1-1.1-0.1-1.7-0.2c-2.7-16.6-1.4-33.6,3.7-49.6c0.8-2.6,1.7-5.1,2.7-7.6
		c0.4-1,1.1-3.6,2.1-4.2c1.5-0.9,2.6,0.5,3.4,1.5c0,0,0.1,0.1,0.1,0.1c0.1,0.1,0.2,0.2,0.3,0.3
		C-2139.5-848.9-2134.2-839.4-2131.9-828.9L-2131.9-828.9z M-2184.7-834.3c0.2-1,0.3-3.5,1-4.2s2.7,0.5,3.8,1.1
		c6,2.9,11.5,6.9,16.1,11.7c-1,9.7-0.7,19.4,0.7,29c-2.7,0.4-5.2,1.5-7.3,3c-4.9-4.1-8.8-9.4-11.3-15.3c0-0.2-0.1-0.5-0.3-0.7
		c-2-4.9-3.1-10.2-3.3-15.5C-2185.5-828.2-2185.3-831.3-2184.7-834.3L-2184.7-834.3z M-2133.9-762.3c0-1-0.1-2-0.3-3
		c-0.3-1.8-0.8-3.6-1.5-5.4c6.6-0.2,10.7-10.8,9.1-16.7c-0.2-0.6-0.3-1.2-0.6-1.8c7.9-2.1,16.3-1.2,23.5,2.5c4.1,2.1,8,4.7,11.6,7.6
		c1.7,1.3,3.4,2.7,5.1,4.2c0.7,0.5,1.4,1.1,2.1,1.8c0,0.3-1.9,1.2-2.3,1.5c-7.8,4.4-15.6,9.6-24.3,12.2
		C-2118.9-757.4-2127-758.4-2133.9-762.3L-2133.9-762.3z M-2094.7-763.1c2.4-1.3,4.8-2.7,7.1-4c2.3-0.9,4.4-2.2,6.2-3.9
		c2.7-3.7-3.6-7.2-5.9-9.1c-4.1-3.5-8.5-6.6-13.2-9.2c-0.6-0.3-1.2-0.6-1.9-0.9c6.8-6.1,12.6-13.3,17.1-21.3
		c1.1-1.9,2.1-3.8,3.1-5.8c13.3,23.2,12,52.7-1,75.9c-4.8-7.2-11-13.4-18.2-18.2C-2099.1-760.7-2096.9-761.9-2094.7-763.1
		L-2094.7-763.1z M-2174.6-858.6c20.7-8.7,44-8.7,64.7,0.1c9.5,4.3,18.2,10.2,25.7,17.3c-3.7,0.5-7.3,1.2-10.9,2.2
		c-14.1-12.2-31-20.5-49.9-20.9c-0.9-1.1-2-2-3.3-2.6c-2.9-1.1-4.9,0.7-6.3,3.1c-13.4,1.3-26.3,6.2-37.2,14.1
		c-8.9,6.7-16.4,14.9-22.3,24.3c-0.8-0.2-1.5-0.3-2.3-0.5C-2206.9-838.1-2192.2-851.1-2174.6-858.6L-2174.6-858.6z M-2226.5-816.6
		c-0.1-1.5,1.5-1.6,2.4-1.8c1.4-0.2,2.8-0.2,4.2,0.1c0.3,0.1,0.6,0.2,0.9,0.2c0.8,0.1,1.5,0.3,2.2,0.4c4,0.7,7.8,1.9,11.7,3
		c6.3,1.7,14.7,2.9,19.9,7.3c2.7,6.4,6.8,12,12.1,16.4c-0.6,0.7-1.1,1.4-1.5,2.2c-0.3,0.6-0.6,1.3-0.8,2c-5.7,0.4-11.3,1.8-16.6,4
		c-12.7-8.6-23.8-19.3-32.9-31.7C-2225.3-815-2226.5-816.1-2226.5-816.6z M-2226.4-778.7c0.2-9,1.5-18,3.8-26.8
		c0.6,0.7,1.1,1.4,1.7,2c-3.1,14.1-4.7,29.4-1.5,43.6c-0.9,0.9-1.8,1.9-2.6,3C-2226.2-764-2226.6-771.3-2226.4-778.7L-2226.4-778.7z
		 M-2223.4-750.6c1.5,0.7,3,1.2,4.6,1.6c4.6,11.6,11.6,22.1,20.6,30.7c0.1,3.1,0.3,6.1,0.8,9.1
		C-2209.6-720.5-2218.5-734.8-2223.4-750.6L-2223.4-750.6z M-2197.7-726.4c-0.2,1-0.3,2-0.4,3c-6.9-7.2-12.5-15.5-16.4-24.7
		c3.3,0.6,6.7,0.9,9.7,1.3c5.8,0.9,11.8,1.1,17.7,0.7C-2192.3-740.6-2196-733.8-2197.7-726.4L-2197.7-726.4z M-2191.1-702.5
		c-0.4,0.1-0.8,0.3-1.2,0.4c-0.1-0.7-0.3-1.3-0.4-2c0-0.3,0-0.7-0.2-1c-1-4.5-1.5-9.1-1.6-13.7c0.1-0.3,0.1-0.5,0-0.8
		c0-2,0.2-3.9,0.5-5.9c1.8-7.8,5.9-15,11.8-20.5c0.3-0.3,0.4-0.6,0.5-1c10.5-2.6,19.7-9.1,25.6-18.2h0c-0.1,0.9,0.1,1.7,0.4,2.5
		c-0.1,0.1-0.2,0.3-0.3,0.4c-4.8,9.3-7.7,19.5-8.6,29.9c-0.6,4.3-0.3,8.7,0.7,12.9c-0.3,0.1-0.6,0.3-0.9,0.5
		c-3.3,3.9-7,7.4-11.1,10.5c-0.1,0-0.2,0.1-0.2,0.2c-0.6,0.4-1.3,0.8-1.9,1.2c-3.8,1.8-7.9,3.2-12.1,4.1
		C-2190.5-702.8-2190.9-702.7-2191.1-702.5L-2191.1-702.5z M-2133.1-692c-17.6,2.1-36.3,0.4-52.1-8.1c0.9-0.2,1.8-0.4,2.7-0.7
		c2.6-0.8,5-1.9,7.3-3.4c0.2-0.1,0.3-0.2,0.5-0.3c7.1,2.2,14.5,3.4,21.9,3.6c1.8,2,3.8,3.9,6,5.6c3.3,2.4,5.8-0.5,8.1-3
		c1.1-1.2,2.1-2.5,3.1-3.8c12.3-1.5,24-5.7,34.4-12.5c4.4,2.2,9.1,3.7,13.9,4.5C-2100.1-699.3-2116.7-694-2133.1-692L-2133.1-692z
		 M-2074.1-714.6c0-0.3-2.9,0.4-3.1,0.5c-1.8,0.4-3.7,0.6-5.5,0.6c-0.2,0-0.3,0-0.5,0c-6-0.3-11.8-1.9-17.1-4.7
		c-0.3-0.3-0.6-0.5-1-0.5c-1.6-0.8-3.2-1.7-4.7-2.6c-8.1-4.3-15.2-10.1-21.1-17.2c0,0-0.1-0.1-0.1-0.1c-0.3-5.9-1.2-11.7-1.9-17.5
		c6.3,2,13.1,2,19.4,0c1.5-0.5,2.9-1,4.3-1.6c8,4.9,14.8,11.6,19.9,19.6c2.5,4.1,4.8,8.3,6.7,12.7c0.7,1.6,1.4,3.2,2.1,4.8
		c0,0.2,0.1,0.3,0.2,0.5c0.4,0.8,0.7,1.7,1.1,2.5C-2074.9-716.7-2074.5-715.7-2074.1-714.6L-2074.1-714.6z M-2074.4-724.8
		c-1.8-4.2-3.9-8.4-6.1-12.4c-0.1-0.2-0.2-0.4-0.4-0.6c0,0,0.1-0.1,0.1-0.1c14.9-25.3,16.3-58.3,0.6-83.5c1.7-3.7,3.1-7.6,4.1-11.5
		c12.8,15.2,19.6,34.5,19.3,54.3C-2057.2-759.3-2063.3-740.6-2074.4-724.8L-2074.4-724.8z"/>
	<path class="st2" d="M-2087.4-710.1c-12.7,10.8-29.3,16.1-45.7,18.1c-17.6,2.1-36.3,0.4-52.1-8.1c0.9-0.2,1.8-0.4,2.7-0.7
		c2.6-0.8,5-1.9,7.3-3.4c0.2-0.1,0.3-0.2,0.5-0.3c7.1,2.2,14.5,3.4,21.9,3.6c1.8,2,3.8,3.9,6,5.6c3.3,2.4,5.8-0.5,8.1-3
		c1.1-1.2,2.1-2.5,3.1-3.8c12.3-1.5,24-5.7,34.4-12.5C-2096.9-712.5-2092.2-711-2087.4-710.1z"/>
	<path class="st2" d="M-2056.7-778.5c-0.5,19.3-6.6,38-17.6,53.8c-1.8-4.2-3.9-8.4-6.1-12.4c-0.1-0.2-0.2-0.4-0.4-0.6
		c0,0,0.1-0.1,0.1-0.1c14.9-25.3,16.3-58.3,0.6-83.5c1.7-3.7,3.1-7.6,4.1-11.5C-2063.3-817.7-2056.4-798.4-2056.7-778.5z"/>
	<path class="st2" d="M-2084.2-841.2c-3.7,0.5-7.3,1.2-10.9,2.2c-14.1-12.2-31-20.5-49.9-20.9c-0.9-1.1-2-2-3.2-2.6
		c-2.9-1.1-4.9,0.7-6.3,3.1c-13.4,1.3-26.3,6.2-37.2,14.1c-8.9,6.7-16.4,14.9-22.3,24.3c-0.8-0.2-1.5-0.3-2.3-0.5
		c9.5-16.6,24.2-29.7,41.7-37.2c20.7-8.7,44-8.7,64.7,0.1C-2100.4-854.2-2091.7-848.4-2084.2-841.2z"/>
	<path class="st2" d="M-2222.4-759.7c-0.9,0.9-1.8,1.9-2.6,3c-1.2-7.2-1.6-14.6-1.4-21.9c0.2-9,1.5-18,3.8-26.8
		c0.6,0.7,1.1,1.4,1.7,2C-2223.9-789.2-2225.5-774-2222.4-759.7z"/>
	<path class="st2" d="M-2197.5-709.2c-12.1-11.3-21-25.6-25.9-41.4c1.5,0.7,3,1.2,4.6,1.6c4.6,11.6,11.6,22.1,20.5,30.7
		C-2198.2-715.2-2197.9-712.2-2197.5-709.2z"/>
	<path class="st3" d="M-2187.1-746.1c-5.3,5.5-8.9,12.3-10.6,19.7c-0.2,1-0.3,2-0.4,3c-6.9-7.2-12.5-15.5-16.4-24.7
		c3.3,0.6,6.7,0.9,9.7,1.3C-2198.9-745.9-2192.9-745.7-2187.1-746.1z"/>
	<path class="st3" d="M-2196-781.1c-3.7,1.9-7.3,4.2-10.6,6.7c-4.5,3.5-8.7,7.2-12.6,11.3c-1.8-12.3-1.3-24.8,1.5-36.9
		c0.4,0.4,0.8,0.8,1.1,1.2C-2210.3-792.2-2203.4-786.3-2196-781.1z"/>
	<path class="st3" d="M-2156.5-855.4c0,0.1-0.1,0.2-0.1,0.3c-2.5,6.3-4.4,12.7-5.7,19.3c-0.3,1.8-0.6,3.5-0.9,5.3
		c-5.1-4.8-11.1-8.7-17.5-11.5c-2.4-1.1-4.6-1.6-6.1,1c-1.5,3.5-2.2,7.2-2.3,10.9c-0.4,5.7,0.2,11.3,1.8,16.8
		c-6.1-2.5-12.4-4.4-18.9-5.7c-1.4-0.4-2.8-0.8-4.2-1.1C-2198.4-839.2-2178.7-852.1-2156.5-855.4z"/>
	<path class="st3" d="M-2099.3-837.7c-2.7,1-5.3,2.2-7.7,3.7c-8.1,5-14.6,12.8-20.6,20.4c0.5-6.8,0-13.6-1.6-20.2
		c-1.6-5.8-4.3-11.3-7.8-16.2c-1.5-2.1-3-4.1-4.7-6C-2126-854.5-2111.1-848.1-2099.3-837.7z"/>
	<path class="st3" d="M-2083.1-741.4c-4.8-7.2-11-13.4-18.2-18.2c2.3-1.1,4.4-2.3,6.6-3.5c2.4-1.3,4.8-2.7,7.1-4
		c2.3-0.9,4.4-2.2,6.2-3.9c2.7-3.7-3.6-7.2-5.9-9.1c-4.1-3.5-8.5-6.6-13.2-9.2c-0.6-0.3-1.2-0.6-1.9-0.9
		c6.8-6.1,12.6-13.3,17.1-21.3c1.1-1.9,2.2-3.8,3.1-5.8C-2068.8-794.1-2070.1-764.6-2083.1-741.4z"/>
	<path class="st3" d="M-2156.2-704.9c-5-0.4-10-1.2-14.8-2.5c2.9-2.5,5.7-5.2,8.2-8.1c1.4,3.5,3.4,6.8,5.8,9.7
		C-2156.7-705.5-2156.5-705.2-2156.2-704.9z"/>
	<path class="st3" d="M-2105.1-716.6c-8.6,5.2-18.1,8.7-28,10.3c2.8-5.3,4.6-11.1,5.4-17.1c0.4-3.1,0.6-6.2,0.6-9.4
		c6.2,6.4,13.4,11.7,21.2,15.8C-2105.6-716.9-2105.3-716.7-2105.1-716.6z"/>
	<path class="st4" d="M-2164.7-732.3c-0.6,4.3-0.3,8.7,0.7,12.9c-0.3,0.1-0.6,0.3-0.9,0.5c-3.3,3.9-7,7.4-11.1,10.5
		c-0.1,0-0.2,0.1-0.2,0.2c-0.6,0.4-1.3,0.8-1.9,1.2c-3.8,1.8-7.9,3.2-12.1,4.1c-0.3,0-0.6,0.1-0.9,0.3c-0.4,0.1-0.8,0.3-1.2,0.4
		c-0.1-0.7-0.3-1.3-0.4-2c0-0.3,0-0.7-0.2-1c-1-4.5-1.5-9.1-1.6-13.7c0.1-0.3,0.1-0.5,0-0.8c0-2,0.2-3.9,0.5-5.9
		c1.8-7.8,5.9-15,11.8-20.5c0.3-0.3,0.4-0.6,0.5-1c10.5-2.6,19.7-9.1,25.6-18.2h0c-0.1,0.9,0.1,1.7,0.4,2.5
		c-0.1,0.1-0.2,0.3-0.3,0.4C-2160.9-752.9-2163.8-742.7-2164.7-732.3z"/>
	<path class="st4" d="M-2074.1-714.6c0-0.3-2.9,0.4-3.1,0.5c-1.8,0.4-3.7,0.6-5.5,0.6c-0.2,0-0.3,0-0.5,0c-6-0.3-11.8-1.9-17.1-4.7
		c-0.3-0.3-0.6-0.5-1-0.5c-1.6-0.8-3.2-1.7-4.7-2.6c-8.1-4.3-15.2-10.1-21.1-17.2c0,0-0.1-0.1-0.1-0.1c-0.3-5.9-1.2-11.7-1.9-17.5
		c6.3,2,13.1,2,19.4,0c1.5-0.5,2.9-1,4.3-1.6c8,4.9,14.8,11.6,19.9,19.5c2.5,4.1,4.8,8.3,6.7,12.7c0.7,1.6,1.4,3.2,2.1,4.8
		c0,0.2,0.1,0.3,0.2,0.5c0.4,0.8,0.7,1.7,1.1,2.5C-2074.9-716.8-2074.4-715.7-2074.1-714.6z"/>
	<path class="st4" d="M-2131-726c-0.5,5.6-2,11.1-4.4,16.2c-0.4,0.9-1.3,2.5-2.4,4.4c-0.4,0.2-0.7,0.7-0.7,1.2
		c-2,3.2-4.6,6.3-6.4,5.6c-1.7-0.7-4.2-4-5.4-5.3c-1.8-1.8-3.5-3.8-5-5.9c-3.4-4.3-5.5-9.5-5.9-15c0-6.3,0.8-12.5,2.3-18.6
		c1.1-5.3,3-10.5,5.5-15.4c0.2,0.3,0.4,0.6,0.7,0.8c2.3,2.5,5.5,4.2,8.9,4.5c4,1.2,8.2-0.9,9.5-4.9c0.5,0.2,1,0.5,1.5,0.7
		C-2131.1-747.3-2130.5-736.6-2131-726z"/>
	<path class="st4" d="M-2130.5-779.8c-1,2.6-3.8,6.1-6.8,4.9c-1.6-3.3-3.6-6.4-5.9-9.3c-1.3-3.4-3.4-6.3-6.1-8.7
		c6.4-2.5,14.5-3,18.3,3.9C-2129.5-786.2-2129.3-782.8-2130.5-779.8z"/>
	<path class="st4" d="M-2137.8-759.6c-1.5,4.1-8.1,2.5-10.9,0.4c-2-1.5-4.2-4.3-3-6.7c0.3-0.3,0.5-0.6,0.6-1
		c0.9-1.3,1.9-2.6,2.8-3.9c1.7-2.6,3.2-5.4,4.3-8.3c1.3,1.9,2.4,3.9,3.4,6c0,0.2,0.1,0.4,0.3,0.6c0.6,1.2,1.1,2.5,1.5,3.8
		C-2137.6-765.9-2137.2-762.7-2137.8-759.6z"/>
	<path class="st4" d="M-2146.8-783.1c-0.8,3.4-2.2,6.7-4.2,9.6c-0.9,1.5-2.3,3-3.4,4.6c-4.2,0.5-8.5-0.5-12.1-2.9
		c-3.9-2.8-7.6-10.5-5.1-15.2c2.8-4.6,8.1-7,13.3-6C-2152.9-791.9-2148.6-788.1-2146.8-783.1z"/>
	<path class="st4" d="M-2160.5-765.4c-5.4,7.5-13.3,12.8-22.3,15c-11.2,2.4-24,0.3-35-2.4c-1.3-0.2-2.6-0.6-3.8-1.1
		c-0.5-1,1.4-2.5,1.9-3c1.8-1.9,3.6-3.8,5.5-5.7c3.8-3.9,8-7.4,12.4-10.5c7.6-5.5,16.5-8.9,25.8-9.9c0.3,4.8,2.3,9.4,5.6,12.8
		C-2167.7-767.7-2164.2-766-2160.5-765.4z"/>
	<path class="st4" d="M-2173.2-791.1c-0.6,0.7-1.1,1.4-1.5,2.2c-0.3,0.6-0.6,1.3-0.8,2c-5.7,0.4-11.3,1.8-16.6,4
		c-12.7-8.6-23.8-19.3-32.9-31.7c-0.3-0.4-1.5-1.6-1.5-2.1c-0.1-1.5,1.5-1.6,2.4-1.8c1.4-0.2,2.8-0.2,4.2,0.1
		c0.3,0.1,0.6,0.2,0.9,0.2c0.8,0.1,1.5,0.3,2.2,0.4c4,0.7,7.8,1.9,11.7,3c6.3,1.7,14.7,2.9,19.9,7.3
		C-2182.5-801.2-2178.4-795.5-2173.2-791.1z"/>
	<path class="st4" d="M-2163.1-796.7c-2.7,0.4-5.2,1.5-7.3,3c-4.9-4.1-8.8-9.4-11.3-15.3c0-0.2-0.1-0.5-0.3-0.7
		c-2-4.9-3.1-10.2-3.3-15.5c-0.1-3.1,0.1-6.2,0.7-9.2c0.2-1,0.3-3.5,1-4.2c0.7-0.7,2.7,0.5,3.8,1.1c6,2.9,11.5,6.9,16.1,11.7
		C-2164.8-816-2164.5-806.3-2163.1-796.7z"/>
	<path class="st4" d="M-2131.8-808c0,0.2-0.1,0.3-0.1,0.5c-0.4,3.7-1,7.4-1.6,11.1c-6.2-2.4-13.1-2.1-19.1,0.8
		c-0.2,0.1-0.4,0.2-0.5,0.4c-1.5-0.7-3-1.2-4.7-1.5c-0.6-0.1-1.1-0.1-1.7-0.2c-2.7-16.6-1.4-33.6,3.7-49.6c0.8-2.6,1.7-5.1,2.7-7.6
		c0.4-1,1.1-3.6,2.1-4.2c1.5-0.9,2.6,0.5,3.4,1.5c0,0,0.1,0.1,0.1,0.1c0.1,0.1,0.2,0.2,0.3,0.3c7.6,7.5,12.8,17,15.1,27.4
		C-2130.9-822-2130.8-814.9-2131.8-808z"/>
	<path class="st4" d="M-2078.7-838.1c-3.7,18.1-13.4,34.4-27.5,46.2c-7.3-2.7-15.2-2.9-22.6-0.7c-0.4-0.5-0.8-1-1.3-1.5
		c0.1-0.2,0.1-0.3,0.1-0.5c0.7-4,1.3-8.1,1.8-12.3c6.5-8.2,13.3-17.5,22-23.3C-2098-835.5-2088.2-837.2-2078.7-838.1z"/>
	<path class="st4" d="M-2084.7-773.2c0,0.3-1.9,1.2-2.3,1.5c-7.8,4.4-15.6,9.6-24.3,12.2c-7.6,2.1-15.7,1.2-22.6-2.7
		c0-1-0.1-2-0.3-3c-0.3-1.8-0.8-3.6-1.5-5.4c6.6-0.2,10.7-10.8,9.1-16.7c-0.2-0.6-0.3-1.2-0.6-1.8c7.9-2.1,16.3-1.2,23.5,2.5
		c4.1,2.1,8,4.7,11.6,7.6c1.7,1.3,3.4,2.7,5.1,4.1C-2086.1-774.4-2085.4-773.9-2084.7-773.2z"/>
</g>
<g transform="translate(2661.226 1245.415)">
	<path class="st1" d="M-1491.8-859.8c-6.9-2.6-13.8-4.8-20.9-6.6c-10.2-3-20.5-5.9-30.8-8.5c-6.6-1.7-14-4.2-20.9-3.7
		c-9,0.7-10,10-12,17c-2.1,7.3-4.2,14.7-6.3,22c-9.8,34-20,67.9-29,102c-0.3,1.1-0.6,2.2-0.8,3.3c-0.4,2.5-2,6.2-0.1,8.5
		c1.2,1.1,2.8,1.9,4.4,2.2c3,1,6,1.9,9.1,2.8c9.5,2.8,19,5.6,28.5,8.4c9.3,2.7,18.5,5.4,27.9,7.9c4,1.1,13.5,5.1,17.3,1.9
		c2.1-1.8,2.7-6.6,3.4-9c2.1-7.1,4.1-14.3,6-21.5c5.3-19.6,10.4-39.3,15.3-59.1c3.7-14.6,7.3-29.3,10.9-44
		C-1488.3-842.8-1482.9-856.1-1491.8-859.8z M-1490.7-849.1c-1,6.5-2.5,12.9-4.4,19.2c-1.8,7.2-3.6,14.4-5.4,21.6
		c-4.7,18.8-9.5,37.6-14.4,56.4c-3.7,14.3-7.3,28.7-11.8,42.7c-0.3,1.4-0.8,2.7-1.4,4c-0.1-0.3-2.5,0.1-3.1,0.1
		c-0.5-0.1-1.1-0.2-1.6-0.3c-6.7-1.5-13.2-3.5-19.8-5.4c-17.3-4.9-34.6-9.9-51.7-15.2c-1.1-0.3-2.2-0.7-3.2-1
		c-0.6-0.1-1.2-0.3-1.8-0.6c-1.3-1.2,0-4.5,0.3-6.1v0c0-0.1,0.1-0.6,0.2-0.8c0.2-0.7,0.4-1.4,0.6-2.1c0.6-2.2,1.2-4.4,1.8-6.5
		c1.9-6.7,3.8-13.5,5.7-20.2c5.3-18.5,10.6-37.1,15.9-55.6c4.3-15,8.6-30,12.9-45c0.5-3.1,1.5-6,3-8.7c2.5-3.4,7.8-2.4,11.5-1.7
		c8.4,1.6,16.7,3.9,24.9,6.1c9.4,2.6,18.8,5.3,28.1,8.1c3.2,1,6.3,1.9,9.4,3c0.9,0.2,1.8,0.6,2.6,1
		C-1490.2-854.8-1490.4-851.5-1490.7-849.1L-1490.7-849.1z"/>
	<path class="st5" d="M-1492.5-856.2c-0.8-0.4-1.7-0.7-2.6-1c-3.1-1.1-6.3-2.1-9.4-3c-9.3-2.9-18.7-5.6-28.1-8.1
		c-8.2-2.2-16.5-4.6-24.9-6.1c-3.6-0.7-9-1.7-11.5,1.7c-1.4,2.7-2.4,5.7-3,8.7c-4.3,15-8.6,30-12.9,45
		c-5.3,18.5-10.6,37.1-15.9,55.6c-1.9,6.7-3.8,13.5-5.7,20.2c-0.6,2.2-1.2,4.4-1.8,6.5c-0.2,0.7-0.4,1.4-0.6,2.1
		c-0.1,0.2-0.2,0.8-0.2,0.8v0c-0.3,1.5-1.5,4.8-0.3,6.1c0.6,0.3,1.2,0.5,1.8,0.6c1.1,0.3,2.2,0.7,3.2,1
		c17.2,5.3,34.5,10.3,51.7,15.2c6.6,1.9,13.2,3.8,19.8,5.4c0.5,0.1,1.1,0.2,1.6,0.3c0.6,0.1,3-0.4,3.1-0.1c0.6-1.3,1.1-2.6,1.4-4
		c4.5-14.1,8-28.5,11.8-42.7c4.9-18.8,9.7-37.6,14.4-56.4c1.8-7.2,3.6-14.4,5.4-21.6c1.9-6.3,3.4-12.7,4.4-19.2
		C-1490.4-851.5-1490.2-854.7-1492.5-856.2z M-1500.3-832.4c-3,12.3-6,24.6-9,36.9c-4.3,17.3-8.7,34.7-13.3,51.9
		c-1.8,6.7-3.5,13.4-5.4,20c-0.6,3.4-1.7,6.7-3.1,9.8c-2.2,3.9-8.1,1.6-11.5,0.7c-7.6-2.1-15.2-4.3-22.7-6.6c-8.3-2.5-16.6-5-25-7.6
		c-2.7-0.8-5.3-1.6-8-2.5c-1.4-0.3-2.8-1-3.8-2c-1.7-2.1-0.3-5.3,0.1-7.7c0.2-1,0.4-1.9,0.7-2.9c7.7-29.5,16.2-58.8,24.5-88.1
		c1.9-6.8,3.8-13.6,5.7-20.4c1.3-4.7,2.2-12.9,6-16.2c4.8-4.2,13.3-1.2,18.6,0.1c8.8,2.1,17.5,4.6,26.1,7.2
		c6.4,1.6,12.7,3.6,18.8,6.1C-1494.1-850-1498.9-838.1-1500.3-832.4L-1500.3-832.4z"/>
	<path class="st1" d="M-1501.5-853.4c-6.1-2.5-12.4-4.5-18.8-6.1c-8.6-2.6-17.3-5.1-26.1-7.2c-5.3-1.3-13.8-4.3-18.6-0.1
		c-3.7,3.3-4.7,11.4-6,16.2c-1.9,6.8-3.8,13.6-5.7,20.4c-8.2,29.3-16.8,58.6-24.5,88.1c-0.2,1-0.5,1.9-0.7,2.9
		c-0.4,2.3-1.8,5.6-0.1,7.7c1,1,2.4,1.7,3.8,2c2.6,0.9,5.3,1.7,8,2.5c8.3,2.6,16.6,5.1,25,7.6c7.6,2.2,15.1,4.5,22.7,6.6
		c3.4,0.9,9.3,3.2,11.5-0.7c1.4-3.1,2.4-6.4,3.1-9.8c1.9-6.6,3.7-13.3,5.4-20c4.5-17.3,8.9-34.6,13.2-51.9c3.1-12.3,6-24.6,9-36.9
		C-1498.9-838.1-1494.1-850-1501.5-853.4z M-1501.4-843.9c-0.9,5.7-2.2,11.3-3.9,16.9c-1.5,6-2.9,12.1-4.4,18.1
		c-7.2,29.2-14.2,58.5-22.6,87.4c-0.5,1.7-1,3.4-1.5,5c-0.7,1.9-0.3,1.6-2.6,1.3c-4.5-0.9-9-2.1-13.4-3.6
		c-14.9-4.3-29.8-8.8-44.6-13.4c-1-0.3-2-0.6-3-0.9c-0.4-0.2-0.9-0.2-1.3-0.6c-0.9-1,0.1-3.7,0.4-5.1c0.1-0.2,0.1-0.5,0.2-0.7
		c0.1-0.6,0.3-1.1,0.4-1.7c0.5-1.8,1-3.7,1.5-5.5c1.6-5.7,3.1-11.4,4.7-17.1c4.4-15.9,8.8-31.8,13.3-47.6
		c3.8-13.6,7.6-27.1,11.4-40.7c0.6-2,1.1-4,1.7-6c0.3-1.4,0.7-2.8,1.3-4.2c1.5-2.3,4.3-3.5,7-2.8c6.6,0.9,13,2.5,19.3,4.5
		c8.1,2.2,16.2,4.6,24.2,7.1c2.8,0.9,5.7,1.8,8.5,2.8C-1501.4-849.5-1501-847.7-1501.4-843.9L-1501.4-843.9z"/>
	<path class="st6" d="M-1501.4-844c-0.9,5.7-2.2,11.3-3.9,16.9c-1.5,6-2.9,12.1-4.4,18.1c-7.2,29.2-14.2,58.5-22.6,87.4
		c-0.5,1.7-1,3.4-1.5,5c-0.7,1.9-0.3,1.6-2.6,1.3c-4.5-0.9-9-2.1-13.4-3.6c-14.9-4.3-29.8-8.8-44.6-13.4c-1-0.3-2-0.6-3-0.9
		c-0.4-0.2-0.9-0.2-1.3-0.6c-0.9-1,0.1-3.7,0.4-5.1c0.1-0.2,0.1-0.5,0.2-0.7c0.1-0.6,0.3-1.1,0.4-1.7c0.5-1.8,1-3.7,1.5-5.5
		c1.6-5.7,3.1-11.4,4.7-17.1c4.4-15.9,8.8-31.8,13.3-47.6c3.8-13.6,7.6-27.1,11.4-40.7c0.6-2,1.1-4,1.7-6c0.3-1.4,0.7-2.8,1.3-4.2
		c1.5-2.3,4.3-3.5,7-2.8c6.6,0.9,13,2.4,19.3,4.5c8.1,2.2,16.2,4.6,24.2,7.1c2.8,0.9,5.7,1.8,8.5,2.8
		C-1501.4-849.6-1501-847.8-1501.4-844z"/>
</g>
<g>
	<path class="st3" d="M110.9,208.7c-1-0.3-1.8-0.8-2.5-1.4c-0.6-0.6-0.9-1.4-0.8-2.3C108.7,206.2,109.8,207.5,110.9,208.7z"/>
	<path class="st3" d="M267.3,120.8c-0.1,1.2-0.7,2.3-1.7,3c-0.4-2.8-0.9-5.7-1.5-8.5C266.4,116,267.8,118.4,267.3,120.8z"/>
	<g transform="translate(2301.912 1199.599)">
		<path class="st1" d="M-2044.7-1080.1c-1.3-6.7-3.2-15.4-9.2-19.5c-0.1-0.1-0.3-0.2-0.4-0.2l0,0c-5.1-2.4-11.6-0.2-16.2,2.5
			c-6.4,3.8-12.5,8.1-18.7,12.2c-9.8,6.6-24.2,15.8-19.7,29.7c2,5.7,6.2,10.4,11.6,13.2c5.1,3.2,11.1,5,17.1,5.1
			c6.5-0.5,13-4.8,18.1-8.5c5.3-3.8,10-8.4,13.8-13.7C-2043.6-1065.9-2043.2-1072.4-2044.7-1080.1z M-2072.9-1091.6
			c4.7-3,11.2-7.5,17-5c2.4,1.9,4.2,4.5,5.1,7.4c-3.9-0.4-7.9-0.5-11.9-0.2c-4.4,0-8.8-0.1-13.2-0.3
			C-2074.8-1090.3-2073.8-1090.9-2072.9-1091.6L-2072.9-1091.6z M-2050-1063.3c-6,9.1-14.5,16.3-24.5,20.7c-6,2.7-11,1.6-16.9-0.8
			c-5.4-1.9-9.9-5.5-12.9-10.4c-5.1-9.4,1.5-17,8.8-22.6c0.1,0,0.2,0,0.3,0c5.6-0.6,11.3-0.5,16.9,0.3c10.1,1.7,20.4,2.8,30.7,3.2
			C-2047.4-1069.5-2048.2-1066.2-2050-1063.3L-2050-1063.3z M-2047.8-1076.5c-5.3-0.1-10.6-0.4-15.9-1c-4.9-0.5-9.6-1.6-14.4-2.3
			c-3.9-0.5-7.8-0.7-11.7-0.6c0.1,0,0.1-0.1,0.1-0.1c2.9-2,5.9-4,8.9-5.9c5.5,0.5,11,0.7,16.5,0.7c4.8,0,10.2-1,14.8,0.6
			c0.4,1.5,0.7,3,1,4.3C-2048.2-1079.3-2048-1077.9-2047.8-1076.5L-2047.8-1076.5z"/>
		<path class="st1" d="M-2144-1045.8c-7.7,1.4-15.2,3.9-22.1,7.4c-7.1,3.2-14,7-20.5,11.3c-4.7,3.1-10.7,7.8-11.1,13.9
			c-0.4,5.3,5.1,11.5,8.1,15.4c1.1,1.4,2.3,2.6,3.7,3.7c0.3,0.5,0.8,0.9,1.4,1c9.6,6.1,21.6,6.7,31.8,1.8
			c6.1-2.5,11.7-6.2,16.4-10.9c3.8-4.2,6.5-9.2,7.9-14.7C-2125.5-1028.2-2128.7-1047.2-2144-1045.8z M-2192.7-1008.5
			c-1.1-1.5-1.6-3.4-1.3-5.2c1.2-5.1,6.5-8.6,10.9-11.4C-2186.4-1019.6-2190-1014.2-2192.7-1008.5L-2192.7-1008.5z M-2186.6-999.6
			c-1.4-1.7-2.6-3.5-3.8-5.3c3.6-8.3,9.3-15.9,13.5-23.9c2.5-1.4,5-2.7,7.6-4c-3.8,6-7,12.4-9.4,19c-1.5,5.6-3.5,11-6,16.3
			C-2185.4-998.2-2186-998.9-2186.6-999.6L-2186.6-999.6z M-2132.3-1016.6c-1.4,4.6-3.9,8.9-7.1,12.5c-3.8,3.7-8.2,6.6-13.1,8.7
			c-8.8,4.5-20.8,5.4-29.2,0c2.4-4.7,4.3-9.7,5.6-14.9c3-8.6,7.1-16.8,12.3-24.3c0.2-0.3,0.3-0.7,0.3-1c6.4-3.1,13.1-5.3,20.1-6.6
			C-2130.6-1043.4-2129.7-1025.2-2132.3-1016.6L-2132.3-1016.6z"/>
		<path class="st1" d="M-2038.7-1088.5c-0.1,0-0.1,0-0.2,0c-0.2-1-0.5-2.1-0.7-3.1c-1.1-3.2-1-6.6,0.5-9.7c1.7-1.8,2.2-4.4,1.5-6.7
			c-1.2-3.7-3-7.2-5.5-10.2c-0.8-1.1-2.3-1.6-3.7-1.1c-0.2,0-0.3-0.1-0.5-0.1c-8,0-16.1,4-23.4,6.9c-8.4,3.4-16.4,7.6-24,12.4
			c-7.8,4.9-15.5,9.8-23.3,14.7c-7.6,4.4-14.9,9.4-21.7,14.9c-8.3,3.4-16.3,7.4-24,11.9c-10.3,6.1-20.6,12.3-30.6,18.8
			c-9.4,5.7-17.9,12.9-25.1,21.3c-1,1.2,0.4,3.8,0.6,4.3c1.6,3.9,3.8,7.5,6.5,10.7c1.2,1.2,2.9,1.8,4.6,1.6c1.8-0.2,3.7-0.1,5.4,0.5
			c1.9,0.9,3.6,2.1,5,3.6c-1.3,2.7-0.8,5.9,1.3,8c2.1,2.2,5.3,2.9,8.1,2c1.7,1.7,3.5,3.1,5.5,4.4c4.8,2.9,10.6,3.9,16.1,2.7
			c13-1.6,25-7.4,34.4-16.5c4.1-4.1,7.3-9,9.3-14.4c1.9-6.2,2.5-12.7,1.8-19.1c-0.1-3.3-1.1-9.2,1.5-11.8c1.1-1.1,2.4-2,3.9-2.7
			c3-0.8,5,1.5,7.1,3.1c5.1,4.6,10.8,8.5,16.9,11.6c12,4.9,26.3-2,35.6-9.4c9.2-7.3,19.7-18.3,19.7-30.8c0-0.4,0-0.9,0-1.3
			c2.8-1,4.7-3.5,5-6.5C-2030.2-1084-2033.9-1087-2038.7-1088.5z M-2116.4-1082.1c7.4-4.7,14.7-9.3,22.1-14c7-4.6,14.4-8.5,22-11.9
			c3.8-1.6,7.7-3,11.5-4.4c1.3-0.5,2.5-0.9,3.8-1.4c-5,2.9-10,5.9-14.9,8.9c-7.4,4.5-14.9,9.1-22,14.1c-2.5,1.8-5,3.7-7.3,5.8
			c-0.1,0-0.2,0-0.2,0c-8.4,3.1-16.9,6.1-25.3,9.3C-2123.3-1077.8-2119.8-1079.9-2116.4-1082.1L-2116.4-1082.1z M-2190.5-1037.9
			c10.1-6.4,20.3-12.7,30.7-18.7c6.8-3.9,13.9-7.4,21.2-10.4c0.4,0,0.8-0.2,1.1-0.4c9.8-4.1,19.9-7.6,29.9-11.2
			c-1.8,1.8-3.7,3.7-5.6,5.6c-7.1,6.8-15.3,12.5-24.2,16.7c-8.8,4.2-18.3,6.1-27.2,10.1c-9.6,4.3-19.4,8.6-28.6,13.6
			c-7.1,4-14,8.5-20.5,13.3C-2206.8-1026.6-2199-1032.8-2190.5-1037.9L-2190.5-1037.9z M-2193.5-992.4c-0.6-0.6-0.9-1.4-0.8-2.3
			c1.1,1.3,2.3,2.5,3.4,3.7C-2192-991.2-2192.8-991.7-2193.5-992.4L-2193.5-992.4z M-2043-1101.6c-0.9,2.2-1.1,4.6-0.8,6.9
			c0.6,6.4,3.2,12.5,3.9,18.9c1,6.7-0.7,13.5-4.6,19c-3.7,5.2-8.1,9.9-13.1,13.8c-10.5,8.5-25.2,14.6-37.5,6.4
			c-5.4-3.6-9.9-8.5-15.5-11.8c-4-2.4-8.9,0.7-11.8,3.8c-3.2,3.5-2.2,10-2,14.4c0.7,6.6-0.1,13.3-2.4,19.5
			c-5,11.3-16.2,19.6-27.6,23.7c-6.4,2.6-13.3,3.6-20.2,3.1c-7.3-1.2-12.6-7.8-17-13c-3.9-4.6-8.5-8.8-14.8-8.6
			c-3.5,0.1-4.4-1.3-6-4.2c-0.9-1.5-1.6-3-2.3-4.5c8.1-6,16.6-11.5,25.5-16.4c9.4-4.7,19-9.4,28.7-13.4c4.3-1.8,8.8-2.8,13.2-4.3
			c4.7-1.6,9.4-3.6,13.8-5.9c8.3-4.2,16-9.7,22.8-16.1c3.9-3.8,7.5-7.9,11.5-11.5c0.1-0.1,0.1-0.1,0.2-0.2c1.1-1,2.2-1.9,3.3-2.8
			c5.9-4.4,12-8.5,18.3-12.3c6-3.7,12-7.4,18-11c3-1.8,6.1-3.5,9.1-5.3c0.9-0.5,3.4-2.6,4.3-2.4c1.2,0.3,2.7,4.1,3.2,5.1
			c1.3,1.9,1.8,4.2,1.3,6.5C-2041.7-1103.4-2042.6-1102.5-2043-1101.6L-2043-1101.6z M-2034.7-1078.8c-0.1,1.2-0.7,2.3-1.7,3
			c-0.4-2.8-0.9-5.7-1.5-8.5C-2035.5-1083.6-2034.1-1081.2-2034.7-1078.8L-2034.7-1078.8z"/>
		<path class="st3" d="M-2057-1113.7c-5,2.9-10,5.9-14.9,8.9c-7.4,4.5-14.9,9.1-22,14.1c-2.5,1.8-5,3.7-7.3,5.8c-0.1,0-0.2,0-0.2,0
			c-8.4,3.1-16.9,6.1-25.3,9.3c3.4-2.2,6.8-4.3,10.2-6.5c7.4-4.7,14.7-9.3,22.1-14c7-4.6,14.4-8.5,22-11.9c3.8-1.6,7.7-3,11.5-4.4
			C-2059.5-1112.8-2058.3-1113.3-2057-1113.7z"/>
		<path class="st3" d="M-2107.6-1078.7c-1.8,1.8-3.7,3.7-5.6,5.6c-7.1,6.8-15.3,12.5-24.2,16.7c-8.8,4.2-18.3,6.1-27.2,10.1
			c-9.6,4.3-19.4,8.6-28.6,13.6c-7.1,4-14,8.5-20.5,13.3c6.9-7.1,14.7-13.3,23.2-18.4c10.1-6.4,20.3-12.7,30.7-18.7
			c6.8-3.9,13.9-7.4,21.2-10.4c0.4,0,0.8-0.2,1.1-0.4C-2127.7-1071.6-2117.6-1075.1-2107.6-1078.7z"/>
		<path class="st3" d="M-2042.8-1110.7c-0.5-1-2-4.8-3.2-5.1c-0.9-0.2-3.4,1.9-4.3,2.4c-3.1,1.7-6.1,3.5-9.1,5.3
			c-6.1,3.6-12.1,7.2-18,11c-6.3,3.8-12.4,7.9-18.3,12.3c-1.1,0.9-2.2,1.8-3.3,2.8c-0.1,0.1-0.1,0.1-0.2,0.2
			c-4,3.6-7.6,7.7-11.5,11.5c-6.8,6.4-14.4,11.9-22.8,16.1c-4.5,2.3-9.1,4.2-13.8,5.9c-4.4,1.5-8.9,2.5-13.2,4.3
			c-9.7,4-19.3,8.7-28.7,13.4c-8.9,4.9-17.4,10.3-25.5,16.4c0.8,1.5,1.5,3.1,2.3,4.5c1.7,2.9,2.6,4.4,6,4.2c6.3-0.3,10.9,4,14.8,8.6
			c4.4,5.2,9.8,11.9,17,13c6.9,0.5,13.8-0.5,20.2-3.1c11.4-4.1,22.7-12.4,27.6-23.7c2.3-6.2,3.2-12.9,2.4-19.5
			c-0.2-4.3-1.2-10.8,2-14.4c2.8-3.1,7.7-6.1,11.8-3.8c5.5,3.2,10.1,8.2,15.5,11.8c12.3,8.1,27,2.1,37.5-6.4c5-4,9.4-8.6,13.1-13.8
			c3.9-5.5,5.6-12.3,4.6-19c-0.7-6.4-3.2-12.5-3.9-18.9c-0.3-2.3,0-4.7,0.8-6.9c0.4-0.9,1.3-1.7,1.5-2.6
			C-2041-1106.5-2041.5-1108.8-2042.8-1110.7z M-2128.5-1016.8c-1.4,5.5-4.2,10.5-7.9,14.7c-4.7,4.7-10.2,8.4-16.4,10.9
			c-10.2,4.9-22.2,4.3-31.8-1.8c-0.6-0.1-1.1-0.5-1.4-1c-1.4-1.1-2.6-2.4-3.7-3.7c-3.1-3.9-8.5-10.1-8.1-15.4
			c0.5-6.1,6.5-10.8,11.1-13.9c6.5-4.3,13.4-8.1,20.5-11.3c7-3.5,14.5-6,22.1-7.4C-2128.7-1047.2-2125.5-1028.2-2128.5-1016.8
			L-2128.5-1016.8z M-2048.2-1059.3c-3.8,5.3-8.5,9.9-13.8,13.7c-5.1,3.7-11.6,8-18.1,8.5c-6.1-0.1-12-1.9-17.1-5.1
			c-5.4-2.8-9.5-7.5-11.6-13.2c-4.5-13.9,10-23.1,19.7-29.7c6.1-4.2,12.3-8.4,18.7-12.2c4.6-2.7,11.1-4.9,16.2-2.5l0,0
			c0.1,0.1,0.3,0.1,0.4,0.2c6,4.1,7.9,12.8,9.2,19.5C-2043.2-1072.4-2043.6-1065.9-2048.2-1059.3L-2048.2-1059.3z"/>
		<path class="st3" d="M-2047.8-1076.5c-5.3-0.1-10.6-0.4-15.9-1c-4.9-0.5-9.6-1.6-14.4-2.3c-3.9-0.5-7.8-0.7-11.7-0.6
			c0,0,0.1-0.1,0.1-0.1c2.9-2,5.9-4,8.9-5.9c5.5,0.5,11,0.7,16.5,0.7c4.8,0,10.2-1,14.8,0.6c0.4,1.5,0.7,3,1,4.3
			C-2048.2-1079.3-2048-1077.9-2047.8-1076.5z"/>
		<path class="st3" d="M-2169.3-1032.9c-3.8,6-7,12.4-9.4,19c-1.5,5.6-3.5,11-6,16.3c-0.7-0.6-1.3-1.3-1.9-2
			c-1.4-1.7-2.6-3.5-3.8-5.3c3.6-8.3,9.3-15.9,13.5-23.9C-2174.4-1030.3-2171.8-1031.6-2169.3-1032.9z"/>
	</g>
</g>
<g transform="translate(2619.49 1200.207)">
	<path class="st1" d="M-1579.3-1028c-12.3,3.8-23.1,11.3-31.1,21.4c-8.8,11.6-13.1,26.1-12.1,40.6c0.9,10.8,4.6,21.3,10.7,30.3
		c8.1,11.7,20.7,19.1,33.9,23.6c12.7,4.5,26.4,4.6,39.2,0.5c6.4-1.9,12.4-4.9,17.7-8.9c5-4.1,9.1-9.1,12.3-14.7
		c5.8-9.9,9.1-21.2,9.7-32.7c0.5-6.4-0.2-12.9-1.9-19.1c-2-5.9-4.9-11.5-8.6-16.5c-7.6-10.4-18-18.5-30-23.3
		C-1552.2-1031.8-1566.2-1032.3-1579.3-1028z M-1517.7-1007.9c8.5,8.4,13.7,19.6,14.9,31.4c0.6,10.7-1.1,21.5-5,31.5
		c-4.3,11.5-12.7,21-23.7,26.5c-11.6,5.8-24.8,7.6-37.5,5.2c-13.6-3.2-28.8-10.3-37.5-21.5c-7.1-9.2-11.4-20.3-12.4-31.9
		c-0.9-12.4,2.5-24.8,9.4-35.1c6.3-8.7,14.7-15.7,24.5-20.2C-1562.2-1033-1534.6-1026-1517.7-1007.9L-1517.7-1007.9z"/>
	<path class="st1" d="M-1472.5-1028.3c-9.1,3.5-17.8,7.8-26,12.9c-4.3-6.5-9.7-12.3-16-17c-12.1-8.5-26.2-13.7-40.9-15
		c-8.9-1-17.9-0.2-26.5,2.3c-8,2.5-15.4,6.5-21.9,11.9c-7,5.2-13.1,11.5-18,18.6c-4.7,7.4-7.8,15.7-9.3,24.4
		c-2.8,15-0.9,30.4,5.3,44.3c3.3,7,7.6,13.5,12.8,19.2c5.5,6.2,11.2,13.1,18.4,17.4c12.9,7.3,27.7,10.7,42.5,9.5
		c12.6-0.9,24.6-7.1,34.9-14.1c14.1-9.4,24.3-23.7,28.5-40.2c3.1-10.9,3.8-22.3,2.1-33.5c6.9-2,13.3-5.2,18.9-9.6
		c3-2.4,5.6-5.3,7.5-8.6c1.4-3.2,1.4-6.9,0-10.2c-1-3.8-2.5-7.4-4.5-10.7C-1466.8-1029.7-1469.3-1029.5-1472.5-1028.3z
		 M-1490.4-986.7c1.3,6.9,1.3,14,0.2,20.9c-1.1,7.9-3.2,15.6-6.3,22.9c-3.5,7.5-8.5,14.2-14.7,19.7c-10,9.2-22.1,15.8-35.4,19
		c-12.3,2.2-24.9,0.9-36.5-3.7c-4.5-1.5-8.8-3.7-12.7-6.5c-3.4-2.8-6.7-5.9-9.6-9.2c-5.9-5.8-11-12.4-15.2-19.6
		c-7.5-14.3-10-30.7-7-46.6c2.7-14.7,10.5-28,22.1-37.4c5.7-5.1,12.1-9.3,19-12.4c7.1-2.8,14.6-4.3,22.2-4.4
		c14.2-0.4,28.3,3.1,40.6,10.1c11.1,6.8,20.2,16.4,26.2,28c2.8,5.1,5,10.6,6.4,16.4C-1490.7-988.7-1490.6-987.8-1490.4-986.7
		L-1490.4-986.7z M-1463.8-1014.9c1.5,3.3,1,7.1-1.3,9.9c-1.9,2.5-4.2,4.7-6.8,6.6c-4.8,3.3-10,5.8-15.6,7.4c-0.5-2.3-1.2-4.5-2-6.6
		c0.1,0,0.2,0,0.2,0c6.4-2,12.6-4.9,18.2-8.6c2-1.2,0.5-4.5-1.5-3.3c-5.4,3.6-11.2,6.4-17.3,8.4c-0.3,0.1-0.6,0.2-0.8,0.5
		c-1.7-4-3.6-7.8-5.8-11.4c5.6-3.4,11.3-6.5,17.3-9.2c1.6-0.7,3.1-1.4,4.7-2c1-0.4,3.7-2.1,4.8-1.9
		C-1466.5-1024.8-1464.6-1017.6-1463.8-1014.9L-1463.8-1014.9z"/>
	<path class="st6" d="M-1463.8-1014.9c1.5,3.3,1,7.1-1.3,9.9c-1.9,2.5-4.2,4.7-6.8,6.6c-4.8,3.3-10,5.8-15.6,7.4
		c-0.5-2.3-1.2-4.5-2-6.6c0.1,0,0.2,0,0.2,0c6.4-2,12.6-4.9,18.2-8.6c2-1.2,0.5-4.5-1.5-3.3c-5.4,3.6-11.2,6.4-17.3,8.4
		c-0.3,0.1-0.6,0.2-0.8,0.5c-1.7-4-3.6-7.8-5.8-11.4c5.6-3.4,11.3-6.5,17.3-9.2c1.6-0.7,3.1-1.4,4.7-2c1-0.4,3.7-2.1,4.8-1.9
		C-1466.5-1024.8-1464.6-1017.6-1463.8-1014.9z"/>
	<path class="st6" d="M-1564.2-1044c-7.6,0.1-15.1,1.6-22.2,4.4c-6.9,3.1-13.4,7.3-19,12.4c-11.6,9.4-19.4,22.7-22.1,37.4
		c-3,15.9-0.5,32.3,7,46.6c4.2,7.2,9.3,13.8,15.2,19.6c2.9,3.3,6.2,6.4,9.6,9.2c3.9,2.8,8.2,5,12.7,6.5c11.6,4.6,24.2,5.9,36.5,3.7
		c13.2-3.2,25.4-9.7,35.4-19c6.1-5.5,11.1-12.2,14.7-19.7c3.1-7.3,5.3-15,6.3-22.9c1.1-6.9,1-14-0.2-20.9c-0.3-1.1-0.4-2-0.6-2.9
		c-1.4-5.7-3.5-11.2-6.4-16.4c-6-11.6-15.1-21.3-26.2-28C-1535.9-1040.9-1549.9-1044.4-1564.2-1044z M-1539.4-1026.8
		c12,4.8,22.4,12.9,30,23.3c3.7,5,6.6,10.6,8.6,16.5c1.7,6.2,2.4,12.6,1.9,19.1c-0.5,11.5-3.8,22.7-9.7,32.7
		c-3.2,5.6-7.3,10.6-12.3,14.7c-5.3,4-11.3,7-17.7,8.9c-12.8,4.2-26.5,4-39.2-0.5c-13.2-4.6-25.8-12-33.9-23.6
		c-6.1-9-9.8-19.4-10.7-30.3c-1-14.6,3.3-29,12.1-40.6c8-10.1,18.8-17.6,31.1-21.4C-1566.2-1032.3-1552.1-1031.8-1539.4-1026.8
		L-1539.4-1026.8z"/>
	<path class="st3" d="M-1517.7-1007.9c8.5,8.4,13.7,19.6,14.9,31.4c0.6,10.7-1.1,21.5-5,31.5c-4.3,11.5-12.7,21-23.7,26.5
		c-11.6,5.8-24.8,7.6-37.5,5.2c-13.6-3.2-28.8-10.3-37.5-21.5c-7.1-9.2-11.4-20.3-12.4-31.9c-0.9-12.4,2.5-24.8,9.4-35.1
		c6.3-8.7,14.7-15.7,24.5-20.2C-1562.2-1033-1534.6-1026-1517.7-1007.9z"/>
</g>
<g>
	<path class="st6" d="M650.4,472.6c-0.4-4.4,0.1-8.8-0.1-13.2c-0.3-4.4-0.8-8.7-1.1-13c-3.2-37-6.4-74-9.5-111
		c-3.1-37.5-6.2-74.9-9.1-112.4c-1.4-18.2-4-36.4-4.9-54.7c-0.3-6-1.2-12.5-1.1-18.6c-0.1-0.2-0.1-0.4-0.1-0.5
		c-0.4-4.6-2.3-7.1-7.1-7.3c-2.5-0.1-5.1,0.3-7.7,0.4c-5.6,0.1-11.2,0.4-16.9,0.7c-11.9,0.6-23.9,1.2-35.8,1.9
		c-23.7,1.3-47.5,2.2-71.2,3.9c-21.2,1.6-42.4,3.2-63.6,3.8c-20.5,0.6-41.5,0.3-61.8,3.3c-4.6,0.7-11,1.6-12.2,6.9
		c-0.5,4.4-0.5,8.8,0.2,13.1c0.4,10.1,1,20.2,2.2,30.3c2.4,21.2,4.2,42.4,5.8,63.7c3.2,43.2,6.7,86.3,10.4,129.5
		c1.8,21.4,3.7,42.8,5.5,64.1c0.4,4.5,0.9,9.1,1,13.6c-0.1,3.9,0.3,7.8,1,11.7c2.7,10.6,13.4,9.2,22.2,8l54.3,1.3l152.9-11.4
		c8.1-0.2,16.1-1.2,24-3c4-0.7,8.1-1.1,12.2-1.2c3.2,0,10,0.2,11.5-3.4C650.9,476.9,650.6,474.7,650.4,472.6z"/>
	<g transform="translate(2421.83 1196.696)">
		<path class="st6" d="M-1492.9-743.5c-1.1,1.6-3.5,1.7-5.3,2c-3.2,0.7-222.9,22.6-239.2,23.9c-4.1,0.3-8.1,0.6-12.2,0.8
			c-2.3,0.1-4.6,0.2-7,0.3c-2.5,0.4-5,0.4-7.5,0.1c-0.7-0.3-1.3-0.9-1.7-1.6c-0.7-2-1.1-4-1.1-6.1c-0.5-4,0-8-0.1-12
			c-0.5-16.6-2.8-33.3-4.3-49.8c-1.5-17.6-3-35.2-4.5-52.8c-2.9-34.6-6-69.2-8.7-103.9c-2.7-33.9-6.3-67.8-8-101.7
			c-0.6-3.3-0.4-6.8,0.8-9.9c2-3.4,7.2-4.2,10.7-4.8c7.6-1,15.3-1.7,22.9-1.9c17.3-1,34.6-1.2,51.8-1.9c17.2-0.7,34.2-2.1,51.4-3.4
			c17.2-1.2,34.4-2,51.6-2.9c17.6-0.9,35.1-1.8,52.7-2.8c8.2-0.4,16.4-0.9,24.5-1.5c2.5-0.2,5.1-0.6,6.8,1.5c1.3,1.5,1,2.6,1.2,4.5
			c0.4,3.7,1.2,7.5,1.8,11.2c5.2,34.1,8.2,68.5,11,102.8c2.8,34.2,5,68.5,7.1,102.8c1,17.3,2,34.5,2.8,51.8
			c0.9,16.8,2.8,33.8,2.6,50.6C-1492.3-746.6-1492.4-745-1492.9-743.5z"/>
		<path class="st2" d="M-2051.5-705.3c-5.2-1.7-5.3-18.6-5.7-22.1c-0.8-8-1.6-16-2.5-24.1c-1.6-16.2-3.3-32.3-4.9-48.5
			c-3.2-32.5-6.4-65-9.5-97.6c-2.9-30.6-4.5-61.2-6.3-91.8c-0.5-7.7-0.9-15.3-1.3-23c-0.3-5.3-1.8-9.6,3.4-11
			c0.1,2.4,0.3,4.8,0.4,7.2c1,23.2,4.3,46.3,6.2,69.4c3.9,46.9,7.2,93.9,11.2,140.9c2.2,26.1,4.4,52.3,6.7,78.4
			C-2053-720.7-2054-712.1-2051.5-705.3z"/>
		<path class="st2" d="M-1488-747.3c0-0.1,0-0.2,0-0.4c0-4.1-0.1-8.2-0.3-12.3c-0.8-18.1-2.2-36.1-3.1-54.2
			c-2-37.2-4.3-74.4-7-111.5c-2.7-37-5.7-73.9-10.3-110.7c-1.1-9-2.4-17.9-3.8-26.8c-0.1-0.8-0.2-1.7-0.3-2.6
			c5.9,0.4,6,18.6,6.3,22.2c0.8,8,1.6,16,2.5,24.1c1.6,16.2,3.3,32.4,4.9,48.5c3.2,32.5,6.4,65,9.5,97.6c2.9,30.6,4.5,61.2,6.3,91.9
			c0.5,7.7,0.9,15.3,1.3,23c0.1,2.3,0.2,4.7,0.3,7C-1481.7-748.6-1484.8-747.7-1488-747.3z"/>
		<path class="st1" d="M-1814.2-942l-191.2,11.4c-2.9,0.2-3.6-4.3-0.7-4.5c63.7-3.8,127.4-7.6,191.1-11.4
			C-1812-946.6-1811.3-942.2-1814.2-942z"/>
		<path class="st1" d="M-1811-906.8l-191.1,11.4c-2.9,0.2-3.6-4.3-0.7-4.5l191.1-11.3C-1808.8-911.4-1808.1-907-1811-906.8z"/>
		<path class="st1" d="M-1532.4-957.6c-63.7,3.7-127.4,7.4-191.2,11.1c-2.9,0.1-3.6-4.3-0.7-4.5l191.2-11.1
			C-1530.2-962.2-1529.5-957.8-1532.4-957.6z"/>
		<path class="st1" d="M-1529.2-922.4l-191.2,11.1c-2.9,0.2-3.6-4.3-0.7-4.5c63.7-3.7,127.5-7.4,191.2-11.1
			C-1527-927-1526.4-922.6-1529.2-922.4z"/>
		<path class="st1" d="M-1807.9-867.7c-63.7,3.8-127.4,7.6-191.2,11.4c-2.9,0.2-3.6-4.3-0.7-4.5l191.1-11.3
			C-1805.7-872.3-1805-867.8-1807.9-867.7z"/>
		<path class="st1" d="M-1804.8-828.5c-63.7,3.8-127.4,7.6-191.1,11.4c-2.9,0.2-3.6-4.3-0.7-4.5l191.1-11.3
			C-1802.6-833.2-1801.9-828.7-1804.8-828.5z"/>
		<path class="st1" d="M-2017-940.8c-0.5-5.7,0.1-13.4-7.5-12.9c-5.8,0.7-11.5,1.8-17.3,2.7c-1,0.2-1.8,1-1.9,2
			c-0.1,4.1,0.1,8.1,0.5,12.2c0.3,2.9,0.1,7.5,2.4,9.6c1.8,1.6,4.7,1,6.8,0.8c4.3-0.1,8.7-0.6,12.9-1.4
			C-2014.5-929.4-2016.5-935.6-2017-940.8z M-2023.2-932c-1.9,0.4-3.8,0.6-5.7,0.7c-1.9,0.2-3.8,0.5-5.7,0.5c-1,0.2-2.1,0.1-3.2-0.1
			c-0.2-1.1-0.4-2.2-0.5-3.3c-0.6-4.2-0.9-8.4-0.9-12.6c5.1-0.9,10.2-1.8,15.4-2.4c2.7-0.2,2.5,10.6,2.6,12.5
			c0.1,1.1,0.2,2.3,0.3,3.4c-0.1,1-1,1.6-2,1.5h0C-2022.9-931.9-2023.1-932-2023.2-932L-2023.2-932z"/>
		<path class="st1" d="M-1735.7-957.1c-0.5-5.7,0.2-13.4-7.4-12.9c-5.8,0.7-11.6,1.8-17.3,2.7c-1,0.2-1.8,1-1.9,2
			c-0.1,4.1,0.1,8.1,0.5,12.2c0.3,2.9,0.1,7.5,2.4,9.6c1.8,1.6,4.7,1,6.8,0.8c4.4-0.1,8.7-0.6,13-1.4
			C-1733.2-945.6-1735.2-951.9-1735.7-957.1z M-1741.9-948.3c-1.9,0.4-3.8,0.7-5.7,0.7c-1.9,0.2-3.8,0.4-5.7,0.5
			c-1.1,0.2-2.1,0.1-3.2-0.1c-0.2-1.1-0.4-2.2-0.5-3.2c-0.6-4.2-0.9-8.4-0.9-12.6c5.1-0.9,10.2-1.8,15.4-2.4
			c2.7-0.2,2.5,10.6,2.6,12.5c0.1,1.1,0.2,2.3,0.3,3.4c-0.1,1-1,1.6-2,1.5C-1741.7-948.3-1741.8-948.3-1741.9-948.3z"/>
		<path class="st1" d="M-1733.6-921.5c-0.5-5.7,0.2-13.4-7.4-12.9c-5.8,0.7-11.6,1.8-17.3,2.7c-1,0.2-1.8,1-1.9,2
			c-0.1,4.1,0.1,8.1,0.5,12.2c0.3,2.9,0.1,7.5,2.5,9.7c1.8,1.6,4.7,1,6.8,0.8c4.3-0.1,8.7-0.6,13-1.4
			C-1731.1-910-1733.1-916.3-1733.6-921.5z M-1739.8-912.7c-1.9,0.4-3.8,0.6-5.7,0.7c-1.9,0.2-3.8,0.4-5.7,0.5
			c-1.1,0.2-2.2,0.1-3.2-0.1c-0.2-1.1-0.4-2.2-0.5-3.3c-0.6-4.2-0.9-8.4-0.9-12.6c5.1-0.9,10.3-1.8,15.4-2.4
			c2.7-0.2,2.5,10.6,2.6,12.5c0.1,1.1,0.2,2.3,0.3,3.4c-0.1,1-1,1.6-2,1.5C-1739.5-912.6-1739.7-912.6-1739.8-912.7L-1739.8-912.7z"
			/>
		<path class="st1" d="M-2013.6-904.6c-0.5-5.7,0.1-13.4-7.5-12.9c-5.8,0.7-11.5,1.8-17.3,2.7c-1,0.2-1.8,1-1.9,2
			c-0.1,4.1,0.1,8.1,0.5,12.2c0.3,2.9,0.1,7.5,2.5,9.6c1.8,1.6,4.7,1,6.8,0.8c4.3-0.1,8.7-0.6,12.9-1.4
			C-2011.1-893.1-2013.1-899.4-2013.6-904.6z M-2019.8-895.8c-1.9,0.4-3.8,0.6-5.7,0.7c-1.9,0.2-3.8,0.5-5.7,0.5
			c-1,0.2-2.1,0.1-3.2-0.1c-0.2-1.1-0.4-2.2-0.5-3.3c-0.6-4.2-0.9-8.4-0.9-12.6c5.1-0.9,10.2-1.8,15.4-2.4
			c2.7-0.2,2.5,10.6,2.6,12.5c0.1,1.1,0.2,2.3,0.3,3.4c-0.1,1-1,1.6-2,1.5C-2019.5-895.7-2019.7-895.8-2019.8-895.8L-2019.8-895.8z"
			/>
		<path class="st1" d="M-2010.1-867.2c-0.5-5.7,0.2-13.4-7.5-12.9c-5.8,0.7-11.6,1.8-17.3,2.7c-1,0.2-1.8,1-1.9,2
			c-0.1,4.1,0.1,8.1,0.5,12.2c0.3,2.9,0.1,7.5,2.5,9.7c1.8,1.6,4.7,1,6.8,0.8c4.3-0.1,8.7-0.6,12.9-1.4
			C-2007.6-855.8-2009.7-862-2010.1-867.2z M-2016.3-858.4c-1.9,0.4-3.8,0.6-5.7,0.7c-1.9,0.2-3.8,0.4-5.7,0.5
			c-1.1,0.2-2.2,0.1-3.2-0.1c-0.2-1.1-0.4-2.2-0.5-3.2c-0.6-4.2-0.9-8.4-0.9-12.6c5.1-0.9,10.2-1.8,15.4-2.4
			c2.7-0.2,2.5,10.6,2.7,12.4c0.1,1.1,0.2,2.3,0.3,3.4c-0.1,1-1,1.6-2,1.5C-2016.1-858.3-2016.2-858.4-2016.3-858.4L-2016.3-858.4z"
			/>
		<path class="st2" d="M-2051.5-705.3c-5.2-1.7-5.3-18.6-5.7-22.1c-0.8-8-1.6-16-2.5-24.1c-1.6-16.2-3.3-32.3-4.9-48.5
			c-3.2-32.5-6.4-65-9.5-97.6c-2.9-30.6-4.5-61.2-6.3-91.8c-0.5-7.7-0.9-15.3-1.3-23c-0.3-5.3-1.8-9.6,3.4-11
			c0.1,2.4,0.3,4.8,0.4,7.2c1,23.2,4.3,46.3,6.2,69.4c3.9,46.9,7.2,93.9,11.2,140.9c2.2,26.1,4.4,52.3,6.7,78.4
			C-2053-720.7-2054-712.1-2051.5-705.3z"/>
		<path class="st1" d="M-1799.2-790.6l-191.2,11.4c-2.9,0.2-3.6-4.3-0.7-4.5c63.7-3.8,127.4-7.6,191.1-11.4
			C-1797-795.2-1796.3-790.8-1799.2-790.6z"/>
		<path class="st1" d="M-1796-755.4c-63.7,3.8-127.4,7.6-191.1,11.4c-2.9,0.1-3.6-4.3-0.7-4.5l191.1-11.3
			C-1793.8-760-1793.1-755.6-1796-755.4z"/>
		<path class="st1" d="M-2002-789.4c-0.5-5.7,0.1-13.4-7.5-12.9c-5.8,0.7-11.5,1.8-17.3,2.7c-1,0.2-1.8,1-1.9,2
			c-0.1,4.1,0.1,8.1,0.5,12.2c0.3,2.9,0.1,7.5,2.5,9.6c1.8,1.6,4.7,1,6.8,0.8c4.3-0.1,8.7-0.6,12.9-1.4
			C-1999.4-778-2001.5-784.2-2002-789.4z M-2008.2-780.6c-1.9,0.4-3.8,0.6-5.7,0.7c-1.9,0.2-3.8,0.5-5.7,0.5
			c-1.1,0.2-2.1,0.1-3.2-0.1c-0.2-1.1-0.4-2.2-0.5-3.3c-0.6-4.2-0.9-8.4-0.9-12.6c5.1-0.9,10.2-1.8,15.4-2.4
			c2.7-0.2,2.5,10.6,2.6,12.5c0.1,1.1,0.2,2.3,0.3,3.4c-0.1,1-1,1.6-2,1.5C-2007.9-780.5-2008-780.6-2008.2-780.6L-2008.2-780.6z"/>
		<path class="st1" d="M-1998.6-753.2c-0.5-5.7,0.1-13.4-7.5-12.9c-5.8,0.7-11.5,1.8-17.3,2.7c-1,0.2-1.8,1-1.9,2
			c-0.1,4.1,0.1,8.1,0.5,12.2c0.3,2.9,0.1,7.5,2.4,9.6c1.8,1.6,4.7,1,6.8,0.8c4.3-0.1,8.7-0.6,12.9-1.4
			C-1996.1-741.7-1998.1-748-1998.6-753.2z M-2004.8-744.4c-1.9,0.4-3.8,0.6-5.7,0.7c-1.9,0.2-3.8,0.5-5.7,0.5
			c-1.1,0.2-2.1,0.1-3.2-0.1c-0.2-1.1-0.4-2.2-0.5-3.3c-0.6-4.2-0.9-8.4-0.9-12.6c5.1-0.9,10.2-1.8,15.4-2.4
			c2.7-0.2,2.5,10.6,2.6,12.5c0.1,1.1,0.2,2.3,0.3,3.4c-0.1,1-1,1.6-2,1.5C-2004.5-744.3-2004.7-744.3-2004.8-744.4L-2004.8-744.4z"
			/>
		<path class="st1" d="M-2006-828c-0.5-5.7,0.2-13.4-7.5-12.9c-5.8,0.7-11.5,1.8-17.3,2.7c-1,0.2-1.8,1-1.9,2
			c-0.1,4.1,0.1,8.1,0.6,12.2c0.3,2.9,0.1,7.5,2.5,9.6c1.8,1.6,4.7,1,6.8,0.8c4.3-0.1,8.7-0.6,12.9-1.4
			C-2003.5-816.5-2005.5-822.7-2006-828z M-2012.2-819.1c-1.9,0.4-3.8,0.6-5.7,0.7c-1.9,0.2-3.8,0.4-5.7,0.5
			c-1.1,0.2-2.1,0.1-3.2-0.1c-0.2-1.1-0.4-2.2-0.6-3.2c-0.6-4.2-0.9-8.4-0.9-12.6c5.1-0.9,10.2-1.8,15.4-2.4
			c2.7-0.2,2.5,10.6,2.6,12.4c0.1,1.1,0.2,2.3,0.3,3.4c-0.1,1-1,1.6-2,1.5C-2012-819.1-2012.1-819.1-2012.2-819.1L-2012.2-819.1z"/>
	</g>
	<path class="st1" d="M944.4,443.6c-0.2-5.9-0.5-11.7-0.9-17.6c-1-18.7-2.2-37.3-3.4-56c-3.2-49-8.3-97.8-13.2-146.7
		c-2-19.9-4-39.8-6-59.7c-0.9-9.2-1.2-18.8-3-27.8c-1-4.9-4.5-9.6-9.5-9.4c-0.2-3-2-5.7-4.8-6.9c-2.9-0.9-6-1-9-0.5
		c-4.7,0.4-9.3,0.7-13.9,0.9c-9.3,0.5-18.5,0.9-27.8,1.4c-37.1,2-74.2,3.9-111.2,6.6c-18.8,1.3-37.6,1.9-56.5,2.5
		c-9.1,0.3-18.2,0.7-27.2,1.3c-7.6,0.1-15.1,1-22.5,2.7c-3.9,0.8-7.3,3.2-9.4,6.5c-0.5-0.6-1.1-1.2-1.8-1.7c-3.5-2.6-7.9-1.8-12-1.5
		c-10.9,0.6-21.8,0.8-32.7,1.4c-23.5,1.2-47,2.5-70.5,3.7c-23.4,1.1-46.7,3.5-70.1,4.6c-23.1,1.1-46.2,1.1-69.2,3
		c-7.3,0.6-18,0.4-23.5,6.2c-2.1,2.5-3.1,5.7-2.9,9c0,1.1,0,2.2,0,3.3c-3.8,0.6-7.5,2.1-8,6.4c-0.1,1.2,0,2.4,0.1,3.7
		c0.2,5.9,0.5,11.7,0.9,17.6c1,18.7,2.2,37.3,3.4,56c3.2,49,8.3,97.9,13.2,146.7c2,19.9,4,39.8,6,59.7c0.9,9.2,1.2,18.8,3,27.8
		c1.1,5.4,5.1,10.4,10.7,9.2c5.1,6.6,13,6.5,20.6,5.6c1-0.1,2-0.2,3-0.3c11.8-0.5,23.1-0.7,34.9-1c21.3-0.6,42.4-2.2,63.7-3.8
		c23.7-1.7,47.5-2.6,71.2-3.9c11.5-0.6,36.5-1.5,40.5-1.7h0.1h0.2l0,0c9.8-0.4,19.2-3.1,29-3.9c5.3-0.4,13.6,0,17.8-3.7
		c0.7,0.6,1.5,1.1,2.3,1.3c3.6,0.5,7.2,0.6,10.8,0.1c4.9-0.2,9.9-0.4,14.8-0.8c9.1-0.7,18.1-1.7,27.1-2.7c7.2-0.8,14.3-1.6,21.5-2.3
		c0,0,0.7-0.1,1.1-0.1c21.2-1.6,42.3-4.1,63.4-6.6c23.6-2.8,47.3-4.7,71-7l35.7-3.4c5.2-0.5,10.4-1,15.6-1.3c0,0,4.8-0.3,7.2-0.8
		c2.7-0.6,6.2-0.9,8-3.3c0.5-0.7,0.9-1.5,1.1-2.4c4.7-0.5,10.5-1.3,11.1-6.7C944.6,446,944.5,444.8,944.4,443.6z M364.7,469.3
		c-0.8-8-1.6-16-2.5-24.1c-1.6-16.2-3.3-32.3-4.9-48.5c-3.2-32.5-6.4-65-9.5-97.6c-2.9-30.6-4.5-61.2-6.3-91.8
		c-0.4-7.7-0.9-15.3-1.3-23c-0.3-5.3-1.8-9.6,3.4-11c0.1,2.4,0.3,4.8,0.4,7.2c1,23.2,4.3,46.3,6.2,69.4
		c3.9,46.9,7.2,93.9,11.2,140.9c2.2,26.1,4.4,52.3,6.7,78.4c0.6,6.8-0.4,15.4,2.1,22.2C365.1,489.7,365,472.8,364.7,469.3
		L364.7,469.3z M639.8,482.3c-4.1,0.1-8.2,0.5-12.2,1.2c-6,1-12,2.3-18,2.7c-8.1,0.3-12.6,0.2-20.8,0.7c-23.5,1.2-47,2.5-70.5,3.6
		c-23.4,1.1-46.7,3.5-70,4.6c-14.9,0.7-42.1,1.3-50.3,1.5c-1.5,0-3,0.1-4.6,0.3c-8.1,0.9-16.7,1-19.1-8.4c-0.8-3.8-1.1-7.8-1-11.7
		c-0.2-4.5-0.6-9.1-1-13.6c-1.9-21.4-3.7-42.8-5.5-64.1c-3.7-43.1-7.1-86.3-10.4-129.5c-1.6-21.2-3.3-42.5-5.8-63.6
		c-1.2-10.1-1.8-20.2-2.2-30.3c-0.6-4.3-0.7-8.7-0.2-13.1c1.3-5.2,7.7-6.2,12.2-6.9c20.3-3,41.3-2.7,61.8-3.3
		c21.3-0.6,42.4-2.3,63.7-3.8c23.7-1.7,47.5-2.7,71.2-3.9c11.9-0.6,23.8-1.3,35.8-1.9c5.6-0.3,11.2-0.6,16.9-0.7
		c2.6,0,5.2-0.4,7.7-0.4c4.8,0.2,6.7,2.7,7.1,7.3c0,0.2,0.1,0.4,0.1,0.5c-0.1,6.2,0.8,12.6,1.1,18.6c0.9,18.3,3.5,36.5,4.9,54.7
		c2.9,37.5,5.9,75,9.1,112.4c3.1,37,6.3,74,9.5,111c0.4,4.3,0.9,8.7,1.1,13c0.3,4.4-0.3,8.8,0.1,13.2c0.1,2.2,0.5,4.3,1,6.4
		C649.8,482.6,643.1,482.3,639.8,482.3L639.8,482.3z M928.9,453.2c-1.1,1.6-3.5,1.7-5.3,2c-1.1,0.2-2.1,0.4-3.2,0.6
		c-10.7,1-21.6,1.7-32.3,2.8c-23.4,2.2-46.8,4.5-70.3,6.7c-23.3,2.2-46.5,5.5-69.8,7.7c-7.1,0.6-21.3,1.8-21.3,1.8
		c-14.1,1.5-28.2,3.2-42.3,4.4c-4.1,0.3-8.1,0.6-12.2,0.8c-2.3,0.1-4.6,0.2-7,0.3c-2.5,0.4-5,0.4-7.5,0.1c-0.7-0.3-1.3-0.9-1.7-1.6
		c-0.7-2-1.1-4-1.1-6.1c-0.4-4,0-8-0.1-12c-0.5-16.6-2.8-33.3-4.3-49.8c-1.5-17.6-3-35.2-4.5-52.8c-2.9-34.6-6-69.3-8.7-103.9
		c-2.6-33.9-6.3-67.8-8-101.7c-0.6-3.3-0.4-6.8,0.8-9.9c2-3.4,7.2-4.2,10.7-4.8c7.6-1,15.3-1.7,22.9-1.9c17.3-1,34.6-1.2,51.8-1.9
		c17.2-0.7,34.2-2.1,51.4-3.4c17.2-1.3,34.4-2,51.6-2.9c17.6-0.9,35.1-1.8,52.7-2.8c8.2-0.4,16.4-0.9,24.5-1.5
		c2.5-0.2,5.1-0.6,6.8,1.5c1.3,1.5,1,2.6,1.2,4.5c0.4,3.7,1.2,7.5,1.8,11.2c5.2,34.1,8.2,68.5,11,102.8c2.8,34.2,5,68.5,7.1,102.8
		c1,17.3,2,34.5,2.8,51.8c0.9,16.8,2.8,33.8,2.6,50.6C929.6,450.1,929.4,451.7,928.9,453.2L928.9,453.2z M933.8,449.4
		c0-0.1,0-0.2,0-0.4c0-4.1-0.1-8.2-0.3-12.3c-0.8-18.1-2.2-36.1-3.1-54.2c-2-37.2-4.3-74.4-7-111.5c-2.7-37-5.7-73.9-10.3-110.7
		c-1.1-9-2.4-17.9-3.8-26.8c-0.1-0.8-0.2-1.7-0.3-2.6c5.9,0.4,6,18.6,6.3,22.2c0.8,8,1.6,16,2.5,24.1c1.6,16.2,3.3,32.4,4.9,48.5
		c3.3,32.5,6.4,65,9.5,97.6c2.9,30.6,4.5,61.2,6.3,91.9c0.5,7.7,0.9,15.3,1.3,23c0.1,2.3,0.2,4.7,0.3,7
		C940.1,448.1,937.1,449,933.8,449.4L933.8,449.4z"/>
	<g transform="translate(2435.959 1206.789)">
		<path class="st1" d="M-2009.2-992.8c0,0.4,0,0.7-0.2,1.1c-0.1,0.3-0.3,0.6-0.5,0.9c-0.2,0.3-0.5,0.5-0.9,0.7
			c-0.4,0.2-0.7,0.3-1.1,0.3c-0.4,0-0.8-0.1-1.1-0.3c-0.4-0.2-0.8-0.5-1.1-0.9c-0.4-0.4-0.7-0.8-1.1-1.2c-0.3-0.4-0.6-0.9-0.9-1.4
			c-0.3-0.5-0.5-0.9-0.7-1.3c-0.2-0.4-0.4-0.8-0.5-1.1c-0.2-0.4-0.4-0.8-0.6-1.1c-0.2-0.4-0.4-0.9-0.6-1.3l-0.3-0.7
			c-0.1-0.1-0.1-0.3-0.2-0.4c0-0.1-0.1-0.1-0.1-0.2c0-0.1-0.1-0.2-0.1-0.2c-0.3,0.2-0.6,0.3-1,0.3c-0.3,0-0.7,0.1-1.1,0.1
			c-0.1,0-0.3,0.1-0.4,0.1l-0.6,0.2l-0.7,0.3c-0.2,0.1-0.5,0.2-0.7,0.3c-0.7,0.2-1.5,0.5-2.3,0.7c-0.8,0.2-1.7,0.4-2.6,0.6l-2.8,0.6
			c-0.9,0.2-1.9,0.4-2.8,0.7c-0.1,0-0.2,0.1-0.3,0.1c-0.1,0.1-0.2,0.2-0.3,0.4c-0.1,0.2-0.3,0.5-0.6,0.9l-1.1,1.7
			c-0.5,0.9-1,1.6-1.5,2.2c-0.4,0.6-0.9,1.1-1.3,1.6c-0.4,0.4-0.8,0.8-1.3,1.1c-0.5,0.2-1,0.4-1.5,0.4c-0.6,0-1.3,0-1.9-0.1
			c-0.5-0.1-1-0.3-1.4-0.6c-0.3-0.2-0.6-0.5-0.9-0.8c-0.2-0.3-0.3-0.5-0.3-0.9c-0.1-0.5,0.2-0.9,0.6-1.1c0.6-0.3,1.1-0.5,1.8-0.6
			c0.1-0.1,0.1-0.2,0.2-0.4c0.2-0.2,0.3-0.5,0.5-0.8l0.6-0.8c0.2-0.3,0.3-0.5,0.4-0.6c0.5-0.8,1.1-1.7,1.7-2.6
			c0.6-0.9,1.2-2,1.9-3.2v0c0.4-0.6,0.7-1.1,0.9-1.5s0.4-0.8,0.6-1.1c0.2-0.3,0.4-0.7,0.7-1.1l0.8-1.3c0.9-1.4,1.6-2.5,2.2-3.5
			c0.6-0.9,1.2-1.7,1.6-2.4c0.5-0.9,1-1.7,1.4-2.5c0.2-0.3,0.4-0.7,0.5-1.1c0.2-0.4,0.4-0.7,0.5-1c0.2-0.3,0.3-0.6,0.4-0.9
			c0.1-0.2,0.2-0.5,0.3-0.7c1.5-4.5,2.9-6.7,4.2-6.8c0.5,0,0.9,0,1.4,0c0.3,0,0.6,0.2,0.8,0.4c0.2,0.2,0.4,0.5,0.4,0.8
			c0.1,0.4,0.2,0.8,0.2,1.2l0.1,1.1c0,0.3,0,0.5,0,0.7c0,0.2,0,0.4,0,0.6c0,0.2,0,0.5,0,0.8c0.4,0.7,0.8,1.5,1.2,2.3
			c0.4,0.8,0.8,1.6,1.1,2.3c0.1,0.2,0.2,0.5,0.5,1.1c0.2,0.6,0.5,1.2,0.8,2l1,2.4c0.4,0.9,0.7,1.7,1,2.4c0.3,0.7,0.6,1.4,0.8,1.9
			c0.2,0.5,0.4,0.9,0.4,1c0.5,1.4,1.1,2.8,1.9,4.1c0.1,0.2,0.2,0.4,0.4,0.6c0.1,0.2,0.2,0.4,0.3,0.5c0.1,0.2,0.3,0.4,0.5,0.7
			c0.2,0.2,0.5,0.6,0.8,0.9C-2010.1-995-2009.5-994-2009.2-992.8z M-2024.9-1003.3c0.7-0.2,1.3-0.4,2-0.6c0.7-0.2,1.3-0.4,1.9-0.7
			c-0.3-0.7-0.6-1.5-0.9-2.3c-0.3-0.8-0.6-1.6-0.9-2.3c-0.3-0.8-0.7-1.5-1-2.2c-0.3-0.7-0.6-1.3-1-2c-1.2,1.8-2.3,3.7-3.5,5.7
			c-1.2,2-2.3,4-3.3,6.1c0.4-0.1,0.9-0.1,1.4-0.2c0.4,0,0.8-0.1,1.2-0.2c0.4-0.1,0.8-0.3,1.1-0.4c0.3-0.1,0.6-0.2,1-0.3l1-0.3
			C-2025.7-1003-2025.3-1003.1-2024.9-1003.3L-2024.9-1003.3z"/>
		<path class="st1" d="M-1989.3-1009.1c-0.1,1-0.1,2.1-0.1,3.3c0,1.2,0,2.5,0,4c0,0.5,0,1.2-0.1,1.9c0,0.7-0.1,1.4-0.1,2.2
			s-0.1,1.5-0.1,2.2c0,0.7-0.1,1.4-0.2,1.9c-0.1,0.9-0.2,1.8-0.4,2.8c-0.2,1-0.4,2-0.7,2.9c-0.3,1-0.6,1.9-1.1,2.8
			c-0.4,0.9-0.9,1.7-1.6,2.4c-0.6,0.7-1.4,1.3-2.2,1.7c-0.9,0.5-2,0.7-3,0.8c-0.7,0-1.4,0-2.2-0.1c-0.7-0.1-1.5-0.3-2.2-0.6
			c-0.7-0.2-1.4-0.5-2-0.9c-0.6-0.3-1.2-0.7-1.8-1.1c-1.1-0.8-2.1-1.8-2.9-2.9c-0.2-0.3-0.3-0.5-0.5-0.8c-0.1-0.2-0.2-0.5-0.2-0.8
			c0-0.3,0.1-0.6,0.3-0.8c0.2-0.2,0.4-0.4,0.7-0.4c0.2,0,0.4,0.1,0.5,0.1c0.2,0.1,0.4,0.2,0.6,0.4c0.2,0.1,0.4,0.3,0.5,0.4
			c0.1,0.1,0.2,0.2,0.3,0.2c1.2,1.1,2.7,1.9,4.2,2.5c1.4,0.5,2.9,0.7,4.3,0.6c0.8,0,1.6-0.4,2.1-1c0.6-0.6,1-1.4,1.3-2.2
			c0.3-0.9,0.6-1.9,0.7-2.8c0.2-1,0.3-1.9,0.4-2.8s0.1-1.9,0.2-3c0-1.1,0.1-2.1,0.1-3.2c-0.7,0.8-1.4,1.5-2.2,2.2
			c-0.8,0.7-1.6,1.3-2.5,1.9c-0.8,0.5-1.7,1-2.7,1.4c-0.9,0.4-1.8,0.6-2.8,0.6c-0.5,0-0.9-0.1-1.4-0.2c-0.4-0.2-0.8-0.5-1.2-0.8
			c-0.4-0.4-0.6-0.8-0.8-1.3c-0.2-0.6-0.3-1.2-0.4-1.8c0-0.9,0.1-1.9,0.3-2.8c0.3-1,0.6-2,1-3c0.4-1,0.9-2,1.4-3
			c0.5-1,1-1.8,1.5-2.6c0.6-0.8,1.2-1.6,1.9-2.4c0.7-0.8,1.6-1.6,2.4-2.3c0.8-0.7,1.8-1.3,2.7-1.8c0.9-0.5,1.8-0.7,2.8-0.8
			c0.6,0,1.1,0,1.7,0.1c0.5,0.1,1.1,0.3,1.5,0.6c0.5,0.3,0.9,0.6,1.2,1.1c0.3,0.5,0.5,1,0.5,1.6c0,0.2,0,0.5,0,0.8
			c0,0.3,0,0.6,0,0.9s0,0.6-0.1,0.9C-1989.3-1009.6-1989.3-1009.4-1989.3-1009.1L-1989.3-1009.1z M-1994-1004.9c0-0.5,0.1-1,0.1-1.7
			s0.1-1.4,0.1-2.4c0-0.5,0-0.9,0-1.2c0-0.2,0-0.4,0-0.6c0-0.2,0-0.5-0.1-0.7c0-0.2-0.2-0.3-0.4-0.4c-0.3-0.1-0.6-0.1-0.9-0.1
			c-0.7,0.5-1.3,1.1-1.9,1.8c-0.6,0.7-1.2,1.4-1.8,2.2c-0.6,0.8-1.1,1.6-1.6,2.4c-0.5,0.8-0.9,1.6-1.3,2.4c-0.4,0.8-0.7,1.6-0.9,2.5
			c-0.2,0.7-0.3,1.4-0.3,2.1c0,0.2,0.1,0.4,0.3,0.5c0.2,0.1,0.4,0.1,0.6,0.1c0.5,0,1-0.2,1.5-0.4c0.6-0.3,1.1-0.6,1.6-0.9
			c0.5-0.4,1.1-0.7,1.6-1.1c0.5-0.4,0.9-0.7,1.3-1c0.2-0.2,0.4-0.3,0.5-0.5c0.2-0.3,0.5-0.5,0.7-0.8c0.2-0.3,0.4-0.6,0.6-1
			C-1994.1-1004.2-1994.1-1004.6-1994-1004.9L-1994-1004.9z"/>
		<path class="st1" d="M-1956.7-1009.4c-0.1,0.5-0.2,1.1-0.5,1.5c-0.7,1.2-1.5,2.4-2.4,3.5c-1.8,2.3-3.8,4.4-6.1,6.3
			c-1.1,0.9-2.2,1.7-3.4,2.4c-1.1,0.7-2.3,1.2-3.5,1.7c-1.1,0.4-2.3,0.7-3.5,0.7c-2.2,0.3-4.4-0.4-6.1-1.8c-1.7-1.7-2.6-4-2.5-6.4
			c-0.1-1.2-0.1-2.3,0-3.5c0.1-1.2,0.3-2.3,0.6-3.4c0.7-2.4,1.8-4.6,3.4-6.6c0.3-0.4,0.7-0.8,1.1-1.1c0.4-0.4,0.9-0.7,1.4-1
			c0.5-0.3,1-0.5,1.5-0.7c0.5-0.2,1.1-0.3,1.6-0.4c0.7-0.1,1.4,0.1,2.1,0.3c0.6,0.3,1.1,0.6,1.5,1.1c0.4,0.5,0.7,1.1,0.9,1.7
			c0.2,0.7,0.4,1.3,0.4,2c0,1.5-0.4,3-1.2,4.2c-1.1,1.7-2.4,3.3-3.9,4.6c-0.5,0.5-1.2,1.1-1.9,1.7l-2.4,2c0,0.4,0.2,0.7,0.4,1.1
			c0.2,0.3,0.5,0.6,0.8,0.8c0.4,0.2,0.8,0.4,1.2,0.5c0.5,0.1,1,0.2,1.5,0.1c0.8-0.1,1.6-0.2,2.3-0.4c0.8-0.2,1.6-0.5,2.4-0.9
			c0.8-0.4,1.6-0.8,2.3-1.2c0.7-0.4,1.4-0.9,2-1.4c1.1-0.9,2.1-1.8,3.1-2.8c1-1,1.9-2,2.8-3l1.1-1.3c0.5-0.6,1.2-1.1,2.1-1.2
			c0.2,0,0.5,0.1,0.6,0.3C-1956.8-1009.8-1956.7-1009.6-1956.7-1009.4z M-1974.5-1012.5c0-0.3-0.1-0.6-0.2-0.9
			c0-0.2-0.2-0.4-0.4-0.5c-0.6,0.1-1.2,0.3-1.6,0.7c-0.6,0.6-1.1,1.2-1.5,2c-0.5,0.9-0.9,1.9-1.2,3c-0.4,1.2-0.6,2.5-0.7,3.8
			c0.7-0.6,1.4-1.2,2-1.8c0.7-0.6,1.3-1.2,1.8-1.9c0.5-0.6,1-1.3,1.3-2.1C-1974.6-1011-1974.4-1011.7-1974.5-1012.5z"/>
		<path class="st1" d="M-1922.5-1012c0,0.3,0,0.6-0.1,0.9c-0.1,0.3-0.2,0.7-0.4,1c-0.1,0.3-0.3,0.7-0.5,1c-0.1,0.3-0.3,0.5-0.5,0.8
			c-0.4,0.6-0.9,1.3-1.5,2c-0.6,0.7-1.1,1.4-1.8,2.1c-0.6,0.7-1.2,1.4-1.9,2c-0.6,0.6-1.2,1.2-1.9,1.7c-0.5,0.4-1,0.8-1.5,1.1
			c-0.5,0.3-1,0.6-1.5,0.9c-0.5,0.3-1.1,0.5-1.6,0.7c-0.6,0.2-1.3,0.3-1.9,0.3c-1,0.1-2-0.1-2.8-0.5c-0.8-0.4-1.4-1-1.9-1.7
			c-0.5-0.8-0.9-1.6-1.2-2.5c-0.3-1-0.6-2-0.8-3c-0.2-1.1-0.5-2.3-0.8-3.3c-0.3-0.8-0.6-1.2-1-1.2c-0.3,0-0.6,0.1-0.9,0.3
			c-0.4,0.3-0.7,0.6-1,1c-0.5,0.7-1,1.4-1.5,2.1c-0.6,0.9-1.4,2.2-2.3,3.7c-0.3,0.5-0.7,1.1-1.2,1.8c-0.5,0.7-1,1.3-1.5,1.9
			c-0.5,0.6-1,1.1-1.6,1.6c-0.4,0.4-1,0.8-1.5,1c-1.9-0.3-3-2.1-3.2-5.3c0-1.2,0-2.4,0.1-3.6c0-0.7,0.1-1.5,0.2-2.2
			c0.1-0.8,0.2-1.6,0.3-2.4c0.1-0.8,0.3-1.6,0.5-2.4c0.2-0.7,0.4-1.5,0.7-2.2c0.1-0.3,0.3-0.6,0.6-0.9c0.2-0.2,0.4-0.4,0.7-0.5
			c0.2-0.1,0.5-0.2,0.7-0.2c0.3,0,0.5-0.1,0.8-0.1c0.2,0,0.5,0,0.7,0.1c0.2,0.1,0.4,0.3,0.6,0.5c0.2,0.2,0.3,0.5,0.4,0.7
			c0.1,0.3,0.2,0.7,0.2,1c0,0.3,0,0.7,0,1c0,0.3-0.1,0.7-0.2,1c-0.1,0.4-0.2,0.7-0.3,1.1c-0.1,0.4-0.2,0.8-0.3,1.3
			c-0.1,0.3-0.1,0.7-0.3,1.2s-0.2,1-0.4,1.6c-0.1,0.5-0.2,1.1-0.3,1.6c-0.1,0.4-0.1,0.9-0.2,1.3c0.3-0.3,0.5-0.7,0.9-1.2
			c0.3-0.5,0.7-1,1-1.6l1.1-1.8c0.4-0.6,0.7-1.2,1.1-1.7c0.5-0.7,1-1.3,1.4-2c0.5-0.6,1-1.1,1.5-1.6c0.5-0.5,1.1-0.8,1.8-1.1
			c0.7-0.3,1.4-0.5,2.2-0.5c1.6-0.2,3.2,0.6,4,2c0.4,0.8,0.8,1.6,1,2.5c0.2,1,0.4,2,0.6,3.1c0.1,0.6,0.2,1.2,0.4,1.8
			c0.1,0.6,0.3,1.1,0.5,1.7c0.2,0.5,0.5,0.9,0.8,1.2c0.3,0.3,0.8,0.5,1.2,0.4c0.8-0.1,1.5-0.3,2.2-0.7c0.9-0.5,1.7-1,2.5-1.7
			c0.9-0.8,1.8-1.6,2.6-2.4c0.9-0.9,1.8-1.9,2.7-2.9c0.3-0.3,0.6-0.7,0.8-1c0.3-0.3,0.5-0.6,0.8-0.9c0.2-0.2,0.4-0.5,0.7-0.6
			c0.2-0.2,0.4-0.2,0.7-0.3c0.1,0,0.2,0,0.3,0c0.1,0,0.2,0.1,0.4,0.1c0.1,0.1,0.2,0.2,0.3,0.3
			C-1922.6-1012.3-1922.5-1012.1-1922.5-1012z"/>
		<path class="st1" d="M-1891.6-1013.2c0,0.3,0,0.5-0.1,0.8c-0.1,0.3-0.2,0.6-0.4,0.9c-0.2,0.4-0.5,0.8-0.7,1.2
			c-0.3,0.5-0.7,1-1.2,1.7v0c-0.5,0.7-1.1,1.4-1.7,2c-0.6,0.7-1.2,1.4-1.9,2.1c-0.7,0.7-1.3,1.4-2,1.9c-0.6,0.6-1.2,1.1-1.9,1.6
			c-0.6,0.4-1.1,0.8-1.8,1.1c-0.5,0.2-1,0.4-1.5,0.4c-0.9,0.1-1.8-0.1-2.5-0.6c-0.7-0.5-1.2-1.1-1.6-1.9c-0.5-0.9-0.8-1.9-1-2.9
			c-0.3-1.1-0.5-2.3-0.7-3.5l-1.2,2c-0.4,0.7-0.9,1.4-1.3,2.2c-0.5,0.7-0.9,1.4-1.5,2.1c-0.5,0.7-1,1.3-1.6,1.9
			c-1.3,1.4-2.8,2.5-4.4,3.3c-1.5,0.8-3.1,1.2-4.8,1.3c-0.5,0-1.1-0.1-1.6-0.4c-0.5-0.3-0.8-0.7-1.1-1.1c-0.3-0.5-0.6-1-0.7-1.5
			c-0.2-0.5-0.3-1.1-0.3-1.6c0-0.6,0-1.2,0-1.8c0-0.4,0.1-0.9,0.2-1.3c0.5-1.8,1.1-3.6,1.8-5.4c0.7-1.8,1.6-3.5,2.6-5.1
			c0.6-1,1.3-1.9,2-2.8c0.6-0.8,1.3-1.5,2.1-2.1c0.8-0.6,1.6-1,2.5-1.4c1-0.3,2-0.5,3.1-0.6c0.9-0.1,1.8,0.3,2.4,0.9
			c0.7,0.8,1.2,1.8,1.5,2.9c0.1-0.6,0.1-1.2,0.2-2c0.1-0.7,0.1-1.5,0.1-2.3c0-0.8,0.1-1.6,0.1-2.5c0-0.9,0-1.7,0.1-2.6
			c0-1.2,0-2.2,0.1-3c0-0.6,0.1-1.2,0.4-1.7c0.2-0.4,0.5-0.7,0.8-1c0.4-0.3,0.9-0.5,1.4-0.5c0.4,0,0.7,0,1.1,0.1
			c0.3,0.1,0.6,0.2,0.9,0.4c0.3,0.1,0.5,0.3,0.7,0.5c0.2,0.2,0.2,0.4,0.3,0.6c0,0.3,0,0.6-0.1,0.9c-0.1,0.4-0.1,0.9-0.2,1.6
			c-0.1,0.6-0.2,1.4-0.3,2.4c-0.1,0.9-0.3,2-0.4,3.3c0,0.2,0,0.3,0,0.5c0,0.2-0.1,0.5-0.1,0.8c0,0.3-0.1,0.6-0.1,1s-0.1,0.6-0.1,0.9
			s-0.1,0.6-0.1,0.8c0,0.2,0,0.4-0.1,0.4c-0.1,1.2-0.2,2.3-0.3,3.3c-0.1,1-0.1,2,0,3c0,0.4,0.1,0.9,0.1,1.4c0,0.5,0.1,1,0.1,1.5
			c0,0.5,0.1,1,0.2,1.5c0.1,0.5,0.1,1,0.2,1.5c0,0.1,0.1,0.2,0.1,0.4c0.1,0.1,0.2,0.3,0.3,0.4c0.1,0.1,0.2,0.2,0.4,0.3
			c0.1,0.1,0.3,0.1,0.5,0.1c0.2,0,0.5-0.1,0.7-0.2c0.3-0.1,0.5-0.2,0.7-0.4c0.3-0.1,0.5-0.3,0.7-0.4s0.5-0.3,0.6-0.5
			c0.8-0.6,1.5-1.2,2.3-1.8s1.5-1.4,2.2-2.1c0.7-0.7,1.4-1.5,2.2-2.2c0.7-0.7,1.3-1.3,1.9-2.1c0.2-0.2,0.5-0.4,0.8-0.4
			c0.2,0,0.5,0.1,0.6,0.3C-1891.7-1014-1891.6-1013.6-1891.6-1013.2z M-1914.7-1008.3c0.1-0.1,0.2-0.3,0.4-0.5
			c0.1-0.2,0.3-0.4,0.4-0.7c0.1-0.2,0.3-0.5,0.4-0.7c0.1-0.2,0.2-0.4,0.3-0.7c-0.3-0.2-0.6-0.5-0.7-0.8c-0.2-0.3-0.3-0.7-0.3-1.1
			c0-0.2,0-0.3,0-0.5c0-0.2,0-0.4,0-0.6c0-0.2,0-0.4,0-0.6c0-0.1,0-0.3,0-0.4c0-0.2-0.1-0.4-0.2-0.6c-0.1-0.2-0.3-0.4-0.5-0.6
			c-0.2-0.2-0.4-0.3-0.6-0.4c-0.2-0.1-0.4-0.1-0.6-0.1c-0.5,0.1-0.9,0.3-1.2,0.7c-0.5,0.5-1,1.1-1.4,1.7c-0.5,0.7-1,1.4-1.4,2.2
			c-0.5,0.8-0.9,1.5-1.3,2.2c-0.4,0.8-0.8,1.5-1.1,2.2c-0.3,0.7-0.6,1.3-0.8,1.8c-0.6,1.3-0.9,2.7-1,4.1c0.1,0.9,0.2,1.3,0.6,1.3
			c0.4-0.1,0.8-0.2,1.2-0.4c0.6-0.3,1.1-0.7,1.6-1.1c0.6-0.5,1.2-1,1.8-1.4c0.5-0.4,0.9-0.9,1.3-1.3c0.8-0.9,1.4-1.7,1.9-2.3
			L-1914.7-1008.3z"/>
		<path class="st1" d="M-1862-1014.5c0,0.2,0,0.4-0.1,0.6c-0.1,0.3-0.1,0.5-0.2,0.8c-0.1,0.3-0.2,0.5-0.3,0.7
			c-0.1,0.2-0.2,0.4-0.4,0.6c-0.1,0.2-0.2,0.3-0.4,0.5c-0.2,0.2-0.3,0.4-0.5,0.7c-0.2,0.2-0.4,0.5-0.7,0.8c-0.2,0.3-0.5,0.6-0.8,0.9
			c-0.8,0.9-1.7,1.7-2.5,2.6c-0.8,0.8-1.7,1.6-2.7,2.3c-0.9,0.7-1.9,1.2-3,1.7c-1.1,0.4-2.2,0.7-3.4,0.8c-0.5,0-1.1-0.1-1.6-0.2
			c-0.5-0.2-1.1-0.5-1.5-0.8c-0.5-0.4-0.9-0.8-1.3-1.3c-0.4-0.5-0.6-1.1-0.8-1.7c-0.3,0.5-0.6,1-1,1.5c-0.4,0.5-0.9,1.1-1.3,1.6
			c-0.5,0.5-1,1.1-1.5,1.5c-0.5,0.5-1,0.9-1.5,1.3c-0.4,0.3-0.8,0.5-1.2,0.8c-0.5,0.3-0.9,0.5-1.5,0.8c-0.5,0.2-1,0.4-1.6,0.6
			c-0.5,0.1-1,0.2-1.5,0.3c-0.7,0.1-1.4-0.1-1.9-0.5c-0.6-0.4-1.1-0.9-1.4-1.4c-0.7-1.1-1.2-2.4-1.3-3.7c-0.1-1,0-2.1,0.3-3.1
			c0.2-1,0.6-2.1,1-3.1c0.4-1,0.8-2,1.4-2.9c0.5-0.9,1-1.7,1.5-2.5c0.6-0.8,1.2-1.6,1.9-2.3c0.7-0.7,1.5-1.4,2.4-2.1
			c0.8-0.6,1.6-1.1,2.5-1.5c0.7-0.4,1.5-0.6,2.2-0.7c0.4,0,0.7,0,1.1,0c0.4,0,0.8,0,1.1,0c0.4,0,0.7,0.1,1.1,0.1
			c0.3,0.1,0.6,0.2,0.9,0.3c0.2,0.2,0.5,0.4,0.6,0.6c0.2,0.3,0.5,0.6,0.7,1c0.2,0.3,0.4,0.7,0.5,1c0.1,0.2,0.2,0.5,0.2,0.8
			c0,0.5,0,1-0.1,1.5c-0.1,0.6-0.2,1.2-0.3,1.8c-0.1,0.6-0.2,1.3-0.3,2c-0.1,0.6-0.1,1.3-0.1,1.9c0,0.4,0.1,0.9,0.3,1.3
			c0.1,0.4,0.3,0.8,0.6,1.2c0.2,0.3,0.5,0.6,0.9,0.8c0.3,0.2,0.7,0.3,1.1,0.3c0.9-0.1,1.8-0.3,2.6-0.7c0.9-0.4,1.7-0.9,2.5-1.5
			c0.9-0.7,1.7-1.4,2.5-2.2c0.8-0.8,1.7-1.7,2.5-2.7c0,0,0.1-0.1,0.4-0.4c0.2-0.2,0.4-0.5,0.7-0.8c0.3-0.3,0.6-0.6,0.9-0.8
			c0.2-0.2,0.5-0.3,0.8-0.4c0.3-0.1,0.7,0.1,0.9,0.3C-1862.1-1015.3-1862-1014.9-1862-1014.5z M-1882.6-1015.6c0-0.2,0-0.3-0.1-0.5
			c-0.1-0.2-0.1-0.3-0.2-0.5c-0.1-0.1-0.2-0.3-0.3-0.4c-0.1-0.1-0.2-0.1-0.3-0.2c-1,0-1.9,0.4-2.7,1c-0.9,0.7-1.7,1.5-2.4,2.3
			c-0.6,0.7-1,1.4-1.5,2.1c-0.5,0.9-1,1.8-1.4,2.8c-0.4,0.9-0.8,1.9-1,2.9c-0.2,0.8-0.4,1.7-0.3,2.5c0,0.2,0,0.4,0.1,0.5
			c0,0.2,0.1,0.3,0.2,0.5c0.1,0.1,0.2,0.2,0.3,0.3c0.1,0.1,0.3,0.1,0.5,0.1c0.7-0.1,1.3-0.3,1.9-0.7c0.7-0.4,1.4-1,2.1-1.6
			c0.7-0.7,1.4-1.4,2-2.2c0.6-0.8,1.1-1.6,1.6-2.5c0.5-1,0.9-2.1,1.3-3.2C-1882.6-1013.3-1882.5-1014.5-1882.6-1015.6
			L-1882.6-1015.6z"/>
		<path class="st1" d="M-1750.6-1018.2c0,0.1,0,0.3,0,0.4c0,0.2-0.1,0.3-0.2,0.5c-0.1,0.2-0.2,0.4-0.4,0.7s-0.4,0.6-0.7,0.9l0,0
			c-0.3,0.4-0.6,0.7-0.9,1.1c-0.3,0.4-0.7,0.8-1.1,1.1c-0.4,0.4-0.7,0.7-1.1,1.1c-0.3,0.3-0.7,0.6-1.1,0.9c-0.3,0.2-0.6,0.4-1,0.6
			c-0.3,0.1-0.5,0.2-0.8,0.2c-0.5,0.1-1-0.1-1.4-0.3c-0.4-0.3-0.7-0.6-0.9-1c-0.2-0.5-0.4-1-0.6-1.6c-0.1-0.6-0.3-1.3-0.4-1.9
			l-0.6,1.1c-0.2,0.4-0.5,0.8-0.7,1.2c-0.2,0.4-0.5,0.8-0.8,1.1c-0.3,0.4-0.6,0.7-0.9,1c-0.7,0.7-1.5,1.4-2.4,1.8
			c-0.8,0.4-1.7,0.7-2.6,0.7c-0.3,0-0.6,0-0.9-0.2c-0.2-0.2-0.5-0.4-0.6-0.6c-0.2-0.3-0.3-0.5-0.4-0.8c-0.1-0.3-0.1-0.6-0.2-0.9
			c0-0.3,0-0.7,0-1c0-0.2,0-0.5,0.1-0.7c0.3-1,0.6-2,1-2.9c0.4-1,0.9-1.9,1.4-2.8c0.3-0.5,0.7-1.1,1.1-1.5c0.3-0.4,0.7-0.8,1.2-1.2
			c0.4-0.3,0.9-0.6,1.4-0.7c0.5-0.2,1.1-0.3,1.7-0.3c0.5,0,1,0.1,1.3,0.5c0.4,0.4,0.7,1,0.8,1.6c0-0.3,0.1-0.7,0.1-1.1
			s0.1-0.8,0.1-1.3c0-0.4,0-0.9,0.1-1.4c0-0.5,0-0.9,0-1.4c0-0.6,0-1.2,0.1-1.6c0-0.3,0.1-0.6,0.2-0.9c0.1-0.2,0.3-0.4,0.5-0.6
			c0.2-0.2,0.5-0.3,0.8-0.3c0.2,0,0.4,0,0.6,0.1c0.2,0,0.3,0.1,0.5,0.2c0.1,0.1,0.3,0.2,0.4,0.3c0.1,0.1,0.1,0.2,0.1,0.4
			c0,0.2,0,0.3,0,0.5c0,0.2-0.1,0.5-0.1,0.9c0,0.4-0.1,0.8-0.2,1.3c-0.1,0.5-0.1,1.1-0.2,1.8c0,0.1,0,0.2,0,0.3c0,0.1,0,0.3,0,0.5
			c0,0.2,0,0.4-0.1,0.5c0,0.2,0,0.4-0.1,0.5c0,0.2,0,0.3,0,0.4c0,0.1,0,0.2,0,0.2c-0.1,0.6-0.1,1.2-0.1,1.8c0,0.6,0,1.1,0,1.7
			c0,0.2,0,0.5,0.1,0.8c0,0.3,0,0.6,0.1,0.8c0,0.3,0.1,0.6,0.1,0.8s0.1,0.5,0.1,0.8c0,0.1,0,0.1,0.1,0.2c0,0.1,0.1,0.1,0.1,0.2
			c0.1,0.1,0.1,0.1,0.2,0.2c0.1,0,0.2,0.1,0.2,0.1c0.1,0,0.2,0,0.4-0.1c0.1-0.1,0.3-0.1,0.4-0.2c0.1-0.1,0.3-0.2,0.4-0.2
			c0.1-0.1,0.2-0.2,0.4-0.2c0.4-0.3,0.8-0.6,1.2-1s0.8-0.7,1.2-1.2c0.4-0.4,0.8-0.8,1.2-1.2c0.4-0.4,0.7-0.7,1.1-1.1
			c0.1-0.1,0.3-0.2,0.5-0.2c0.1,0,0.3,0.1,0.4,0.2C-1750.6-1018.7-1750.6-1018.5-1750.6-1018.2z M-1763.2-1015.5
			c0.1-0.1,0.1-0.2,0.2-0.3s0.1-0.2,0.2-0.4l0.2-0.4c0.1-0.1,0.1-0.2,0.2-0.4c-0.2-0.1-0.3-0.3-0.4-0.4c-0.1-0.2-0.1-0.4-0.2-0.6
			c0-0.1,0-0.2,0-0.3c0-0.1,0-0.2,0-0.3c0-0.1,0-0.2,0-0.3c0-0.1,0-0.1,0-0.2c0-0.1,0-0.2-0.1-0.4c-0.1-0.1-0.2-0.2-0.3-0.3
			c-0.1-0.1-0.2-0.2-0.3-0.2c-0.1-0.1-0.2-0.1-0.3-0.1c-0.3,0-0.5,0.2-0.7,0.4c-0.3,0.3-0.5,0.6-0.8,0.9c-0.3,0.4-0.5,0.8-0.8,1.2
			s-0.5,0.8-0.7,1.2c-0.2,0.4-0.4,0.8-0.6,1.2s-0.3,0.7-0.4,1c-0.3,0.7-0.5,1.5-0.5,2.3c0,0.5,0.1,0.7,0.3,0.7
			c0.2,0,0.4-0.1,0.6-0.2c0.3-0.2,0.6-0.4,0.9-0.6c0.4-0.3,0.7-0.5,1-0.8c0.3-0.2,0.5-0.5,0.7-0.7c0.4-0.5,0.8-0.9,1.1-1.3
			L-1763.2-1015.5z"/>
		<path class="st1" d="M-1741-1018.8c0,0.3-0.1,0.6-0.3,0.8c-0.4,0.7-0.8,1.3-1.3,1.9c-0.5,0.6-1,1.2-1.6,1.8
			c-0.6,0.6-1.1,1.1-1.8,1.6c-0.6,0.5-1.2,0.9-1.9,1.3c-0.6,0.4-1.3,0.7-1.9,0.9c-0.6,0.2-1.3,0.4-1.9,0.4c-1.2,0.1-2.4-0.2-3.4-1
			c-0.9-0.9-1.4-2.2-1.4-3.5c0-0.6,0-1.3,0-1.9c0.1-0.6,0.2-1.3,0.4-1.9c0.2-0.6,0.4-1.2,0.7-1.8c0.3-0.6,0.7-1.2,1.1-1.8
			c0.2-0.2,0.4-0.4,0.6-0.6c0.2-0.2,0.5-0.4,0.7-0.6c0.3-0.2,0.5-0.3,0.8-0.4c0.3-0.1,0.6-0.2,0.9-0.2c0.4,0,0.8,0,1.1,0.2
			c0.3,0.1,0.6,0.3,0.8,0.6c0.2,0.3,0.4,0.6,0.5,0.9c0.1,0.4,0.2,0.7,0.2,1.1c0,0.8-0.2,1.6-0.7,2.3c-0.6,0.9-1.3,1.8-2.1,2.5
			c-0.3,0.3-0.6,0.6-1,0.9l-1.3,1.1c0,0.2,0.1,0.4,0.2,0.6c0.1,0.2,0.3,0.3,0.4,0.4c0.2,0.1,0.4,0.2,0.7,0.3
			c0.3,0.1,0.6,0.1,0.8,0.1c0.4,0,0.9-0.1,1.3-0.2c0.5-0.1,0.9-0.3,1.3-0.5c0.4-0.2,0.9-0.4,1.3-0.7c0.4-0.2,0.8-0.5,1.1-0.8
			c0.6-0.5,1.1-1,1.7-1.5c0.5-0.5,1-1.1,1.5-1.6l0.6-0.7c0.3-0.3,0.7-0.6,1.1-0.7c0.1,0,0.3,0,0.4,0.1
			C-1741.1-1019-1741-1018.9-1741-1018.8z M-1750.8-1020.5c0-0.2,0-0.3-0.1-0.5c0-0.1-0.1-0.2-0.2-0.3c-0.3,0-0.6,0.2-0.9,0.4
			c-0.3,0.3-0.6,0.7-0.8,1.1c-0.3,0.5-0.5,1.1-0.7,1.6c-0.2,0.7-0.3,1.4-0.4,2.1c0.4-0.3,0.7-0.6,1.1-1c0.4-0.3,0.7-0.7,1-1.1
			c0.3-0.3,0.5-0.7,0.7-1.1C-1750.8-1019.7-1750.8-1020.1-1750.8-1020.5L-1750.8-1020.5z"/>
		<path class="st1" d="M-1698.2-1028.7c0,0.3,0,0.5-0.1,0.8c-0.1,0.2-0.2,0.5-0.4,0.7c-0.2,0.2-0.4,0.4-0.6,0.5
			c-0.2,0.2-0.4,0.3-0.6,0.4c-0.7,0.4-1.4,0.7-2.1,0.9c-0.8,0.3-1.5,0.5-2.3,0.7c-0.8,0.2-1.5,0.4-2.2,0.5c-0.7,0.1-1.4,0.3-2,0.4
			l-1.3,0.2l-1.3,0.2c-0.4,0.1-0.8,0.1-1.2,0.2s-0.7,0.1-1,0.2c-0.3,1.3-0.5,2.5-0.7,3.7c-0.2,1.2-0.4,2.3-0.6,3.4
			c0,0.2-0.1,0.4-0.1,0.8s-0.1,0.7-0.1,1.1c0,0.4-0.1,0.8-0.1,1.2c0,0.4-0.1,0.8-0.1,1.2s-0.1,0.7-0.1,1c0,0.3,0,0.5,0,0.7
			c0,0.4,0.1,0.8,0.3,1.1c0.2,0.2,0.3,0.4,0.5,0.5c0.3,0.2,0.5,0.4,0.8,0.7c0.4,0.5,0.5,1.2,0.1,1.8c-0.2,0.3-0.5,0.5-0.7,0.7
			c-0.3,0.2-0.6,0.4-1,0.5c-0.3,0.1-0.7,0.2-1,0.2c-0.5,0-1-0.1-1.5-0.3c-0.5-0.2-0.9-0.6-1.2-1c-0.3-0.4-0.6-0.9-0.8-1.4
			c-0.2-0.5-0.3-1.1-0.4-1.7c-0.1-1.1,0-2.2,0-3.3c0.1-1.2,0.2-2.4,0.4-3.6c0.1-0.5,0.2-1.1,0.3-1.8c0.1-0.6,0.2-1.2,0.3-1.8
			c0.1-0.6,0.2-1.1,0.2-1.5s0.1-0.7,0.1-0.9c-0.3,0-0.8,0.1-1.4,0.2c-0.7,0.1-1.4,0.2-2.1,0.2c-0.6,0-1.1,0-1.7,0
			c-0.4,0-0.8-0.2-1.2-0.4c-0.3-0.2-0.6-0.5-0.7-0.9c-0.2-0.5-0.3-1-0.3-1.5c0-0.3,0.1-0.7,0.3-0.9c0.3-0.2,0.6-0.4,0.9-0.6
			c0.4-0.1,0.8-0.2,1.2-0.3c0.4-0.1,0.8-0.1,1.1-0.1c0.2,0,0.4,0,0.8-0.1c0.4-0.1,0.8-0.1,1.2-0.2l1.3-0.2c0.4-0.1,0.7-0.1,1-0.1
			c0.1,0,0.2-0.2,0.3-0.4c0.1-0.4,0.2-0.7,0.3-1.1c0.1-0.5,0.2-1,0.3-1.5s0.2-1.1,0.3-1.6c0.1-0.5,0.2-1.1,0.2-1.5s0.1-0.8,0.2-1.1
			c0.1-0.7,0.2-1.4,0.3-2.1c0.1-0.8,0.2-1.5,0.4-2.2c0.2-0.7,0.4-1.3,0.9-1.8c0.4-0.5,1.1-0.8,1.7-0.8c0.6-0.1,1.3,0.1,1.8,0.4
			c0.5,0.4,0.7,1.1,0.7,1.7c0,0.4,0,0.9,0,1.3c0,0.5-0.1,1-0.3,1.5c-0.3,1.2-0.5,2.3-0.7,3.3c-0.2,1-0.3,1.9-0.5,2.7
			c-0.1,0.8-0.2,1.6-0.3,2.4c0.6,0,1.2-0.1,1.8-0.1c0.6,0,1.1-0.1,1.7-0.1c0.6-0.1,1.2-0.1,1.8-0.2s1.3-0.2,2.1-0.3
			c0.9-0.2,1.6-0.3,2.2-0.4c0.6-0.1,1.1-0.3,1.6-0.4c0.4-0.1,0.9-0.2,1.2-0.3c0.4-0.1,0.8-0.1,1.2-0.2c0.2,0,0.4,0,0.6,0.1
			C-1698.4-1029.4-1698.3-1029.1-1698.2-1028.7z"/>
		<path class="st1" d="M-1671.7-1025.7c0,0.2,0,0.4-0.1,0.6c-0.1,0.3-0.1,0.5-0.2,0.8c-0.1,0.3-0.2,0.5-0.3,0.7
			c-0.1,0.2-0.2,0.4-0.4,0.6c-0.1,0.2-0.2,0.3-0.4,0.5c-0.2,0.2-0.3,0.4-0.5,0.7c-0.2,0.2-0.4,0.5-0.7,0.8c-0.2,0.3-0.5,0.6-0.8,0.9
			c-0.8,0.9-1.7,1.7-2.5,2.6c-0.8,0.8-1.7,1.6-2.7,2.3c-0.9,0.7-1.9,1.2-3,1.7c-1.1,0.4-2.2,0.7-3.4,0.8c-0.5,0-1.1-0.1-1.6-0.2
			c-0.5-0.2-1.1-0.5-1.5-0.8c-0.5-0.4-0.9-0.8-1.3-1.3c-0.4-0.5-0.6-1.1-0.8-1.7c-0.3,0.5-0.6,1-1,1.5c-0.4,0.5-0.9,1.1-1.3,1.6
			c-0.5,0.5-1,1.1-1.5,1.5c-0.5,0.5-1,0.9-1.5,1.3c-0.4,0.3-0.8,0.5-1.2,0.8c-0.5,0.3-1,0.5-1.5,0.8c-0.5,0.2-1,0.4-1.6,0.6
			c-0.5,0.1-1,0.2-1.5,0.3c-0.7,0.1-1.4-0.1-1.9-0.5c-0.6-0.4-1.1-0.9-1.4-1.4c-0.7-1.1-1.2-2.4-1.3-3.7c-0.1-1,0-2.1,0.3-3.1
			c0.2-1,0.6-2.1,0.9-3.1c0.4-1,0.8-2,1.4-2.9c0.5-0.9,1-1.7,1.5-2.5c0.6-0.8,1.2-1.6,1.9-2.3c0.7-0.7,1.5-1.4,2.4-2.1
			c0.8-0.6,1.6-1.1,2.5-1.5c0.7-0.4,1.5-0.6,2.2-0.7c0.4,0,0.7,0,1.1,0c0.4,0,0.8,0,1.1,0c0.4,0,0.7,0.1,1.1,0.1
			c0.3,0.1,0.6,0.2,0.9,0.3c0.2,0.2,0.5,0.4,0.6,0.6c0.2,0.3,0.5,0.6,0.7,1c0.2,0.3,0.4,0.7,0.5,1c0.1,0.2,0.2,0.5,0.2,0.8
			c0,0.5,0,1-0.1,1.5c-0.1,0.6-0.2,1.2-0.3,1.8c-0.1,0.6-0.2,1.3-0.3,2c-0.1,0.6-0.1,1.3-0.1,1.9c0,0.4,0.1,0.9,0.3,1.3
			c0.1,0.4,0.3,0.8,0.6,1.2c0.2,0.3,0.5,0.6,0.9,0.8c0.3,0.2,0.7,0.3,1.1,0.3c0.9-0.1,1.8-0.3,2.6-0.7c0.9-0.4,1.7-0.9,2.5-1.5
			c0.9-0.7,1.7-1.4,2.5-2.2c0.8-0.8,1.7-1.7,2.5-2.7c0,0,0.1-0.1,0.4-0.4s0.4-0.5,0.7-0.8c0.3-0.3,0.6-0.6,0.9-0.8
			c0.2-0.2,0.5-0.3,0.8-0.4c0.3-0.1,0.7,0.1,0.9,0.3C-1671.8-1026.5-1671.7-1026.1-1671.7-1025.7z M-1692.3-1026.8
			c0-0.2,0-0.3-0.1-0.5c-0.1-0.2-0.1-0.3-0.2-0.5c-0.1-0.1-0.2-0.3-0.3-0.4c-0.1-0.1-0.2-0.1-0.3-0.2c-1,0-1.9,0.4-2.7,1
			c-0.9,0.7-1.7,1.5-2.4,2.3c-0.6,0.7-1,1.4-1.5,2.1c-0.5,0.9-1,1.8-1.4,2.8c-0.4,0.9-0.8,1.9-1,2.9c-0.2,0.8-0.4,1.7-0.3,2.5
			c0,0.2,0,0.4,0.1,0.5c0,0.2,0.1,0.3,0.2,0.5c0.1,0.1,0.2,0.2,0.3,0.3c0.1,0.1,0.3,0.1,0.5,0.1c0.7-0.1,1.3-0.3,1.9-0.7
			c0.7-0.4,1.4-1,2.1-1.6c0.7-0.7,1.4-1.4,2-2.2c0.6-0.8,1.1-1.6,1.6-2.5c0.5-1,0.9-2.1,1.3-3.2
			C-1692.4-1024.5-1692.2-1025.6-1692.3-1026.8L-1692.3-1026.8z"/>
		<path class="st1" d="M-1654.1-1029.6c0,0.2,0,0.4-0.1,0.5c-0.1,0.2-0.1,0.5-0.2,0.7c-0.1,0.2-0.2,0.4-0.4,0.6
			c-0.2,0.2-0.4,0.3-0.7,0.3h-0.4h-1.3h-0.4c-2.4,0.2-4.7,1.3-6.3,3.1c-0.4,0.4-0.8,0.9-1.2,1.4c-0.4,0.5-0.8,1.1-1.2,1.8
			s-0.8,1.3-1.1,2c-0.4,0.7-0.7,1.5-0.9,2.2c-0.2,0.6-0.4,1.3-0.6,1.9c-0.2,0.7-0.4,1.4-0.5,2.1c-0.1,0.4-0.1,0.7-0.2,1.1
			c0,0.4-0.1,0.7-0.2,1.1c-0.1,0.2-0.2,0.5-0.4,0.6c-0.2,0.2-0.4,0.3-0.6,0.5c-0.2,0.1-0.5,0.2-0.7,0.3c-0.3,0.1-0.5,0.1-0.8,0.2
			c-0.9,0.1-1.7-0.4-2.1-1.2c-0.5-1.2-0.8-2.5-0.8-3.9c0-0.4,0-0.8-0.1-1.1c0-0.3,0-0.7,0-1.1c0-0.4,0-0.7,0-1.1c0-0.4,0-0.8,0-1.3
			c0-0.7,0.1-1.5,0.1-2.5c0-1,0.1-2,0.2-3c0.1-1,0.1-2,0.2-2.9c0.1-0.9,0.2-1.7,0.3-2.4c0.1-0.7,0.4-1.4,0.8-1.9
			c0.5-0.5,1.1-0.8,1.8-0.8c0.3,0,0.5,0,0.7,0.1c0.5,0.2,0.9,0.5,1.2,1c0.1,0.2,0.2,0.3,0.3,0.5l0,0.4c0,0.5,0,1,0,1.5
			c0,0.6-0.1,1.2-0.2,1.8s-0.2,1.3-0.3,2c-0.1,0.7-0.2,1.3-0.3,1.9s-0.2,1.2-0.3,1.7c-0.1,0.5-0.1,0.9-0.2,1.3
			c0.5-1.1,1-2.2,1.5-3.3c0.5-1,1.1-2,1.8-3c0.6-0.9,1.3-1.7,2.1-2.5c0.7-0.7,1.6-1.3,2.5-1.8c0.6-0.3,1.3-0.6,1.9-0.9
			c0.5-0.2,1.1-0.3,1.6-0.4c0.6,0,1.2,0,1.8,0.1c0.6,0.1,1.2,0.2,1.7,0.4c0.5,0.2,0.9,0.4,1.3,0.8
			C-1654.4-1030.4-1654.1-1030-1654.1-1029.6z"/>
		<path class="st1" d="M-1625.4-1028.8c-0.1,0.5-0.2,1.1-0.5,1.5c-0.7,1.2-1.5,2.4-2.4,3.5c-1.8,2.3-3.8,4.4-6.1,6.3
			c-1.1,0.9-2.2,1.7-3.4,2.4c-1.1,0.7-2.3,1.2-3.5,1.7c-1.1,0.4-2.3,0.7-3.5,0.7c-2.2,0.3-4.4-0.4-6.1-1.8c-1.7-1.7-2.6-4-2.5-6.4
			c-0.1-1.2-0.1-2.3,0-3.5c0.1-1.2,0.3-2.3,0.6-3.4c0.7-2.4,1.8-4.6,3.4-6.6c0.3-0.4,0.7-0.8,1.1-1.1c0.4-0.4,0.9-0.7,1.4-1
			c0.5-0.3,1-0.5,1.5-0.7c0.5-0.2,1.1-0.3,1.6-0.4c0.7-0.1,1.4,0.1,2.1,0.3c0.6,0.3,1.1,0.6,1.5,1.1c0.4,0.5,0.7,1.1,0.9,1.7
			c0.2,0.7,0.4,1.3,0.4,2c0,1.5-0.4,3-1.2,4.2c-1.1,1.7-2.4,3.3-3.9,4.6c-0.5,0.5-1.2,1.1-1.9,1.7l-2.4,2c0,0.4,0.2,0.7,0.4,1.1
			c0.2,0.3,0.5,0.6,0.8,0.8c0.4,0.2,0.8,0.4,1.2,0.5c0.5,0.1,1,0.2,1.5,0.1c0.8-0.1,1.6-0.2,2.3-0.4c0.8-0.2,1.6-0.5,2.4-0.9
			c0.8-0.4,1.6-0.8,2.3-1.2c0.7-0.4,1.4-0.9,2-1.4c1.1-0.9,2.1-1.8,3.1-2.8c1-1,1.9-2,2.8-3l1.1-1.3c0.5-0.6,1.2-1.1,2.1-1.2
			c0.2,0,0.5,0.1,0.6,0.3C-1625.5-1029.2-1625.5-1029-1625.4-1028.8z M-1643.2-1031.9c0-0.3-0.1-0.6-0.2-0.9c0-0.2-0.2-0.4-0.4-0.5
			c-0.6,0.1-1.2,0.3-1.6,0.7c-0.6,0.6-1.1,1.2-1.5,2c-0.5,0.9-0.9,1.9-1.2,3c-0.4,1.2-0.6,2.5-0.7,3.8c0.7-0.6,1.4-1.2,2-1.8
			c0.7-0.6,1.3-1.2,1.8-1.9c0.5-0.6,1-1.3,1.3-2.1C-1643.3-1030.4-1643.2-1031.2-1643.2-1031.9L-1643.2-1031.9z"/>
		<path class="st1" d="M-1607.5-1031.4c0,0.2-0.1,0.4-0.1,0.6c-0.1,0.2-0.3,0.5-0.4,0.7c-0.2,0.2-0.4,0.5-0.6,0.7
			c-0.2,0.2-0.4,0.4-0.7,0.5c-0.4,0.2-0.7,0.3-1.1,0.4c-0.5,0.2-1.1,0.4-1.8,0.5c-0.7,0.2-1.4,0.4-2.2,0.5c-0.8,0.2-1.6,0.3-2.3,0.4
			c-0.7,0.1-1.3,0.2-1.7,0.3l-1.3,0.2c-0.4,0.1-0.8,0.1-1.1,0.2c-0.3,0-0.7,0.1-1.1,0.1c0,0.3,0,0.8-0.1,1.5c0,0.7-0.1,1.5-0.2,2.4
			c-0.1,0.9-0.1,1.9-0.2,2.9c-0.1,1-0.1,2-0.2,2.9c-0.1,0.9-0.1,1.7-0.2,2.5c-0.1,0.7-0.1,1.3-0.1,1.6c-0.1,0.8-0.2,1.7-0.3,2.6
			c-0.1,0.8-0.3,1.5-0.5,2.3c-0.2,0.8-0.6,1.5-1,2.3c-0.4,0.7-0.9,1.4-1.4,2.1c-1,1.3-2.5,2.1-4.1,2.2c-0.4,0-0.7,0-1.1-0.1
			c-0.4-0.1-0.7-0.2-1-0.4c-0.3-0.2-0.5-0.4-0.8-0.6c-0.2-0.2-0.3-0.5-0.3-0.7c0-0.3,0-0.6,0.1-0.9c0.1-0.3,0.2-0.7,0.4-1
			c0.2-0.3,0.4-0.6,0.6-0.8c0.2-0.2,0.5-0.4,0.8-0.4c0.1,0,0.2,0,0.4,0c0.1,0,0.3,0,0.5,0.1c0.2,0,0.3,0,0.5,0.1c0.1,0,0.3,0,0.4,0
			c0.3-0.2,0.5-0.5,0.6-0.8c0.2-0.4,0.3-0.8,0.4-1.2c0.1-0.5,0.2-0.9,0.3-1.5c0.1-0.5,0.2-1,0.2-1.5c0.1-1,0.3-2,0.4-2.9
			c0.1-0.9,0.2-1.8,0.3-2.7c0.1-0.9,0.2-1.7,0.2-2.6c0.1-0.9,0.1-1.7,0.1-2.6c0-0.2,0-0.5,0.1-0.8c0-0.3,0-0.7,0.1-1
			c0-0.4,0-0.7,0-1.1c0-0.4,0-0.7,0-1c0-0.2-0.1-0.3-0.2-0.4c-0.2-0.1-0.3-0.3-0.5-0.5c-0.2-0.2-0.4-0.4-0.5-0.6
			c-0.2-0.2-0.3-0.4-0.3-0.7c0.3-0.8,0.7-1.6,1.2-2.3c0.3-0.4,0.5-0.8,0.8-1.2c0.2-0.3,0.3-0.7,0.3-1c0.1-0.4,0.1-0.7,0.1-1.1
			c0-0.4,0-0.9,0.1-1.5c0.1-0.9,0.2-1.7,0.2-2.4c0.1-0.7,0.2-1.4,0.3-2c0.1-0.7,0.3-1.3,0.5-1.9c0.2-0.7,0.5-1.3,0.9-2
			c0.3-0.6,0.7-1.2,1.1-1.7c0.4-0.6,0.9-1.1,1.4-1.6c0.5-0.5,1.1-0.9,1.7-1.2c0.6-0.3,1.2-0.5,1.9-0.5c1.3-0.1,2.5,0.3,3.4,1.1
			c1,0.8,1.6,1.9,1.7,3.2c0,1.7-0.5,3.5-1.5,4.9c-0.4,1-1.3,1.7-2.3,1.8l-0.4,0c0.1-0.7,0.2-1.4,0.3-2.1c0.1-0.6,0.1-1.2,0-1.8
			c0-0.2,0-0.6-0.1-1c-0.1-0.4-0.1-0.8-0.2-1.1c-0.1-0.3-0.2-0.7-0.4-1c-0.1-0.2-0.3-0.4-0.6-0.4c-0.2,0-0.4,0.2-0.5,0.4
			c-0.2,0.3-0.4,0.5-0.6,0.8c-0.2,0.3-0.4,0.7-0.6,1.1c-0.2,0.4-0.4,0.8-0.5,1.1c-0.2,0.6-0.4,1.2-0.5,1.8c-0.2,0.8-0.3,1.6-0.5,2.5
			c-0.1,0.9-0.3,1.7-0.4,2.6c-0.1,0.9-0.2,1.6-0.2,2.3l0.1,0.9c0,0.1,0.1,0.2,0.3,0.2c0.3,0,0.6,0.1,0.8,0.1c0.4,0,0.8,0,1.2,0
			c0.4,0,0.9,0,1.4-0.1c0.8,0,1.5-0.1,2.2-0.2c0.7-0.1,1.4-0.2,2.1-0.3c0.7-0.1,1.4-0.2,2.1-0.4s1.5-0.3,2.3-0.5l0.4-0.1
			c0.1,0,0.2,0,0.4,0C-1608-1032.3-1607.6-1032-1607.5-1031.4z"/>
		<path class="st1" d="M-1579-1031.1c0,0.2,0,0.4-0.1,0.7c-0.1,0.3-0.1,0.5-0.2,0.8c-0.1,0.3-0.2,0.5-0.3,0.7
			c-0.1,0.2-0.2,0.4-0.4,0.6c-0.1,0.1-0.2,0.3-0.4,0.5c-0.2,0.2-0.3,0.4-0.5,0.7c-0.2,0.2-0.4,0.5-0.7,0.8c-0.2,0.3-0.5,0.6-0.7,0.9
			c-0.8,0.9-1.7,1.7-2.5,2.6c-0.8,0.8-1.7,1.6-2.7,2.3c-0.9,0.7-1.9,1.2-3,1.7c-1.1,0.4-2.2,0.7-3.4,0.8c-0.5,0-1.1-0.1-1.6-0.2
			c-0.5-0.2-1.1-0.5-1.5-0.8c-0.5-0.4-0.9-0.8-1.3-1.3c-0.4-0.5-0.6-1.1-0.8-1.7c-0.3,0.5-0.6,1-1,1.5c-0.4,0.5-0.8,1.1-1.3,1.6
			c-0.5,0.5-1,1.1-1.5,1.5s-1,0.9-1.5,1.3c-0.4,0.3-0.8,0.5-1.2,0.8c-0.5,0.3-1,0.5-1.5,0.8c-0.5,0.2-1,0.4-1.6,0.6
			c-0.5,0.2-1,0.2-1.5,0.3c-0.7,0.1-1.4-0.1-1.9-0.5c-0.6-0.4-1.1-0.9-1.4-1.4c-0.7-1.1-1.2-2.4-1.3-3.7c-0.1-1,0-2.1,0.3-3.1
			c0.2-1,0.6-2.1,1-3.1c0.4-1,0.8-2,1.4-2.9c0.5-0.9,1-1.7,1.5-2.5c0.6-0.8,1.2-1.6,1.9-2.3c0.7-0.7,1.5-1.4,2.4-2.1
			c0.8-0.6,1.6-1.1,2.5-1.5c0.7-0.4,1.5-0.6,2.2-0.7c0.4,0,0.7,0,1.1,0c0.4,0,0.8,0,1.1,0c0.4,0,0.7,0.1,1.1,0.1
			c0.3,0.1,0.6,0.2,0.9,0.3c0.2,0.2,0.5,0.4,0.6,0.6c0.2,0.3,0.5,0.6,0.7,1c0.2,0.3,0.4,0.7,0.5,1c0.1,0.2,0.2,0.5,0.3,0.8
			c0,0.5,0,1-0.1,1.5c-0.1,0.6-0.2,1.2-0.3,1.8c-0.1,0.6-0.2,1.3-0.3,2c-0.1,0.6-0.1,1.3-0.1,1.9c0,0.4,0.1,0.9,0.3,1.3
			c0.1,0.4,0.3,0.8,0.6,1.2c0.2,0.3,0.5,0.6,0.9,0.8c0.3,0.2,0.7,0.3,1.1,0.3c0.9-0.1,1.8-0.3,2.6-0.7c0.9-0.4,1.7-0.9,2.5-1.5
			c0.9-0.7,1.7-1.4,2.5-2.2c0.8-0.8,1.7-1.7,2.5-2.7c0.1-0.1,0.3-0.2,0.4-0.4c0.2-0.2,0.4-0.5,0.7-0.8c0.3-0.3,0.6-0.6,0.9-0.8
			c0.2-0.2,0.5-0.3,0.8-0.4c0.3-0.1,0.7,0.1,0.9,0.3C-1579.1-1031.9-1579-1031.5-1579-1031.1z M-1599.6-1032.2
			c0-0.2-0.1-0.3-0.1-0.5c-0.1-0.2-0.1-0.3-0.2-0.5c-0.1-0.1-0.2-0.3-0.3-0.4c-0.1-0.1-0.2-0.1-0.3-0.2c-1,0-1.9,0.4-2.7,1
			c-0.9,0.7-1.7,1.5-2.4,2.3c-0.6,0.7-1,1.4-1.5,2.1c-0.5,0.9-1,1.8-1.4,2.8c-0.4,0.9-0.8,1.9-1,2.9c-0.2,0.8-0.4,1.7-0.3,2.5
			c0,0.2,0,0.4,0.1,0.5c0,0.2,0.1,0.3,0.2,0.5c0.1,0.1,0.2,0.2,0.3,0.3c0.1,0.1,0.3,0.1,0.5,0.1c0.7-0.1,1.3-0.3,1.9-0.7
			c0.7-0.4,1.4-1,2.1-1.6c0.7-0.7,1.4-1.4,2-2.2c0.6-0.8,1.1-1.6,1.6-2.5c0.5-1,0.9-2.1,1.3-3.2
			C-1599.6-1029.9-1599.5-1031.1-1599.6-1032.2L-1599.6-1032.2z"/>
		<path class="st1" d="M-1560-1033.4c0,0.5-0.2,1.1-0.5,1.6c-0.4,0.7-0.8,1.4-1.2,2c-0.5,0.7-1.1,1.4-1.7,2.2
			c-0.6,0.7-1.2,1.4-1.8,2.1c-0.4,0.4-0.9,0.9-1.6,1.6c-0.7,0.7-1.5,1.4-2.3,2.2c-0.9,0.8-1.8,1.7-2.7,2.5c-0.9,0.9-1.8,1.7-2.7,2.5
			c-0.8,0.8-1.6,1.4-2.2,2c-0.6,0.6-1.1,1-1.4,1.2c-0.8,0.6-1.6,1.1-2.5,1.6c-0.7,0.3-1.4,0.6-2.1,0.6c-0.4,0-0.9,0-1.3-0.1
			c-0.3-0.1-0.6-0.2-0.9-0.3c-0.2-0.1-0.4-0.3-0.5-0.5c-0.1-0.2-0.2-0.4-0.2-0.6c0-0.5,0-1,0.2-1.4c0.2-0.5,0.5-0.9,0.8-1.2
			c0.5-0.4,1-0.8,1.5-1.1c0.6-0.4,1.4-0.8,2.2-1.2c0.6-0.3,1.1-0.5,1.5-0.7c0.4-0.2,0.8-0.5,1.2-0.8c0.3-0.2,0.6-0.5,0.7-0.9
			c0.2-0.4,0.2-0.8,0.2-1.2c0-0.2-0.1-0.4-0.2-0.6c-0.2-0.3-0.4-0.6-0.6-1c-0.2-0.4-0.5-0.8-0.8-1.2l-0.9-1.3l-0.8-1.2
			c-0.3-0.4-0.5-0.7-0.6-0.9c-0.7-1-1-2.2-1.1-3.4c0-0.5,0-1.1,0-1.6c0.1-0.6,0.2-1.1,0.4-1.7c0.2-0.7,0.5-1.4,0.8-2.1
			c0.4-0.7,0.8-1.3,1.4-1.9c0.5-0.5,1-1,1.6-1.3c0.4-0.3,0.9-0.5,1.4-0.6c0.4,0,0.9,0,1.3,0.1c0.3,0.1,0.6,0.2,0.8,0.4
			c0.2,0.2,0.4,0.5,0.4,0.7c0.1,0.4,0.2,0.7,0.2,1.1c0,0.4-0.1,0.7-0.2,1.1c-0.2,0.4-0.4,0.7-0.6,1c-0.2,0.3-0.5,0.6-0.8,0.9
			l-0.7,0.7c-0.3,0.3-0.6,0.6-0.9,0.8c-0.2,0.2-0.4,0.4-0.6,0.7c0.1,0.9,0.4,1.8,0.8,2.6c0.2,0.4,0.6,0.8,0.9,1.4l1.1,1.7
			c0.4,0.6,0.8,1.1,1.1,1.6c0.3,0.5,0.6,0.9,0.8,1.2c0.3-0.2,0.6-0.4,0.9-0.7c0.4-0.3,0.9-0.7,1.4-1.1c0.5-0.4,1.1-0.9,1.8-1.5
			c0.6-0.5,1.2-1.1,1.9-1.7s1.2-1.2,1.8-1.7c0.6-0.6,1.1-1.1,1.6-1.6c0.4-0.4,0.7-0.8,1-1.1c0.3-0.3,0.5-0.6,0.7-0.8
			c0.2-0.2,0.3-0.3,0.5-0.5c0.1-0.1,0.3-0.2,0.5-0.2c0.2,0,0.4,0.1,0.5,0.2c0.1,0.1,0.2,0.3,0.3,0.5c0.1,0.2,0.1,0.3,0.2,0.5
			C-1560-1033.5-1560-1033.4-1560-1033.4z"/>
	</g>
	<g transform="translate(2294.458 1190.053)">
		<g>
			<defs>
				<rect id="SVGID_1_" x="-1643.1" y="-910.8" width="267.7" height="242.1"/>
			</defs>
			<clipPath id="SVGID_00000069369676247822823460000006278663416455596934_">
				<use xlink:href="#SVGID_1_"  style="overflow:visible;"/>
			</clipPath>
			<g transform="translate(0 0)" style="clip-path:url(#SVGID_00000069369676247822823460000006278663416455596934_);">
				<g transform="translate(224.535 55.799)">
					<path class="st8" d="M-1716.1-931.5c-6-2.5-12.1-4.8-18.1-7.3c-0.1-0.1-0.3-0.1-0.4-0.1c-1.1-0.9-2.3-1.8-3.4-2.7
						c-0.1-0.1-0.3-0.2-0.4-0.3c3.7,0,7.4,1.2,10.4,3.4c3.5,1.9,7,4,10.4,6C-1717.1-932.1-1716.6-931.8-1716.1-931.5z"/>
					<path class="st9" d="M-1810.7-929.8c-1.7,4.9-8.1,7.1-13.3,7.7c1-1.8,2.6-3.2,4.5-4C-1816.7-927.5-1813.7-928.7-1810.7-929.8z"
						/>
					<path class="st3" d="M-1828.3-916.9c-1.1-0.8-2.1-1.6-3.1-2.5c0.9,0.1,1.9,0.2,2.8,0.3c0,0.5,0.1,0.9,0.1,1.4
						C-1828.4-917.5-1828.3-917.2-1828.3-916.9z"/>
					<path class="st8" d="M-1816.3-894.4c0,0.4,0,0.8,0,1.2v0c-0.2,0.1-0.5,0.2-0.7,0.3C-1816.7-893.3-1816.5-893.9-1816.3-894.4z"
						/>
					<path class="st8" d="M-1813-907.3c-0.1,0.2-0.2,0.3-0.3,0.5c-0.3-0.1-0.5-0.3-0.8-0.5C-1813.7-907.2-1813.3-907.3-1813-907.3z"
						/>
					<path class="st9" d="M-1815.3-903.6c-1,1.4-2,2.9-2.9,4.5c-0.5,1-1.1,1.9-1.5,2.9c-0.2,0.5-0.4,1.1-0.7,1.7
						c-0.1-0.2-0.2-0.4-0.3-0.5c0.1-0.6,0.3-1.2,0.5-1.9c0.3-1.1,0.6-2.1,1-3.1c0.6-1.6,1.4-3.1,2.5-4.4
						C-1816.2-904.1-1815.7-903.8-1815.3-903.6z"/>
					<path class="st9" d="M-1805.6-895.8c-0.9,3.4-3.3,6.2-6.6,7.6c-0.1-1.4-0.2-2.9-0.3-4.3c-0.1-2,0-3.9,0.4-5.8
						c0.3-2.7,1.3-5.2,2.9-7.3c0.8-0.6,1.8-0.9,2.8-0.8C-1805.4-903-1805.1-899.4-1805.6-895.8z"/>
					<path class="st3" d="M-1607.8-828.1c-0.9,1.7-2.1,3.3-3.6,4.5c-1.9,1.4-1.8,0.7-3.2,0.4c-1.4-0.4-2.7-0.8-4.1-1.4
						c-3.3-1.2-6.6-2.5-9.8-3.8c-8.9-3.5-17.8-7.2-26.7-10.9c-19.5-8.2-39-16.5-58.3-25c-8.9-3.9-17.9-7.9-26.8-12
						c-10.6-4.8-21.5-9.2-32.3-13.6c-0.3-0.3-0.7-0.5-1.1-0.5c-6.2-2.6-12.5-5.2-18.6-8c-0.5-0.9-0.9-1.8-1.5-2.6
						c-2.1-3.4-5.1-6.3-8.7-8.2c0.8-0.2,1.6-0.4,2.5-0.6c0.6-0.2,1.3-0.3,1.9-0.4c22.1,8.8,44,18.1,65.8,27.5c0,0,0.1,0,0.1,0.1
						c9.7,4.2,19.4,8.4,29,12.6c15.8,6.9,31.7,13.8,47.6,20.6c8,3.4,16,6.8,24,10.1c3.8,1.6,7.5,3.1,11.3,4.6c2,0.8,4,1.6,6,2.4
						C-1612.5-831.5-1607.7-830.6-1607.8-828.1z"/>
					<path class="st8" d="M-1735.8-888.4c-6.2-2.7-12.5-5.4-18.8-8c1.6-0.9,3.2-1.5,5-1.9c1.8,1.4,3.5,2.7,5.3,4
						c2.2,1.5,4.4,3,6.6,4.4C-1737-889.5-1736.4-889-1735.8-888.4z"/>
					<path class="st8" d="M-1756.8-879.5c-8.3,2.7-16.2,6.5-23.4,11.3c-2.2-3.7-4-7.7-5.4-11.8c4-2.3,8-4.4,12-6.5
						C-1768-884.1-1762.4-881.9-1756.8-879.5z"/>
					<path class="st8" d="M-1778.2-888.3c-2.9,1.5-5.8,3.1-8.6,4.7c-1-3.2-1.9-6.5-3.2-9.7C-1786-891.6-1782.1-889.9-1778.2-888.3z"
						/>
					<path class="st8" d="M-1753.1-901.2c-2,0.9-4,1.8-6,2.9c-10.7-4.5-21.5-9-32.3-13.3c2.3-0.5,4.7-0.9,7.1-1.3
						c2.8-0.5,5.6-0.9,8.4-1.4c2.5-0.7,5-0.9,7.5-0.6c0.2,0.1,0.3,0.1,0.5,0.1c0.1,0,0.3,0.1,0.4,0.1c2.1,1.2,4,2.9,5.4,4.9
						c1.6,1.8,3.4,3.4,5.1,5C-1755.7-903.4-1754.4-902.3-1753.1-901.2z"/>
					<path class="st8" d="M-1659.4-855.1c-7.8-3.3-15.6-6.7-23.4-10.1c-15.7-6.8-31.4-13.8-47.2-20.6c-0.8-2.6-2.4-4.8-4.5-6.5
						c-3.5-2.5-7.3-4.7-10.7-7.4c-3.3-2.5-6.4-5.1-9.4-7.9c-2.9-2.7-5.4-6-8.4-8.6c-0.9-0.8-1.9-1.4-3-1.8
						c-1.1-3.5-0.5-7.3,1.7-10.2c1.7-1.8-1.3-4.1-3-2.3c-2.7,3.3-3.7,7.6-2.7,11.7c-5,0.1-10,0.8-14.8,2.1c-1.5,0.3-3.1,0.5-4.7,0.8
						c-1.4-2.5-2.2-5.2-2.4-8.1c-0.2-2.4-3.9-2-3.8,0.4c0.2,2.9,1,5.8,2.3,8.4c-1.4,0.3-2.9,0.6-4.3,0.9c-4.6,1.3-9.3,2.3-14,3
						c-4.4,0.9-8.9-0.7-11.8-4.1c-0.7-0.9-1.1-1.9-1.3-3c7.3-0.5,16.3-4.2,17.9-11.9c0.1-0.3,0.1-0.7-0.1-1
						c4.6-1.4,9.2-2.6,13.7-3.6c3.8-0.6,7.5-1.6,11.1-2.8c4.2-1.7,8.3-3.7,12.4-5.5c4.5-2.4,9.5-3.5,14.6-3.2
						c4.7,1,9.1,3.1,12.8,6.2c14.8,10.6,28,23.3,38.9,37.9c0.7,0.8,1.8,0.9,2.7,0.3c0.8-0.6,0.9-1.7,0.4-2.5
						c-7.3-9.8-15.7-18.8-25-26.8c6.3,2.5,12.7,5.1,18.9,7.8c9.7,3.8,19,8.5,27.8,14.1c8.5,5.8,14.3,14.9,15.9,25
						C-1660.7-874.6-1660.4-864.8-1659.4-855.1z"/>
					<path class="st1" d="M-1682.4-763.9c-5.8,2.6-11.3,5.6-16.6,9c-2,1.3-4.3-1.7-2.3-3c5.6-3.6,11.4-6.8,17.5-9.5
						C-1681.6-768.4-1680.2-764.9-1682.4-763.9z"/>
					<path class="st8" d="M-1536.3-595.8c-11-18.4-23.7-35.8-35.3-53.8c-11.1-17.2-22.1-34.5-32.8-52c-9.4-15-17.4-30.8-23.6-47.4
						c-2.7-7.3-5.1-14.7-8.1-21.8c-2.9-6.9-6.6-13.3-9.8-20.1c-6.4-13.9-8.7-29.9-11-45c-20.4-8.6-40.8-17.3-61.1-26.3
						c-3.5-1.5-7-3.1-10.4-4.6c-3.2,7.2-8.3,13.4-14.9,17.9c-6.4,4.8-14.7,11.7-21.9,4.8c-7.4-6.7-13.8-14.5-19.1-23
						c-4.3-7.6-6-16.1-9-24.3c-1.1-3.4-2.8-6.6-4.9-9.5c-1.2-1.4-2.5-2.7-4-3.7c1,4,0.9,8.2-0.4,12.1c-1.8,3.9-5.1,7-9.2,8.5
						c0.2,1.9,0.4,3.9,0.5,5.9c0,4.8-0.3,9.6-0.9,14.3c-0.5,5.8,1.1,11.5,4.6,16.1c5.7,8.4,11.6,16.8,17.3,25.3
						c6.2,8.4,13.6,15.8,22,22.1c7.8,6.4,15.9,12.5,24.2,18.2c8.1,5.6,16.6,10.7,25,15.9c7.9,4.4,14.6,10.5,19.6,17.9
						c5,8.5,9.6,17.3,13.5,26.4c4.5,9.5,8.8,19.1,12.8,28.7c8.2,19.3,15.5,39,22.4,58.8c13.7,39.8,25.4,80.3,37,120.7l104.9-30.5
						C-1517.1-561.9-1526.3-579.1-1536.3-595.8z M-1682.4-763.9c-5.8,2.6-11.3,5.6-16.6,9c-2,1.3-4.3-1.7-2.3-3
						c5.6-3.6,11.4-6.8,17.5-9.5C-1681.6-768.4-1680.2-764.9-1682.4-763.9L-1682.4-763.9z"/>
					<path class="st1" d="M-1716.1-931.5c-6-2.5-12.1-4.8-18.1-7.3c-0.1-0.1-0.3-0.1-0.4-0.1c-1.1-0.9-2.3-1.8-3.4-2.7l-0.4-0.3
						c3.7,0,7.4,1.2,10.4,3.4c3.5,1.9,7,4,10.4,6C-1717.1-932.1-1716.6-931.8-1716.1-931.5z M-1810.7-929.8
						c-1.7,4.9-8.1,7.1-13.3,7.7c1-1.8,2.6-3.2,4.5-4C-1816.7-927.5-1813.7-928.7-1810.7-929.8L-1810.7-929.8z M-1828.5-917.8
						c0.1,0.3,0.1,0.6,0.2,0.9c-1.1-0.8-2.1-1.6-3.1-2.5c0.9,0.1,1.9,0.2,2.8,0.3C-1828.6-918.7-1828.5-918.3-1828.5-917.8
						L-1828.5-917.8z M-1817-892.8c0.2-0.5,0.5-1,0.7-1.5c0,0.4,0,0.8,0,1.2v0C-1816.5-893-1816.7-892.9-1817-892.8L-1817-892.8z
						 M-1818.1-899.1c-0.5,1-1.1,1.9-1.5,2.9c-0.2,0.5-0.4,1.1-0.7,1.7c-0.1-0.2-0.2-0.4-0.3-0.5c0.1-0.6,0.3-1.2,0.5-1.9
						c0.3-1.1,0.6-2.1,1-3.1c0.6-1.6,1.4-3.1,2.5-4.4c0.4,0.3,0.9,0.5,1.4,0.8C-1816.3-902.2-1817.2-900.6-1818.1-899.1
						L-1818.1-899.1z M-1805.6-895.8c-0.9,3.4-3.3,6.2-6.6,7.6c-0.1-1.4-0.2-2.9-0.3-4.3c-0.1-2,0-3.9,0.4-5.8
						c0.3-2.7,1.3-5.2,2.9-7.3c0.8-0.6,1.8-0.9,2.8-0.8C-1805.4-903-1805.1-899.3-1805.6-895.8L-1805.6-895.8z M-1814.1-907.2
						c0.4,0,0.8,0,1.1,0c-0.1,0.2-0.2,0.3-0.3,0.5C-1813.6-906.9-1813.8-907.1-1814.1-907.2L-1814.1-907.2z M-1811.5-911.1
						c-4.4,0.9-8.9-0.7-11.9-4.1c-0.7-0.9-1.1-1.9-1.3-3c7.3-0.5,16.3-4.2,17.9-11.9c0.1-0.3,0.1-0.7-0.1-1
						c4.6-1.4,9.2-2.6,13.7-3.6c3.8-0.6,7.5-1.6,11.1-2.8c4.2-1.7,8.3-3.7,12.4-5.5c4.5-2.4,9.5-3.5,14.6-3.2
						c4.7,1,9.1,3.1,12.8,6.2c14.8,10.6,28,23.3,38.9,37.9c0.7,0.8,1.9,0.9,2.7,0.3c0.8-0.6,0.9-1.7,0.4-2.5
						c-7.3-9.8-15.7-18.8-25-26.8c6.3,2.5,12.7,5.1,18.9,7.8c9.7,3.8,19,8.5,27.8,14.1c8.5,5.8,14.3,14.9,15.9,25
						c1.8,9.5,2.2,19.3,3.1,29c-7.8-3.3-15.6-6.7-23.4-10.1c-15.7-6.8-31.4-13.8-47.2-20.6c-0.8-2.6-2.4-4.8-4.5-6.5
						c-3.5-2.5-7.3-4.7-10.7-7.4c-3.3-2.5-6.4-5.1-9.4-7.9c-2.9-2.7-5.4-6-8.4-8.6c-0.9-0.8-1.9-1.4-3-1.8
						c-1.1-3.5-0.5-7.3,1.7-10.2c1.7-1.8-1.3-4.1-3-2.4c-2.7,3.2-3.7,7.6-2.7,11.6c-5,0.1-10,0.8-14.8,2.1c-1.5,0.3-3.1,0.5-4.7,0.8
						c-1.4-2.5-2.2-5.2-2.4-8.1c-0.2-2.4-3.9-2-3.8,0.4c0.2,2.9,1,5.8,2.3,8.4c-1.4,0.3-2.9,0.6-4.3,0.9
						C-1802.1-912.9-1806.8-911.9-1811.5-911.1L-1811.5-911.1z M-1749.6-898.3c1.7,1.4,3.5,2.7,5.3,4c2.2,1.5,4.4,3,6.6,4.4
						c0.7,0.4,1.3,1,1.9,1.5c-6.3-2.7-12.5-5.4-18.8-8C-1753-897.3-1751.3-897.9-1749.6-898.3L-1749.6-898.3z M-1759-898.3
						c-10.7-4.5-21.5-9-32.3-13.3c2.3-0.5,4.7-0.9,7.1-1.3c2.8-0.5,5.6-0.9,8.4-1.4c2.5-0.7,5-0.9,7.5-0.6c0.2,0.1,0.3,0.1,0.5,0.1
						c0.1,0,0.3,0.1,0.4,0.1c2.1,1.2,4,2.9,5.4,4.9c1.6,1.8,3.4,3.4,5.2,5c1.3,1.2,2.5,2.3,3.9,3.4
						C-1755.1-900.3-1757.1-899.4-1759-898.3L-1759-898.3z M-1786.8-883.6c-1-3.2-1.9-6.5-3.2-9.7c3.9,1.7,7.8,3.4,11.8,5
						C-1781.1-886.8-1784-885.2-1786.8-883.6L-1786.8-883.6z M-1785.6-879.9c4-2.3,8-4.4,12-6.5c5.6,2.3,11.2,4.6,16.8,6.9
						c-8.3,2.7-16.2,6.5-23.4,11.3C-1782.4-871.9-1784.2-875.8-1785.6-879.9L-1785.6-879.9z M-1749.4-849.3
						c-3.9,2.6-8.4,6.5-12.7,2.9c-4-3.6-7.6-7.4-10.9-11.6c-1.9-2.2-3.7-4.6-5.3-7c0.1,0,0.2-0.1,0.2-0.1
						c8.2-5.4,17.2-9.5,26.6-12.1c2.2,0.9,4.4,1.9,6.6,2.9c4.4,2,8.7,4,13.1,5.9C-1734.7-860.1-1742.3-854-1749.4-849.3
						L-1749.4-849.3z M-1713.5-864.3c-8.9-3.9-17.9-7.9-26.8-12c-10.6-4.8-21.5-9.2-32.3-13.7c-0.3-0.3-0.7-0.5-1.1-0.4
						c-6.2-2.6-12.5-5.2-18.6-8c-0.5-0.9-0.9-1.8-1.5-2.6c-2.1-3.4-5.1-6.3-8.7-8.2c0.8-0.2,1.6-0.4,2.5-0.6
						c0.6-0.2,1.3-0.3,1.9-0.4c22.1,8.8,44,18.1,65.8,27.5c0,0,0.1,0,0.1,0.1c9.7,4.2,19.4,8.4,29,12.6
						c15.8,6.9,31.7,13.8,47.6,20.6c8,3.4,16,6.8,24,10.1c3.8,1.6,7.5,3.1,11.3,4.6c2,0.8,4,1.6,6,2.4c1.7,0.7,6.5,1.6,6.4,4.1
						c-0.9,1.7-2.1,3.3-3.6,4.5c-1.9,1.4-1.8,0.7-3.2,0.4c-1.4-0.4-2.7-0.8-4.1-1.4c-3.3-1.2-6.6-2.5-9.8-3.8
						c-8.9-3.5-17.8-7.2-26.7-10.9C-1674.7-847.5-1694.1-855.8-1713.5-864.3L-1713.5-864.3z M-1526.9-587.1
						c-10.8-19.1-23.6-36.9-35.5-55.3c-11.7-17.9-23.2-36-34.4-54.2c-8.5-13.2-16-26.9-22.6-41.1c-6.8-15.6-11.3-32-19.2-47.2
						c-4.2-7.8-7.4-16.1-9.4-24.8c-1.9-8.1-3.4-16.3-4.7-24.6c8.1,3.4,16.2,6.7,24.4,9.9c3.4,1.3,6.7,2.6,10.1,3.8
						c3.2,1.1,6.5,2.5,9.4-0.1c4.2-3.8,8.5-9.8,1.6-12.9c-8.2-3.7-16.9-6.8-25.3-10.2c-7.6-3.2-15.2-6.4-22.8-9.6
						c-0.9-7.9-2.3-24.3-2.3-24.3l-0.6-3.8c0-0.1,0-0.2,0-0.3c-2-11.2-6-21.5-15.8-29c-6.6-4.7-13.7-8.7-21.2-11.8
						c-0.1-0.1-0.2-0.2-0.4-0.3c-7.5-5-15.1-9.9-22.8-14.5c-6.4-3.8-15.9-11.2-23.6-7.1c-5.1-4-11.6-5.9-18.1-5.4
						c-9.8,1.4-18,8.1-27.5,10.3c-9.8,2.1-19.4,4.8-28.8,8.3c-4.5,1.7-9.6,4.2-11.3,8.5c-2.7-0.3-5.4-0.5-8.2-0.5
						c-1,0.1-1.8,1.1-1.7,2.1c0,0.3,0.2,0.6,0.3,0.9c3.5,3.9,7.6,7.3,12,10.1c1.8,1.3,3.7,2.6,5.6,3.9c-2.4,3.2-3.9,6.9-4.5,10.9
						c-1,5.8,3.8,7.1,8.3,6.2c0.3,3.4,0.7,6.7,0.9,10.1c0.4,5.9-0.8,11.6-0.9,17.5c-0.2,9.9,5.8,16.8,11.1,24.5
						c1.2,1.8,3.5,5.3,3.5,5.3l2.1,3.3c8.6,14.2,20.2,26.3,34,35.5c7.9,6.3,16.1,12.2,24.5,17.8c8.2,5.4,16.9,10.1,25,15.7
						c8.2,6.1,14.7,14.3,18.8,23.6c4.8,9.4,9.3,18.8,13.5,28.4c8.6,19.2,16.3,38.7,23.5,58.4c16.3,45,29.5,91,42.7,136.9
						c0.7,2.3,4.2,0.9,3.5-1.4c-11.6-40.4-23.2-80.9-37-120.7c-6.9-19.8-14.2-39.5-22.4-58.9c-4.1-9.7-8.3-19.3-12.8-28.7
						c-4-9.1-8.5-17.9-13.5-26.4c-5-7.4-11.8-13.6-19.6-17.9c-8.4-5.2-16.9-10.3-25-15.9c-8.3-5.7-16.4-11.8-24.2-18.2
						c-8.4-6.3-15.8-13.7-22-22.1c-5.7-8.4-11.5-16.8-17.3-25.3c-3.5-4.6-5.1-10.4-4.6-16.1c0.5-4.8,0.8-9.5,0.9-14.3
						c-0.1-2-0.2-3.9-0.4-5.9c4.1-1.5,7.4-4.5,9.2-8.5c1.3-3.9,1.4-8.1,0.4-12.1c1.5,1.1,2.8,2.3,4,3.7c2.1,2.9,3.8,6.1,4.9,9.5
						c3,8.1,4.7,16.7,9,24.2c5.2,8.6,11.6,16.3,19.1,23.1c7.3,6.9,15.5,0,21.9-4.8c6.6-4.4,11.7-10.6,14.9-17.9
						c3.5,1.6,6.9,3.1,10.4,4.6c20.3,8.9,40.6,17.7,61.1,26.3c2.3,15.1,4.6,31,11,45c3.1,6.8,6.9,13.2,9.8,20.1
						c3,7.2,5.4,14.6,8.1,21.8c6.3,16.6,14.2,32.4,23.6,47.4c10.7,17.5,21.6,34.8,32.8,52c11.6,18,24.3,35.4,35.3,53.8
						c10,16.7,19.1,33.9,27.4,51.5c1,2.2,4.5,0.8,3.5-1.4C-1512-559.7-1519.2-573.5-1526.9-587.1L-1526.9-587.1z"/>
				</g>
			</g>
		</g>
	</g>
</g>
</svg>
